<ttFont>
    <TTGlyph name=".notAccess" xMin="11" yMin="0" xMax="542" yMax="533">
      <contour>
        <pt x="274" y="450" on="1"/>
        <pt x="174" y="205" on="1"/>
        <pt x="375" y="205" on="1"/>
      </contour>
      <contour>
        <pt x="464" y="0" on="1"/>
        <pt x="406" y="142" on="1"/>
        <pt x="145" y="142" on="1"/>
        <pt x="87" y="0" on="1"/>
        <pt x="11" y="0" on="1"/>
        <pt x="234" y="533" on="1"/>
        <pt x="316" y="533" on="1"/>
        <pt x="542" y="0" on="1"/>
      </contour>
    </TTGlyph>
    <TTGlyph name=".notdef" xMin="100" yMin="0" xMax="1300" yMax="1800">
      <contour>
        <pt x="150" y="50" on="1"/>
        <pt x="1250" y="50" on="1"/>
        <pt x="1250" y="1750" on="1"/>
        <pt x="150" y="1750" on="1"/>
      </contour>
      <contour>
        <pt x="100" y="1800" on="1"/>
        <pt x="1300" y="1800" on="1"/>
        <pt x="1300" y="0" on="1"/>
        <pt x="100" y="0" on="1"/>
      </contour>
    </TTGlyph>
    <TTGlyph name="A" xMin="0" yMin="0" xMax="1221" yMax="1317">
      <contour>
        <pt x="754" y="540" on="1"/>
        <pt x="582" y="1038" on="1"/>
        <pt x="418" y="540" on="1"/>
      </contour>
      <contour>
        <pt x="385" y="440" on="1"/>
        <pt x="279" y="121" on="1"/>
        <pt x="269" y="90" on="0"/>
        <pt x="341" y="62" on="0"/>
        <pt x="423" y="53" on="1"/>
        <pt x="423" y="0" on="1"/>
        <pt x="0" y="0" on="1"/>
        <pt x="0" y="53" on="1"/>
        <pt x="68" y="65" on="0"/>
        <pt x="146" y="91" on="0"/>
        <pt x="156" y="121" on="1"/>
        <pt x="520" y="1227" on="1"/>
        <pt x="552" y="1257" on="0"/>
        <pt x="637" y="1303" on="0"/>
        <pt x="672" y="1317" on="1"/>
        <pt x="1092" y="121" on="1"/>
        <pt x="1097" y="107" on="0"/>
        <pt x="1114" y="85" on="0"/>
        <pt x="1144" y="69" on="0"/>
        <pt x="1189" y="57" on="0"/>
        <pt x="1221" y="53" on="1"/>
        <pt x="1221" y="0" on="1"/>
        <pt x="774" y="0" on="1"/>
        <pt x="774" y="53" on="1"/>
        <pt x="852" y="58" on="0"/>
        <pt x="910" y="88" on="0"/>
        <pt x="899" y="121" on="1"/>
        <pt x="789" y="440" on="1"/>
      </contour>
    </TTGlyph>
    <TTGlyph name="AE" xMin="0" yMin="0" xMax="1560" yMax="1260">
      <contour>
        <pt x="769" y="1138" on="1"/>
        <pt x="769" y="1149" on="0"/>
        <pt x="752" y="1159" on="0"/>
        <pt x="728" y="1156" on="0"/>
        <pt x="703" y="1138" on="0"/>
        <pt x="696" y="1121" on="1"/>
        <pt x="542" y="735" on="1"/>
        <pt x="769" y="735" on="1"/>
      </contour>
      <contour>
        <pt x="1560" y="264" on="1"/>
        <pt x="1555" y="221" on="0"/>
        <pt x="1544" y="139" on="0"/>
        <pt x="1532" y="68" on="0"/>
        <pt x="1522" y="15" on="0"/>
        <pt x="1518" y="0" on="1"/>
        <pt x="629" y="0" on="1"/>
        <pt x="629" y="53" on="1"/>
        <pt x="697" y="67" on="0"/>
        <pt x="769" y="100" on="0"/>
        <pt x="769" y="114" on="1"/>
        <pt x="769" y="642" on="1"/>
        <pt x="505" y="642" on="1"/>
        <pt x="293" y="121" on="1"/>
        <pt x="280" y="92" on="0"/>
        <pt x="337" y="62" on="0"/>
        <pt x="416" y="53" on="1"/>
        <pt x="416" y="0" on="1"/>
        <pt x="0" y="0" on="1"/>
        <pt x="0" y="53" on="1"/>
        <pt x="66" y="64" on="0"/>
        <pt x="141" y="92" on="0"/>
        <pt x="154" y="121" on="1"/>
        <pt x="559" y="1123" on="1"/>
        <pt x="566" y="1140" on="0"/>
        <pt x="549" y="1163" on="0"/>
        <pt x="503" y="1182" on="0"/>
        <pt x="430" y="1198" on="0"/>
        <pt x="381" y="1207" on="1"/>
        <pt x="381" y="1260" on="1"/>
        <pt x="1461" y="1260" on="1"/>
        <pt x="1493" y="1233" on="1"/>
        <pt x="1491" y="1207" on="0"/>
        <pt x="1484" y="1140" on="0"/>
        <pt x="1473" y="1071" on="0"/>
        <pt x="1459" y="1009" on="0"/>
        <pt x="1452" y="990" on="1"/>
        <pt x="1397" y="990" on="1"/>
        <pt x="1392" y="1082" on="0"/>
        <pt x="1354" y="1160" on="0"/>
        <pt x="1315" y="1160" on="1"/>
        <pt x="959" y="1160" on="1"/>
        <pt x="959" y="735" on="1"/>
        <pt x="1362" y="735" on="1"/>
        <pt x="1391" y="705" on="1"/>
        <pt x="1382" y="691" on="0"/>
        <pt x="1359" y="657" on="0"/>
        <pt x="1334" y="624" on="0"/>
        <pt x="1309" y="595" on="0"/>
        <pt x="1299" y="587" on="1"/>
        <pt x="1270" y="616" on="0"/>
        <pt x="1184" y="642" on="0"/>
        <pt x="1125" y="642" on="1"/>
        <pt x="959" y="642" on="1"/>
        <pt x="959" y="164" on="1"/>
        <pt x="959" y="149" on="0"/>
        <pt x="974" y="126" on="0"/>
        <pt x="1019" y="109" on="0"/>
        <pt x="1100" y="100" on="0"/>
        <pt x="1166" y="100" on="1"/>
        <pt x="1284" y="100" on="1"/>
        <pt x="1330" y="100" on="0"/>
        <pt x="1395" y="114" on="0"/>
        <pt x="1444" y="154" on="0"/>
        <pt x="1485" y="226" on="0"/>
        <pt x="1506" y="285" on="1"/>
      </contour>
    </TTGlyph>
    <TTGlyph name="AEacute" xMin="0" yMin="0" xMax="1560" yMax="1742">
      <component glyphName="AE" x="0" y="0" flags="0x0"/>
      <component glyphName="acutecomb.LP" x="1482" y="320" flags="0x0"/>
    </TTGlyph>
    <TTGlyph name="Aacute" xMin="0" yMin="0" xMax="1221" yMax="1742">
      <component glyphName="A" x="0" y="0" flags="0x0"/>
      <component glyphName="acutecomb.LP" x="1153" y="320" flags="0x0"/>
    </TTGlyph>
    <TTGlyph name="Abreve" xMin="0" yMin="0" xMax="1221" yMax="1735">
      <component glyphName="A" x="0" y="0" flags="0x0"/>
      <component glyphName="uni0306" x="1125" y="320" flags="0x0"/>
    </TTGlyph>
    <TTGlyph name="Acircumflex" xMin="0" yMin="0" xMax="1221" yMax="1729">
      <component glyphName="A" x="0" y="0" flags="0x0"/>
      <component glyphName="uni0302.LP" x="1124" y="320" flags="0x0"/>
    </TTGlyph>
    <TTGlyph name="Adieresis" xMin="0" yMin="0" xMax="1221" yMax="1647">
      <component glyphName="A" x="0" y="0" flags="0x0"/>
      <component glyphName="uni0308.LP" x="1125" y="320" flags="0x0"/>
    </TTGlyph>
    <TTGlyph name="Agrave" xMin="0" yMin="0" xMax="1221" yMax="1742">
      <component glyphName="A" x="0" y="0" flags="0x0"/>
      <component glyphName="gravecomb.LP" x="1043" y="320" flags="0x0"/>
    </TTGlyph>
    <TTGlyph name="Amacron" xMin="0" yMin="0" xMax="1221" yMax="1596">
      <component glyphName="A" x="0" y="0" flags="0x0"/>
      <component glyphName="uni0304.LP" x="1135" y="320" flags="0x0"/>
    </TTGlyph>
    <TTGlyph name="Aring" xMin="0" yMin="0" xMax="1221" yMax="1768">
      <component glyphName="A" x="0" y="0" flags="0x0"/>
      <component glyphName="uni030A" x="1125" y="320" flags="0x0"/>
    </TTGlyph>
    <TTGlyph name="Aringacute" xMin="0" yMin="0" xMax="1221" yMax="2182">
      <component glyphName="A" x="0" y="0" flags="0x0"/>
      <component glyphName="uni030A" x="1125" y="320" flags="0x0"/>
      <component glyphName="acutecomb.LP" x="1153" y="760" flags="0x0"/>
    </TTGlyph>
    <TTGlyph name="Atilde" xMin="0" yMin="0" xMax="1221" yMax="1662">
      <component glyphName="A" x="0" y="0" flags="0x0"/>
      <component glyphName="tildecomb.LP" x="1133" y="320" flags="0x0"/>
    </TTGlyph>
    <TTGlyph name="B" xMin="37" yMin="-14" xMax="1054" yMax="1290">
      <contour>
        <pt x="431" y="1199" on="1"/>
        <pt x="419" y="1199" on="0"/>
        <pt x="394" y="1198" on="0"/>
        <pt x="380" y="1198" on="1"/>
        <pt x="380" y="730" on="1"/>
        <pt x="409" y="730" on="1"/>
        <pt x="518" y="730" on="0"/>
        <pt x="654" y="773" on="0"/>
        <pt x="729" y="842" on="0"/>
        <pt x="755" y="928" on="0"/>
        <pt x="755" y="971" on="1"/>
        <pt x="755" y="1021" on="0"/>
        <pt x="723" y="1105" on="0"/>
        <pt x="648" y="1165" on="0"/>
        <pt x="524" y="1199" on="0"/>
      </contour>
      <contour>
        <pt x="535" y="646" on="1"/>
        <pt x="487" y="646" on="0"/>
        <pt x="414" y="637" on="0"/>
        <pt x="380" y="632" on="1"/>
        <pt x="380" y="112" on="1"/>
        <pt x="380" y="105" on="0"/>
        <pt x="388" y="98" on="1"/>
        <pt x="404" y="92" on="0"/>
        <pt x="444" y="84" on="0"/>
        <pt x="487" y="80" on="0"/>
        <pt x="530" y="78" on="0"/>
        <pt x="550" y="78" on="1"/>
        <pt x="622" y="78" on="0"/>
        <pt x="736" y="114" on="0"/>
        <pt x="815" y="179" on="0"/>
        <pt x="857" y="271" on="0"/>
        <pt x="857" y="327" on="1"/>
        <pt x="857" y="382" on="0"/>
        <pt x="822" y="496" on="0"/>
        <pt x="744" y="588" on="0"/>
        <pt x="622" y="646" on="0"/>
      </contour>
      <contour>
        <pt x="1054" y="356" on="1"/>
        <pt x="1054" y="271" on="0"/>
        <pt x="986" y="134" on="0"/>
        <pt x="861" y="38" on="0"/>
        <pt x="685" y="-14" on="0"/>
        <pt x="577" y="-14" on="1"/>
        <pt x="555" y="-14" on="0"/>
        <pt x="492" y="-13" on="0"/>
        <pt x="420" y="-11" on="0"/>
        <pt x="343" y="-9" on="0"/>
        <pt x="306" y="-7" on="1"/>
        <pt x="219" y="-4" on="0"/>
        <pt x="123" y="0" on="1"/>
        <pt x="48" y="0" on="1"/>
        <pt x="48" y="53" on="1"/>
        <pt x="116" y="67" on="0"/>
        <pt x="190" y="100" on="0"/>
        <pt x="190" y="114" on="1"/>
        <pt x="190" y="1182" on="1"/>
        <pt x="152" y="1177" on="0"/>
        <pt x="80" y="1167" on="0"/>
        <pt x="48" y="1161" on="1"/>
        <pt x="37" y="1230" on="1"/>
        <pt x="78" y="1241" on="0"/>
        <pt x="187" y="1262" on="0"/>
        <pt x="308" y="1279" on="0"/>
        <pt x="433" y="1290" on="0"/>
        <pt x="489" y="1290" on="1"/>
        <pt x="594" y="1290" on="0"/>
        <pt x="763" y="1253" on="0"/>
        <pt x="880" y="1183" on="0"/>
        <pt x="943" y="1083" on="0"/>
        <pt x="943" y="1020" on="1"/>
        <pt x="943" y="912" on="0"/>
        <pt x="836" y="758" on="0"/>
        <pt x="740" y="723" on="1"/>
        <pt x="807" y="711" on="0"/>
        <pt x="922" y="645" on="0"/>
        <pt x="1006" y="548" on="0"/>
        <pt x="1054" y="425" on="0"/>
      </contour>
    </TTGlyph>
    <TTGlyph name="C" xMin="65" yMin="-30" xMax="1036" yMax="1290">
      <contour>
        <pt x="1036" y="211" on="1"/>
        <pt x="972" y="144" on="0"/>
        <pt x="853" y="52" on="0"/>
        <pt x="739" y="-5" on="0"/>
        <pt x="630" y="-30" on="0"/>
        <pt x="576" y="-30" on="1"/>
        <pt x="481" y="-30" on="0"/>
        <pt x="297" y="54" on="0"/>
        <pt x="153" y="212" on="0"/>
        <pt x="65" y="441" on="0"/>
        <pt x="65" y="586" on="1"/>
        <pt x="65" y="746" on="0"/>
        <pt x="162" y="1006" on="0"/>
        <pt x="330" y="1190" on="0"/>
        <pt x="554" y="1290" on="0"/>
        <pt x="681" y="1290" on="1"/>
        <pt x="735" y="1290" on="0"/>
        <pt x="834" y="1274" on="0"/>
        <pt x="920" y="1247" on="0"/>
        <pt x="991" y="1211" on="0"/>
        <pt x="1017" y="1190" on="1"/>
        <pt x="1023" y="1185" on="0"/>
        <pt x="1003" y="1145" on="0"/>
        <pt x="970" y="1096" on="0"/>
        <pt x="934" y="1049" on="0"/>
        <pt x="922" y="1037" on="1"/>
        <pt x="877" y="1046" on="1"/>
        <pt x="826" y="1106" on="0"/>
        <pt x="689" y="1173" on="0"/>
        <pt x="602" y="1173" on="1"/>
        <pt x="568" y="1173" on="0"/>
        <pt x="489" y="1149" on="0"/>
        <pt x="412" y="1096" on="0"/>
        <pt x="340" y="1011" on="0"/>
        <pt x="286" y="889" on="0"/>
        <pt x="253" y="727" on="0"/>
        <pt x="253" y="623" on="1"/>
        <pt x="253" y="492" on="0"/>
        <pt x="327" y="297" on="0"/>
        <pt x="443" y="168" on="0"/>
        <pt x="587" y="105" on="0"/>
        <pt x="656" y="105" on="1"/>
        <pt x="683" y="105" on="0"/>
        <pt x="755" y="121" on="0"/>
        <pt x="841" y="158" on="0"/>
        <pt x="940" y="219" on="0"/>
        <pt x="994" y="264" on="1"/>
        <pt x="999" y="261" on="0"/>
        <pt x="1011" y="246" on="0"/>
        <pt x="1023" y="229" on="0"/>
        <pt x="1033" y="214" on="0"/>
      </contour>
    </TTGlyph>
    <TTGlyph name="Cacute" xMin="65" yMin="-30" xMax="1036" yMax="1742">
      <component glyphName="C" x="0" y="0" flags="0x0"/>
      <component glyphName="acutecomb.LP" x="1165" y="320" flags="0x0"/>
    </TTGlyph>
    <TTGlyph name="Ccaron" xMin="65" yMin="-30" xMax="1036" yMax="1755">
      <component glyphName="C" x="0" y="0" flags="0x0"/>
      <component glyphName="uni030C.LP" x="1136" y="320" flags="0x0"/>
    </TTGlyph>
    <TTGlyph name="Ccedilla" xMin="65" yMin="-444" xMax="1036" yMax="1290">
      <contour>
        <pt x="767" y="-229" on="1"/>
        <pt x="767" y="-266" on="0"/>
        <pt x="726" y="-334" on="0"/>
        <pt x="644" y="-391" on="0"/>
        <pt x="522" y="-433" on="0"/>
        <pt x="441" y="-444" on="1"/>
        <pt x="414" y="-388" on="1"/>
        <pt x="463" y="-380" on="0"/>
        <pt x="533" y="-354" on="0"/>
        <pt x="576" y="-324" on="0"/>
        <pt x="596" y="-290" on="0"/>
        <pt x="596" y="-274" on="1"/>
        <pt x="596" y="-240" on="0"/>
        <pt x="546" y="-212" on="0"/>
        <pt x="490" y="-207" on="1"/>
        <pt x="492" y="-204" on="0"/>
        <pt x="501" y="-180" on="1"/>
        <pt x="508" y="-160" on="0"/>
        <pt x="523" y="-115" on="1"/>
        <pt x="534" y="-82" on="0"/>
        <pt x="551" y="-29" on="1"/>
        <pt x="469" y="-24" on="0"/>
        <pt x="389" y="12" on="1"/>
        <pt x="297" y="54" on="0"/>
        <pt x="153" y="212" on="0"/>
        <pt x="65" y="441" on="0"/>
        <pt x="65" y="586" on="1"/>
        <pt x="65" y="746" on="0"/>
        <pt x="162" y="1006" on="0"/>
        <pt x="330" y="1190" on="0"/>
        <pt x="554" y="1290" on="0"/>
        <pt x="681" y="1290" on="1"/>
        <pt x="735" y="1290" on="0"/>
        <pt x="834" y="1274" on="0"/>
        <pt x="920" y="1247" on="0"/>
        <pt x="991" y="1211" on="0"/>
        <pt x="1017" y="1190" on="1"/>
        <pt x="1023" y="1185" on="0"/>
        <pt x="1003" y="1145" on="0"/>
        <pt x="970" y="1096" on="0"/>
        <pt x="934" y="1049" on="0"/>
        <pt x="922" y="1037" on="1"/>
        <pt x="877" y="1046" on="1"/>
        <pt x="826" y="1106" on="0"/>
        <pt x="689" y="1173" on="0"/>
        <pt x="602" y="1173" on="1"/>
        <pt x="568" y="1173" on="0"/>
        <pt x="489" y="1149" on="0"/>
        <pt x="412" y="1096" on="0"/>
        <pt x="340" y="1011" on="0"/>
        <pt x="286" y="889" on="0"/>
        <pt x="253" y="727" on="0"/>
        <pt x="253" y="623" on="1"/>
        <pt x="253" y="492" on="0"/>
        <pt x="327" y="297" on="0"/>
        <pt x="443" y="168" on="0"/>
        <pt x="587" y="105" on="0"/>
        <pt x="656" y="105" on="1"/>
        <pt x="683" y="105" on="0"/>
        <pt x="755" y="121" on="0"/>
        <pt x="841" y="158" on="0"/>
        <pt x="940" y="219" on="0"/>
        <pt x="994" y="264" on="1"/>
        <pt x="999" y="261" on="0"/>
        <pt x="1011" y="246" on="0"/>
        <pt x="1023" y="229" on="0"/>
        <pt x="1033" y="214" on="0"/>
        <pt x="1036" y="211" on="1"/>
        <pt x="972" y="144" on="0"/>
        <pt x="853" y="52" on="0"/>
        <pt x="739" y="-5" on="0"/>
        <pt x="684" y="-17" on="1"/>
        <pt x="664" y="-22" on="0"/>
        <pt x="645" y="-25" on="1"/>
        <pt x="619" y="-99" on="1"/>
        <pt x="649" y="-105" on="0"/>
        <pt x="703" y="-126" on="0"/>
        <pt x="744" y="-158" on="0"/>
        <pt x="767" y="-201" on="0"/>
      </contour>
    </TTGlyph>
    <TTGlyph name="Ccircumflex" xMin="65" yMin="-30" xMax="1036" yMax="1729">
      <component glyphName="C" x="0" y="0" flags="0x0"/>
      <component glyphName="uni0302.LP" x="1136" y="320" flags="0x0"/>
    </TTGlyph>
    <TTGlyph name="Cdotaccent" xMin="65" yMin="-30" xMax="1036" yMax="1647">
      <component glyphName="C" x="0" y="0" flags="0x0"/>
      <component glyphName="uni0307.LP" x="1137" y="320" flags="0x0"/>
    </TTGlyph>
    <TTGlyph name="D" xMin="37" yMin="0" xMax="1156" yMax="1290">
      <contour>
        <pt x="471" y="1199" on="1"/>
        <pt x="425" y="1199" on="0"/>
        <pt x="380" y="1196" on="1"/>
        <pt x="380" y="164" on="1"/>
        <pt x="380" y="142" on="0"/>
        <pt x="388" y="127" on="1"/>
        <pt x="401" y="109" on="0"/>
        <pt x="475" y="92" on="0"/>
        <pt x="552" y="92" on="1"/>
        <pt x="617" y="92" on="0"/>
        <pt x="759" y="157" on="0"/>
        <pt x="877" y="291" on="0"/>
        <pt x="953" y="496" on="0"/>
        <pt x="953" y="637" on="1"/>
        <pt x="953" y="770" on="0"/>
        <pt x="890" y="979" on="0"/>
        <pt x="767" y="1123" on="0"/>
        <pt x="588" y="1199" on="0"/>
      </contour>
      <contour>
        <pt x="1156" y="676" on="1"/>
        <pt x="1156" y="551" on="0"/>
        <pt x="1105" y="354" on="0"/>
        <pt x="1018" y="203" on="0"/>
        <pt x="903" y="98" on="0"/>
        <pt x="775" y="31" on="0"/>
        <pt x="641" y="0" on="0"/>
        <pt x="579" y="0" on="1"/>
        <pt x="48" y="0" on="1"/>
        <pt x="48" y="53" on="1"/>
        <pt x="116" y="67" on="0"/>
        <pt x="190" y="100" on="0"/>
        <pt x="190" y="114" on="1"/>
        <pt x="190" y="1178" on="1"/>
        <pt x="151" y="1173" on="0"/>
        <pt x="79" y="1163" on="0"/>
        <pt x="48" y="1158" on="1"/>
        <pt x="37" y="1230" on="1"/>
        <pt x="83" y="1242" on="0"/>
        <pt x="205" y="1264" on="0"/>
        <pt x="339" y="1281" on="0"/>
        <pt x="477" y="1290" on="0"/>
        <pt x="538" y="1290" on="1"/>
        <pt x="682" y="1290" on="0"/>
        <pt x="911" y="1207" on="0"/>
        <pt x="1071" y="1049" on="0"/>
        <pt x="1156" y="821" on="0"/>
      </contour>
    </TTGlyph>
    <TTGlyph name="Dcaron" xMin="37" yMin="0" xMax="1156" yMax="1755">
      <component glyphName="D" x="0" y="0" flags="0x0"/>
      <component glyphName="uni030C.LP" x="1077" y="320" flags="0x0"/>
    </TTGlyph>
    <TTGlyph name="Dcroat" xMin="27" yMin="0" xMax="1156" yMax="1290">
      <contour>
        <pt x="1156" y="676" on="1"/>
        <pt x="1156" y="551" on="0"/>
        <pt x="1105" y="354" on="0"/>
        <pt x="1018" y="203" on="0"/>
        <pt x="903" y="98" on="0"/>
        <pt x="775" y="31" on="0"/>
        <pt x="641" y="0" on="0"/>
        <pt x="579" y="0" on="1"/>
        <pt x="48" y="0" on="1"/>
        <pt x="48" y="53" on="1"/>
        <pt x="116" y="67" on="0"/>
        <pt x="190" y="100" on="0"/>
        <pt x="190" y="114" on="1"/>
        <pt x="190" y="615" on="1"/>
        <pt x="49" y="615" on="1"/>
        <pt x="27" y="640" on="1"/>
        <pt x="32" y="655" on="0"/>
        <pt x="47" y="699" on="0"/>
        <pt x="53" y="715" on="1"/>
        <pt x="190" y="715" on="1"/>
        <pt x="190" y="1178" on="1"/>
        <pt x="151" y="1173" on="0"/>
        <pt x="79" y="1163" on="0"/>
        <pt x="48" y="1158" on="1"/>
        <pt x="37" y="1230" on="1"/>
        <pt x="83" y="1242" on="0"/>
        <pt x="205" y="1264" on="0"/>
        <pt x="339" y="1281" on="0"/>
        <pt x="477" y="1290" on="0"/>
        <pt x="538" y="1290" on="1"/>
        <pt x="682" y="1290" on="0"/>
        <pt x="911" y="1207" on="0"/>
        <pt x="1071" y="1049" on="0"/>
        <pt x="1156" y="821" on="0"/>
      </contour>
      <contour>
        <pt x="471" y="1199" on="1"/>
        <pt x="425" y="1199" on="0"/>
        <pt x="380" y="1196" on="1"/>
        <pt x="380" y="715" on="1"/>
        <pt x="633" y="715" on="1"/>
        <pt x="658" y="692" on="1"/>
        <pt x="629" y="615" on="1"/>
        <pt x="380" y="615" on="1"/>
        <pt x="380" y="164" on="1"/>
        <pt x="380" y="142" on="0"/>
        <pt x="388" y="127" on="1"/>
        <pt x="401" y="109" on="0"/>
        <pt x="475" y="92" on="0"/>
        <pt x="552" y="92" on="1"/>
        <pt x="617" y="92" on="0"/>
        <pt x="759" y="157" on="0"/>
        <pt x="877" y="291" on="0"/>
        <pt x="953" y="496" on="0"/>
        <pt x="953" y="637" on="1"/>
        <pt x="953" y="770" on="0"/>
        <pt x="890" y="979" on="0"/>
        <pt x="767" y="1123" on="0"/>
        <pt x="588" y="1199" on="0"/>
      </contour>
    </TTGlyph>
    <TTGlyph name="Delta" xMin="54" yMin="0" xMax="1124" yMax="1317">
      <contour>
        <pt x="1101" y="0" on="1"/>
        <pt x="72" y="0" on="1"/>
        <pt x="54" y="54" on="1"/>
        <pt x="143" y="290" on="0"/>
        <pt x="225" y="510" on="1"/>
        <pt x="260" y="604" on="0"/>
        <pt x="333" y="802" on="0"/>
        <pt x="403" y="992" on="0"/>
        <pt x="464" y="1162" on="0"/>
        <pt x="487" y="1227" on="1"/>
        <pt x="519" y="1255" on="0"/>
        <pt x="602" y="1300" on="0"/>
        <pt x="638" y="1317" on="1"/>
        <pt x="665" y="1243" on="0"/>
        <pt x="735" y="1056" on="0"/>
        <pt x="814" y="851" on="0"/>
        <pt x="896" y="638" on="0"/>
        <pt x="935" y="538" on="1"/>
        <pt x="1026" y="303" on="0"/>
        <pt x="1124" y="54" on="1"/>
      </contour>
      <contour>
        <pt x="879" y="176" on="1"/>
        <pt x="816" y="337" on="0"/>
        <pt x="756" y="494" on="1"/>
        <pt x="730" y="561" on="0"/>
        <pt x="675" y="705" on="0"/>
        <pt x="621" y="847" on="0"/>
        <pt x="570" y="980" on="0"/>
        <pt x="549" y="1037" on="1"/>
        <pt x="526" y="974" on="0"/>
        <pt x="475" y="832" on="0"/>
        <pt x="422" y="688" on="0"/>
        <pt x="369" y="545" on="0"/>
        <pt x="345" y="480" on="1"/>
        <pt x="233" y="176" on="1"/>
        <pt x="226" y="157" on="0"/>
        <pt x="223" y="136" on="0"/>
        <pt x="243" y="127" on="0"/>
        <pt x="294" y="125" on="0"/>
        <pt x="342" y="125" on="1"/>
        <pt x="768" y="125" on="1"/>
        <pt x="817" y="125" on="0"/>
        <pt x="869" y="127" on="0"/>
        <pt x="890" y="136" on="0"/>
        <pt x="886" y="157" on="0"/>
      </contour>
    </TTGlyph>
    <TTGlyph name="E" xMin="48" yMin="0" xMax="979" yMax="1260">
      <contour>
        <pt x="979" y="264" on="1"/>
        <pt x="975" y="221" on="0"/>
        <pt x="965" y="139" on="0"/>
        <pt x="953" y="68" on="0"/>
        <pt x="942" y="15" on="0"/>
        <pt x="938" y="0" on="1"/>
        <pt x="48" y="0" on="1"/>
        <pt x="48" y="53" on="1"/>
        <pt x="116" y="67" on="0"/>
        <pt x="190" y="100" on="0"/>
        <pt x="190" y="114" on="1"/>
        <pt x="190" y="1145" on="1"/>
        <pt x="190" y="1157" on="0"/>
        <pt x="120" y="1193" on="0"/>
        <pt x="48" y="1207" on="1"/>
        <pt x="48" y="1260" on="1"/>
        <pt x="879" y="1260" on="1"/>
        <pt x="914" y="1233" on="1"/>
        <pt x="912" y="1207" on="0"/>
        <pt x="904" y="1140" on="0"/>
        <pt x="892" y="1071" on="0"/>
        <pt x="879" y="1009" on="0"/>
        <pt x="873" y="990" on="1"/>
        <pt x="818" y="990" on="1"/>
        <pt x="813" y="1082" on="0"/>
        <pt x="773" y="1160" on="0"/>
        <pt x="736" y="1160" on="1"/>
        <pt x="380" y="1160" on="1"/>
        <pt x="380" y="735" on="1"/>
        <pt x="783" y="735" on="1"/>
        <pt x="811" y="705" on="1"/>
        <pt x="803" y="691" on="0"/>
        <pt x="780" y="657" on="0"/>
        <pt x="755" y="625" on="0"/>
        <pt x="730" y="597" on="0"/>
        <pt x="719" y="589" on="1"/>
        <pt x="704" y="604" on="0"/>
        <pt x="669" y="624" on="0"/>
        <pt x="624" y="638" on="0"/>
        <pt x="563" y="644" on="0"/>
        <pt x="521" y="644" on="1"/>
        <pt x="380" y="644" on="1"/>
        <pt x="380" y="164" on="1"/>
        <pt x="380" y="149" on="0"/>
        <pt x="394" y="126" on="0"/>
        <pt x="438" y="109" on="0"/>
        <pt x="518" y="100" on="0"/>
        <pt x="584" y="100" on="1"/>
        <pt x="703" y="100" on="1"/>
        <pt x="749" y="100" on="0"/>
        <pt x="814" y="114" on="0"/>
        <pt x="864" y="154" on="0"/>
        <pt x="905" y="226" on="0"/>
        <pt x="926" y="285" on="1"/>
      </contour>
    </TTGlyph>
    <TTGlyph name="Eacute" xMin="48" yMin="0" xMax="979" yMax="1742">
      <component glyphName="E" x="0" y="0" flags="0x0"/>
      <component glyphName="acutecomb.LP" x="1056" y="320" flags="0x0"/>
    </TTGlyph>
    <TTGlyph name="Ebreve" xMin="48" yMin="0" xMax="979" yMax="1735">
      <component glyphName="E" x="0" y="0" flags="0x0"/>
      <component glyphName="uni0306" x="1028" y="320" flags="0x0"/>
    </TTGlyph>
    <TTGlyph name="Ecaron" xMin="48" yMin="0" xMax="979" yMax="1755">
      <component glyphName="E" x="0" y="0" flags="0x0"/>
      <component glyphName="uni030C.LP" x="1027" y="320" flags="0x0"/>
    </TTGlyph>
    <TTGlyph name="Ecircumflex" xMin="48" yMin="0" xMax="979" yMax="1729">
      <component glyphName="E" x="0" y="0" flags="0x0"/>
      <component glyphName="uni0302.LP" x="1027" y="320" flags="0x0"/>
    </TTGlyph>
    <TTGlyph name="Edieresis" xMin="48" yMin="0" xMax="979" yMax="1647">
      <component glyphName="E" x="0" y="0" flags="0x0"/>
      <component glyphName="uni0308.LP" x="1028" y="320" flags="0x0"/>
    </TTGlyph>
    <TTGlyph name="Edotaccent" xMin="48" yMin="0" xMax="979" yMax="1647">
      <component glyphName="E" x="0" y="0" flags="0x0"/>
      <component glyphName="uni0307.LP" x="1028" y="320" flags="0x0"/>
    </TTGlyph>
    <TTGlyph name="Egrave" xMin="48" yMin="0" xMax="979" yMax="1742">
      <component glyphName="E" x="0" y="0" flags="0x0"/>
      <component glyphName="gravecomb.LP" x="946" y="320" flags="0x0"/>
    </TTGlyph>
    <TTGlyph name="Emacron" xMin="48" yMin="0" xMax="979" yMax="1596">
      <component glyphName="E" x="0" y="0" flags="0x0"/>
      <component glyphName="uni0304.LP" x="1038" y="320" flags="0x0"/>
    </TTGlyph>
    <TTGlyph name="Eng" xMin="47" yMin="-393" xMax="1150" yMax="1290">
      <contour>
        <pt x="1150" y="277" on="1"/>
        <pt x="1150" y="173" on="0"/>
        <pt x="1109" y="3" on="0"/>
        <pt x="1039" y="-136" on="0"/>
        <pt x="943" y="-247" on="0"/>
        <pt x="889" y="-291" on="1"/>
        <pt x="862" y="-312" on="0"/>
        <pt x="791" y="-350" on="0"/>
        <pt x="712" y="-377" on="0"/>
        <pt x="627" y="-393" on="0"/>
        <pt x="586" y="-393" on="1"/>
        <pt x="542" y="-393" on="0"/>
        <pt x="449" y="-370" on="0"/>
        <pt x="373" y="-336" on="0"/>
        <pt x="323" y="-298" on="0"/>
        <pt x="323" y="-282" on="1"/>
        <pt x="323" y="-273" on="0"/>
        <pt x="361" y="-234" on="0"/>
        <pt x="413" y="-192" on="0"/>
        <pt x="465" y="-155" on="0"/>
        <pt x="480" y="-149" on="1"/>
        <pt x="534" y="-203" on="0"/>
        <pt x="662" y="-262" on="0"/>
        <pt x="719" y="-262" on="1"/>
        <pt x="765" y="-262" on="0"/>
        <pt x="852" y="-203" on="0"/>
        <pt x="919" y="-83" on="0"/>
        <pt x="960" y="100" on="0"/>
        <pt x="960" y="224" on="1"/>
        <pt x="960" y="872" on="1"/>
        <pt x="960" y="950" on="0"/>
        <pt x="939" y="1051" on="0"/>
        <pt x="898" y="1110" on="0"/>
        <pt x="839" y="1133" on="0"/>
        <pt x="802" y="1133" on="1"/>
        <pt x="766" y="1133" on="0"/>
        <pt x="680" y="1103" on="0"/>
        <pt x="577" y="1023" on="0"/>
        <pt x="454" y="886" on="0"/>
        <pt x="380" y="778" on="1"/>
        <pt x="380" y="114" on="1"/>
        <pt x="380" y="102" on="0"/>
        <pt x="452" y="67" on="0"/>
        <pt x="525" y="53" on="1"/>
        <pt x="525" y="0" on="1"/>
        <pt x="47" y="0" on="1"/>
        <pt x="47" y="53" on="1"/>
        <pt x="115" y="67" on="0"/>
        <pt x="190" y="100" on="0"/>
        <pt x="190" y="114" on="1"/>
        <pt x="190" y="1020" on="1"/>
        <pt x="190" y="1059" on="0"/>
        <pt x="185" y="1108" on="0"/>
        <pt x="159" y="1137" on="0"/>
        <pt x="104" y="1152" on="0"/>
        <pt x="53" y="1157" on="1"/>
        <pt x="53" y="1210" on="1"/>
        <pt x="87" y="1216" on="0"/>
        <pt x="164" y="1232" on="0"/>
        <pt x="241" y="1252" on="0"/>
        <pt x="314" y="1276" on="0"/>
        <pt x="343" y="1290" on="1"/>
        <pt x="380" y="1253" on="1"/>
        <pt x="380" y="961" on="1"/>
        <pt x="459" y="1057" on="0"/>
        <pt x="597" y="1184" on="0"/>
        <pt x="722" y="1259" on="0"/>
        <pt x="835" y="1290" on="0"/>
        <pt x="889" y="1290" on="1"/>
        <pt x="932" y="1290" on="0"/>
        <pt x="1024" y="1264" on="0"/>
        <pt x="1101" y="1195" on="0"/>
        <pt x="1150" y="1075" on="0"/>
        <pt x="1150" y="981" on="1"/>
      </contour>
    </TTGlyph>
    <TTGlyph name="Eng.BaselineHook" xMin="47" yMin="-30" xMax="1150" yMax="1290">
      <contour>
        <pt x="1150" y="587" on="1"/>
        <pt x="1150" y="489" on="0"/>
        <pt x="1139" y="345" on="0"/>
        <pt x="1114" y="235" on="0"/>
        <pt x="1072" y="151" on="0"/>
        <pt x="1041" y="114" on="1"/>
        <pt x="1019" y="87" on="0"/>
        <pt x="959" y="36" on="0"/>
        <pt x="891" y="-5" on="0"/>
        <pt x="818" y="-30" on="0"/>
        <pt x="784" y="-30" on="1"/>
        <pt x="742" y="-30" on="0"/>
        <pt x="668" y="0" on="0"/>
        <pt x="613" y="42" on="0"/>
        <pt x="580" y="85" on="0"/>
        <pt x="580" y="98" on="1"/>
        <pt x="580" y="110" on="0"/>
        <pt x="618" y="149" on="0"/>
        <pt x="667" y="188" on="0"/>
        <pt x="717" y="217" on="0"/>
        <pt x="729" y="217" on="1"/>
        <pt x="732" y="203" on="0"/>
        <pt x="752" y="165" on="0"/>
        <pt x="785" y="131" on="0"/>
        <pt x="829" y="108" on="0"/>
        <pt x="857" y="108" on="1"/>
        <pt x="886" y="108" on="0"/>
        <pt x="925" y="144" on="0"/>
        <pt x="949" y="239" on="0"/>
        <pt x="960" y="404" on="0"/>
        <pt x="960" y="534" on="1"/>
        <pt x="960" y="872" on="1"/>
        <pt x="960" y="950" on="0"/>
        <pt x="939" y="1051" on="0"/>
        <pt x="898" y="1110" on="0"/>
        <pt x="839" y="1133" on="0"/>
        <pt x="802" y="1133" on="1"/>
        <pt x="766" y="1133" on="0"/>
        <pt x="680" y="1103" on="0"/>
        <pt x="577" y="1023" on="0"/>
        <pt x="454" y="886" on="0"/>
        <pt x="380" y="778" on="1"/>
        <pt x="380" y="114" on="1"/>
        <pt x="380" y="102" on="0"/>
        <pt x="429" y="67" on="0"/>
        <pt x="485" y="53" on="1"/>
        <pt x="485" y="0" on="1"/>
        <pt x="47" y="0" on="1"/>
        <pt x="47" y="53" on="1"/>
        <pt x="115" y="67" on="0"/>
        <pt x="190" y="100" on="0"/>
        <pt x="190" y="114" on="1"/>
        <pt x="190" y="1020" on="1"/>
        <pt x="190" y="1059" on="0"/>
        <pt x="185" y="1108" on="0"/>
        <pt x="159" y="1137" on="0"/>
        <pt x="104" y="1152" on="0"/>
        <pt x="53" y="1157" on="1"/>
        <pt x="53" y="1210" on="1"/>
        <pt x="87" y="1216" on="0"/>
        <pt x="164" y="1232" on="0"/>
        <pt x="241" y="1252" on="0"/>
        <pt x="314" y="1276" on="0"/>
        <pt x="343" y="1290" on="1"/>
        <pt x="380" y="1253" on="1"/>
        <pt x="380" y="961" on="1"/>
        <pt x="459" y="1057" on="0"/>
        <pt x="597" y="1184" on="0"/>
        <pt x="722" y="1259" on="0"/>
        <pt x="835" y="1290" on="0"/>
        <pt x="889" y="1290" on="1"/>
        <pt x="932" y="1290" on="0"/>
        <pt x="1024" y="1264" on="0"/>
        <pt x="1101" y="1195" on="0"/>
        <pt x="1150" y="1075" on="0"/>
        <pt x="1150" y="981" on="1"/>
      </contour>
    </TTGlyph>
    <TTGlyph name="Eng.Kom" xMin="49" yMin="-30" xMax="1098" yMax="1290">
      <contour>
        <pt x="1098" y="567" on="1"/>
        <pt x="1098" y="409" on="0"/>
        <pt x="1001" y="175" on="0"/>
        <pt x="921" y="101" on="1"/>
        <pt x="893" y="75" on="0"/>
        <pt x="825" y="27" on="0"/>
        <pt x="743" y="-9" on="0"/>
        <pt x="643" y="-30" on="0"/>
        <pt x="583" y="-30" on="1"/>
        <pt x="494" y="-30" on="0"/>
        <pt x="348" y="17" on="0"/>
        <pt x="245" y="82" on="0"/>
        <pt x="188" y="151" on="0"/>
        <pt x="188" y="174" on="1"/>
        <pt x="188" y="185" on="0"/>
        <pt x="227" y="224" on="0"/>
        <pt x="281" y="265" on="0"/>
        <pt x="340" y="301" on="0"/>
        <pt x="360" y="310" on="1"/>
        <pt x="382" y="266" on="0"/>
        <pt x="440" y="190" on="0"/>
        <pt x="512" y="133" on="0"/>
        <pt x="597" y="100" on="0"/>
        <pt x="644" y="100" on="1"/>
        <pt x="703" y="100" on="0"/>
        <pt x="800" y="141" on="0"/>
        <pt x="870" y="235" on="0"/>
        <pt x="908" y="387" on="0"/>
        <pt x="908" y="499" on="1"/>
        <pt x="908" y="872" on="1"/>
        <pt x="908" y="950" on="0"/>
        <pt x="886" y="1051" on="0"/>
        <pt x="844" y="1110" on="0"/>
        <pt x="784" y="1133" on="0"/>
        <pt x="747" y="1133" on="1"/>
        <pt x="674" y="1133" on="0"/>
        <pt x="498" y="990" on="0"/>
        <pt x="383" y="846" on="1"/>
        <pt x="383" y="659" on="1"/>
        <pt x="383" y="647" on="0"/>
        <pt x="455" y="612" on="0"/>
        <pt x="528" y="598" on="1"/>
        <pt x="528" y="545" on="1"/>
        <pt x="49" y="545" on="1"/>
        <pt x="49" y="598" on="1"/>
        <pt x="117" y="612" on="0"/>
        <pt x="193" y="645" on="0"/>
        <pt x="193" y="659" on="1"/>
        <pt x="193" y="1020" on="1"/>
        <pt x="193" y="1059" on="0"/>
        <pt x="188" y="1108" on="0"/>
        <pt x="161" y="1137" on="0"/>
        <pt x="106" y="1152" on="0"/>
        <pt x="55" y="1157" on="1"/>
        <pt x="55" y="1210" on="1"/>
        <pt x="89" y="1216" on="0"/>
        <pt x="167" y="1232" on="0"/>
        <pt x="244" y="1252" on="0"/>
        <pt x="316" y="1276" on="0"/>
        <pt x="345" y="1290" on="1"/>
        <pt x="383" y="1253" on="1"/>
        <pt x="383" y="1013" on="1"/>
        <pt x="444" y="1074" on="0"/>
        <pt x="561" y="1176" on="0"/>
        <pt x="672" y="1250" on="0"/>
        <pt x="780" y="1290" on="0"/>
        <pt x="834" y="1290" on="1"/>
        <pt x="877" y="1290" on="0"/>
        <pt x="970" y="1264" on="0"/>
        <pt x="1048" y="1195" on="0"/>
        <pt x="1098" y="1075" on="0"/>
        <pt x="1098" y="981" on="1"/>
      </contour>
    </TTGlyph>
    <TTGlyph name="Eng.UCStyle" xMin="48" yMin="-393" xMax="1293" yMax="1260">
      <contour>
        <pt x="48" y="0" on="1"/>
        <pt x="48" y="53" on="1"/>
        <pt x="122" y="62" on="0"/>
        <pt x="190" y="100" on="0"/>
        <pt x="190" y="114" on="1"/>
        <pt x="190" y="1137" on="1"/>
        <pt x="157" y="1168" on="0"/>
        <pt x="86" y="1201" on="0"/>
        <pt x="48" y="1207" on="1"/>
        <pt x="48" y="1260" on="1"/>
        <pt x="282" y="1260" on="1"/>
        <pt x="297" y="1260" on="0"/>
        <pt x="316" y="1255" on="0"/>
        <pt x="336" y="1239" on="0"/>
        <pt x="359" y="1208" on="0"/>
        <pt x="378" y="1182" on="1"/>
        <pt x="1020" y="295" on="1"/>
        <pt x="1020" y="1145" on="1"/>
        <pt x="1020" y="1151" on="0"/>
        <pt x="1006" y="1168" on="0"/>
        <pt x="973" y="1185" on="0"/>
        <pt x="918" y="1201" on="0"/>
        <pt x="878" y="1207" on="1"/>
        <pt x="878" y="1260" on="1"/>
        <pt x="1293" y="1260" on="1"/>
        <pt x="1293" y="1207" on="1"/>
        <pt x="1221" y="1197" on="0"/>
        <pt x="1150" y="1159" on="0"/>
        <pt x="1150" y="1145" on="1"/>
        <pt x="1150" y="71" on="1"/>
        <pt x="1150" y="7" on="0"/>
        <pt x="1139" y="-96" on="0"/>
        <pt x="1111" y="-181" on="0"/>
        <pt x="1064" y="-252" on="0"/>
        <pt x="1029" y="-283" on="1"/>
        <pt x="1003" y="-306" on="0"/>
        <pt x="938" y="-346" on="0"/>
        <pt x="869" y="-376" on="0"/>
        <pt x="802" y="-393" on="0"/>
        <pt x="775" y="-393" on="1"/>
        <pt x="740" y="-393" on="0"/>
        <pt x="670" y="-374" on="0"/>
        <pt x="615" y="-348" on="0"/>
        <pt x="581" y="-319" on="0"/>
        <pt x="581" y="-308" on="1"/>
        <pt x="581" y="-300" on="0"/>
        <pt x="612" y="-264" on="0"/>
        <pt x="656" y="-225" on="0"/>
        <pt x="701" y="-192" on="0"/>
        <pt x="715" y="-186" on="1"/>
        <pt x="741" y="-207" on="0"/>
        <pt x="785" y="-234" on="0"/>
        <pt x="825" y="-249" on="0"/>
        <pt x="863" y="-255" on="0"/>
        <pt x="883" y="-255" on="1"/>
        <pt x="910" y="-255" on="0"/>
        <pt x="958" y="-228" on="0"/>
        <pt x="994" y="-163" on="0"/>
        <pt x="1017" y="-53" on="0"/>
        <pt x="1020" y="30" on="1"/>
        <pt x="1000" y="41" on="0"/>
        <pt x="969" y="71" on="0"/>
        <pt x="954" y="91" on="1"/>
        <pt x="320" y="969" on="1"/>
        <pt x="320" y="114" on="1"/>
        <pt x="320" y="108" on="0"/>
        <pt x="336" y="91" on="0"/>
        <pt x="370" y="74" on="0"/>
        <pt x="424" y="58" on="0"/>
        <pt x="463" y="53" on="1"/>
        <pt x="463" y="0" on="1"/>
      </contour>
    </TTGlyph>
    <TTGlyph name="Eth" xMin="27" yMin="0" xMax="1156" yMax="1290">
      <contour>
        <pt x="1156" y="676" on="1"/>
        <pt x="1156" y="551" on="0"/>
        <pt x="1105" y="354" on="0"/>
        <pt x="1018" y="203" on="0"/>
        <pt x="903" y="98" on="0"/>
        <pt x="775" y="31" on="0"/>
        <pt x="641" y="0" on="0"/>
        <pt x="579" y="0" on="1"/>
        <pt x="48" y="0" on="1"/>
        <pt x="48" y="53" on="1"/>
        <pt x="116" y="67" on="0"/>
        <pt x="190" y="100" on="0"/>
        <pt x="190" y="114" on="1"/>
        <pt x="190" y="615" on="1"/>
        <pt x="49" y="615" on="1"/>
        <pt x="27" y="640" on="1"/>
        <pt x="32" y="655" on="0"/>
        <pt x="47" y="699" on="0"/>
        <pt x="53" y="715" on="1"/>
        <pt x="190" y="715" on="1"/>
        <pt x="190" y="1178" on="1"/>
        <pt x="151" y="1173" on="0"/>
        <pt x="79" y="1163" on="0"/>
        <pt x="48" y="1158" on="1"/>
        <pt x="37" y="1230" on="1"/>
        <pt x="83" y="1242" on="0"/>
        <pt x="205" y="1264" on="0"/>
        <pt x="339" y="1281" on="0"/>
        <pt x="477" y="1290" on="0"/>
        <pt x="538" y="1290" on="1"/>
        <pt x="682" y="1290" on="0"/>
        <pt x="911" y="1207" on="0"/>
        <pt x="1071" y="1049" on="0"/>
        <pt x="1156" y="821" on="0"/>
      </contour>
      <contour>
        <pt x="471" y="1199" on="1"/>
        <pt x="425" y="1199" on="0"/>
        <pt x="380" y="1196" on="1"/>
        <pt x="380" y="715" on="1"/>
        <pt x="633" y="715" on="1"/>
        <pt x="658" y="692" on="1"/>
        <pt x="629" y="615" on="1"/>
        <pt x="380" y="615" on="1"/>
        <pt x="380" y="164" on="1"/>
        <pt x="380" y="142" on="0"/>
        <pt x="388" y="127" on="1"/>
        <pt x="401" y="109" on="0"/>
        <pt x="475" y="92" on="0"/>
        <pt x="552" y="92" on="1"/>
        <pt x="617" y="92" on="0"/>
        <pt x="759" y="157" on="0"/>
        <pt x="877" y="291" on="0"/>
        <pt x="953" y="496" on="0"/>
        <pt x="953" y="637" on="1"/>
        <pt x="953" y="770" on="0"/>
        <pt x="890" y="979" on="0"/>
        <pt x="767" y="1123" on="0"/>
        <pt x="588" y="1199" on="0"/>
      </contour>
    </TTGlyph>
    <TTGlyph name="Euro" xMin="22" yMin="-30" xMax="945" yMax="1235">
      <contour>
        <pt x="645" y="457" on="1"/>
        <pt x="326" y="457" on="1"/>
        <pt x="338" y="357" on="0"/>
        <pt x="396" y="220" on="0"/>
        <pt x="475" y="135" on="0"/>
        <pt x="569" y="98" on="0"/>
        <pt x="618" y="98" on="1"/>
        <pt x="647" y="98" on="0"/>
        <pt x="705" y="113" on="0"/>
        <pt x="772" y="149" on="0"/>
        <pt x="852" y="210" on="0"/>
        <pt x="903" y="256" on="1"/>
        <pt x="915" y="248" on="0"/>
        <pt x="937" y="213" on="0"/>
        <pt x="945" y="204" on="1"/>
        <pt x="885" y="136" on="0"/>
        <pt x="785" y="46" on="0"/>
        <pt x="691" y="-8" on="0"/>
        <pt x="598" y="-30" on="0"/>
        <pt x="546" y="-30" on="1"/>
        <pt x="470" y="-30" on="0"/>
        <pt x="331" y="29" on="0"/>
        <pt x="221" y="150" on="0"/>
        <pt x="147" y="333" on="0"/>
        <pt x="135" y="457" on="1"/>
        <pt x="46" y="457" on="1"/>
        <pt x="22" y="485" on="1"/>
        <pt x="27" y="500" on="0"/>
        <pt x="40" y="541" on="0"/>
        <pt x="46" y="557" on="1"/>
        <pt x="130" y="557" on="1"/>
        <pt x="130" y="569" on="1"/>
        <pt x="130" y="598" on="0"/>
        <pt x="133" y="655" on="0"/>
        <pt x="135" y="682" on="1"/>
        <pt x="76" y="682" on="1"/>
        <pt x="52" y="710" on="1"/>
        <pt x="57" y="725" on="0"/>
        <pt x="70" y="766" on="0"/>
        <pt x="76" y="782" on="1"/>
        <pt x="148" y="782" on="1"/>
        <pt x="169" y="895" on="0"/>
        <pt x="258" y="1065" on="0"/>
        <pt x="386" y="1178" on="0"/>
        <pt x="550" y="1235" on="0"/>
        <pt x="646" y="1235" on="1"/>
        <pt x="696" y="1235" on="0"/>
        <pt x="779" y="1219" on="0"/>
        <pt x="849" y="1192" on="0"/>
        <pt x="908" y="1156" on="0"/>
        <pt x="934" y="1135" on="1"/>
        <pt x="940" y="1130" on="0"/>
        <pt x="920" y="1092" on="0"/>
        <pt x="887" y="1044" on="0"/>
        <pt x="851" y="999" on="0"/>
        <pt x="839" y="987" on="1"/>
        <pt x="794" y="996" on="1"/>
        <pt x="770" y="1024" on="0"/>
        <pt x="724" y="1069" on="0"/>
        <pt x="671" y="1101" on="0"/>
        <pt x="607" y="1118" on="0"/>
        <pt x="564" y="1118" on="1"/>
        <pt x="531" y="1118" on="0"/>
        <pt x="459" y="1090" on="0"/>
        <pt x="394" y="1016" on="0"/>
        <pt x="341" y="885" on="0"/>
        <pt x="328" y="782" on="1"/>
        <pt x="685" y="782" on="1"/>
        <pt x="713" y="757" on="1"/>
        <pt x="685" y="682" on="1"/>
        <pt x="320" y="682" on="1"/>
        <pt x="318" y="662" on="0"/>
        <pt x="318" y="641" on="1"/>
        <pt x="318" y="557" on="1"/>
        <pt x="645" y="557" on="1"/>
        <pt x="673" y="532" on="1"/>
      </contour>
    </TTGlyph>
    <TTGlyph name="F" xMin="48" yMin="0" xMax="922" yMax="1260">
      <contour>
        <pt x="48" y="0" on="1"/>
        <pt x="48" y="53" on="1"/>
        <pt x="116" y="67" on="0"/>
        <pt x="190" y="100" on="0"/>
        <pt x="190" y="114" on="1"/>
        <pt x="190" y="1145" on="1"/>
        <pt x="190" y="1157" on="0"/>
        <pt x="120" y="1193" on="0"/>
        <pt x="48" y="1207" on="1"/>
        <pt x="48" y="1260" on="1"/>
        <pt x="889" y="1260" on="1"/>
        <pt x="922" y="1233" on="1"/>
        <pt x="921" y="1207" on="0"/>
        <pt x="913" y="1140" on="0"/>
        <pt x="902" y="1071" on="0"/>
        <pt x="889" y="1009" on="0"/>
        <pt x="883" y="990" on="1"/>
        <pt x="826" y="990" on="1"/>
        <pt x="823" y="1082" on="0"/>
        <pt x="782" y="1160" on="0"/>
        <pt x="744" y="1160" on="1"/>
        <pt x="380" y="1160" on="1"/>
        <pt x="380" y="735" on="1"/>
        <pt x="752" y="735" on="1"/>
        <pt x="783" y="705" on="1"/>
        <pt x="774" y="690" on="0"/>
        <pt x="750" y="656" on="0"/>
        <pt x="724" y="624" on="0"/>
        <pt x="699" y="597" on="0"/>
        <pt x="689" y="589" on="1"/>
        <pt x="674" y="604" on="0"/>
        <pt x="640" y="624" on="0"/>
        <pt x="595" y="638" on="0"/>
        <pt x="534" y="644" on="0"/>
        <pt x="492" y="644" on="1"/>
        <pt x="380" y="644" on="1"/>
        <pt x="380" y="114" on="1"/>
        <pt x="380" y="108" on="0"/>
        <pt x="397" y="94" on="0"/>
        <pt x="438" y="79" on="0"/>
        <pt x="504" y="62" on="0"/>
        <pt x="553" y="53" on="1"/>
        <pt x="553" y="0" on="1"/>
      </contour>
    </TTGlyph>
    <TTGlyph name="G" xMin="65" yMin="-30" xMax="1160" yMax="1290">
      <contour>
        <pt x="1060" y="1188" on="1"/>
        <pt x="1067" y="1183" on="0"/>
        <pt x="1047" y="1144" on="0"/>
        <pt x="1012" y="1098" on="0"/>
        <pt x="972" y="1053" on="0"/>
        <pt x="959" y="1041" on="1"/>
        <pt x="916" y="1050" on="1"/>
        <pt x="883" y="1087" on="0"/>
        <pt x="814" y="1135" on="0"/>
        <pt x="739" y="1164" on="0"/>
        <pt x="655" y="1175" on="0"/>
        <pt x="608" y="1175" on="1"/>
        <pt x="583" y="1175" on="0"/>
        <pt x="511" y="1153" on="0"/>
        <pt x="432" y="1103" on="0"/>
        <pt x="354" y="1021" on="0"/>
        <pt x="292" y="902" on="0"/>
        <pt x="253" y="741" on="0"/>
        <pt x="253" y="637" on="1"/>
        <pt x="253" y="500" on="0"/>
        <pt x="323" y="299" on="0"/>
        <pt x="437" y="167" on="0"/>
        <pt x="581" y="103" on="0"/>
        <pt x="655" y="103" on="1"/>
        <pt x="723" y="103" on="0"/>
        <pt x="833" y="129" on="0"/>
        <pt x="878" y="153" on="1"/>
        <pt x="878" y="480" on="1"/>
        <pt x="878" y="491" on="0"/>
        <pt x="863" y="512" on="0"/>
        <pt x="821" y="532" on="0"/>
        <pt x="746" y="552" on="0"/>
        <pt x="687" y="562" on="1"/>
        <pt x="687" y="615" on="1"/>
        <pt x="1160" y="615" on="1"/>
        <pt x="1160" y="562" on="1"/>
        <pt x="1103" y="548" on="0"/>
        <pt x="1058" y="503" on="0"/>
        <pt x="1058" y="480" on="1"/>
        <pt x="1058" y="159" on="1"/>
        <pt x="984" y="98" on="0"/>
        <pt x="863" y="24" on="0"/>
        <pt x="760" y="-17" on="0"/>
        <pt x="668" y="-30" on="0"/>
        <pt x="623" y="-30" on="1"/>
        <pt x="520" y="-30" on="0"/>
        <pt x="320" y="45" on="0"/>
        <pt x="162" y="198" on="0"/>
        <pt x="65" y="427" on="0"/>
        <pt x="65" y="582" on="1"/>
        <pt x="65" y="748" on="0"/>
        <pt x="171" y="1011" on="0"/>
        <pt x="354" y="1194" on="0"/>
        <pt x="601" y="1290" on="0"/>
        <pt x="742" y="1290" on="1"/>
        <pt x="775" y="1290" on="0"/>
        <pt x="858" y="1276" on="0"/>
        <pt x="945" y="1250" on="0"/>
        <pt x="1028" y="1212" on="0"/>
      </contour>
    </TTGlyph>
    <TTGlyph name="Gbreve" xMin="65" yMin="-30" xMax="1160" yMax="1735">
      <component glyphName="G" x="0" y="0" flags="0x0"/>
      <component glyphName="uni0306" x="1161" y="320" flags="0x0"/>
    </TTGlyph>
    <TTGlyph name="Gcaron" xMin="65" yMin="-30" xMax="1160" yMax="1755">
      <component glyphName="G" x="0" y="0" flags="0x0"/>
      <component glyphName="uni030C.LP" x="1160" y="320" flags="0x0"/>
    </TTGlyph>
    <TTGlyph name="Gcircumflex" xMin="65" yMin="-30" xMax="1160" yMax="1729">
      <component glyphName="G" x="0" y="0" flags="0x0"/>
      <component glyphName="uni0302.LP" x="1160" y="320" flags="0x0"/>
    </TTGlyph>
    <TTGlyph name="Gdotaccent" xMin="65" yMin="-30" xMax="1160" yMax="1647">
      <component glyphName="G" x="0" y="0" flags="0x0"/>
      <component glyphName="uni0307.LP" x="1161" y="320" flags="0x0"/>
    </TTGlyph>
    <TTGlyph name="H" xMin="48" yMin="0" xMax="1293" yMax="1260">
      <contour>
        <pt x="48" y="0" on="1"/>
        <pt x="48" y="53" on="1"/>
        <pt x="116" y="67" on="0"/>
        <pt x="190" y="100" on="0"/>
        <pt x="190" y="114" on="1"/>
        <pt x="190" y="1145" on="1"/>
        <pt x="190" y="1157" on="0"/>
        <pt x="120" y="1193" on="0"/>
        <pt x="48" y="1207" on="1"/>
        <pt x="48" y="1260" on="1"/>
        <pt x="523" y="1260" on="1"/>
        <pt x="523" y="1207" on="1"/>
        <pt x="455" y="1193" on="0"/>
        <pt x="380" y="1159" on="0"/>
        <pt x="380" y="1145" on="1"/>
        <pt x="380" y="710" on="1"/>
        <pt x="960" y="710" on="1"/>
        <pt x="960" y="1145" on="1"/>
        <pt x="960" y="1157" on="0"/>
        <pt x="890" y="1193" on="0"/>
        <pt x="818" y="1207" on="1"/>
        <pt x="818" y="1260" on="1"/>
        <pt x="1293" y="1260" on="1"/>
        <pt x="1293" y="1207" on="1"/>
        <pt x="1225" y="1193" on="0"/>
        <pt x="1150" y="1159" on="0"/>
        <pt x="1150" y="1145" on="1"/>
        <pt x="1150" y="114" on="1"/>
        <pt x="1150" y="102" on="0"/>
        <pt x="1221" y="67" on="0"/>
        <pt x="1293" y="53" on="1"/>
        <pt x="1293" y="0" on="1"/>
        <pt x="818" y="0" on="1"/>
        <pt x="818" y="53" on="1"/>
        <pt x="886" y="67" on="0"/>
        <pt x="960" y="100" on="0"/>
        <pt x="960" y="114" on="1"/>
        <pt x="960" y="610" on="1"/>
        <pt x="380" y="610" on="1"/>
        <pt x="380" y="114" on="1"/>
        <pt x="380" y="102" on="0"/>
        <pt x="450" y="67" on="0"/>
        <pt x="523" y="53" on="1"/>
        <pt x="523" y="0" on="1"/>
      </contour>
    </TTGlyph>
    <TTGlyph name="Hcircumflex" xMin="48" yMin="0" xMax="1293" yMax="1729">
      <component glyphName="H" x="0" y="0" flags="0x0"/>
      <component glyphName="uni0302.LP" x="1184" y="320" flags="0x0"/>
    </TTGlyph>
    <TTGlyph name="I" xMin="68" yMin="0" xMax="543" yMax="1260">
      <contour>
        <pt x="68" y="0" on="1"/>
        <pt x="68" y="53" on="1"/>
        <pt x="136" y="67" on="0"/>
        <pt x="210" y="100" on="0"/>
        <pt x="210" y="114" on="1"/>
        <pt x="210" y="1145" on="1"/>
        <pt x="210" y="1157" on="0"/>
        <pt x="140" y="1193" on="0"/>
        <pt x="68" y="1207" on="1"/>
        <pt x="68" y="1260" on="1"/>
        <pt x="543" y="1260" on="1"/>
        <pt x="543" y="1207" on="1"/>
        <pt x="475" y="1193" on="0"/>
        <pt x="400" y="1159" on="0"/>
        <pt x="400" y="1145" on="1"/>
        <pt x="400" y="114" on="1"/>
        <pt x="400" y="102" on="0"/>
        <pt x="471" y="67" on="0"/>
        <pt x="543" y="53" on="1"/>
        <pt x="543" y="0" on="1"/>
      </contour>
    </TTGlyph>
    <TTGlyph name="IJ" xMin="68" yMin="-393" xMax="1208" yMax="1260">
      <component glyphName="I" x="0" y="0" flags="0x0"/>
      <component glyphName="J" x="630" y="0" flags="0x0"/>
    </TTGlyph>
    <TTGlyph name="Iacute" xMin="68" yMin="0" xMax="647" yMax="1742">
      <component glyphName="I" x="0" y="0" flags="0x0"/>
      <component glyphName="acutecomb.LP" x="848" y="320" flags="0x0"/>
    </TTGlyph>
    <TTGlyph name="Ibreve" xMin="-30" yMin="0" xMax="640" yMax="1735">
      <component glyphName="I" x="0" y="0" flags="0x0"/>
      <component glyphName="uni0306" x="820" y="320" flags="0x0"/>
    </TTGlyph>
    <TTGlyph name="Icircumflex" xMin="-20" yMin="0" xMax="628" yMax="1729">
      <component glyphName="I" x="0" y="0" flags="0x0"/>
      <component glyphName="uni0302.LP" x="819" y="320" flags="0x0"/>
    </TTGlyph>
    <TTGlyph name="Idieresis" xMin="-11" yMin="0" xMax="621" yMax="1647">
      <component glyphName="I" x="0" y="0" flags="0x0"/>
      <component glyphName="uni0308.LP" x="820" y="320" flags="0x0"/>
    </TTGlyph>
    <TTGlyph name="Idotaccent" xMin="68" yMin="0" xMax="543" yMax="1647">
      <component glyphName="I" x="0" y="0" flags="0x0"/>
      <component glyphName="uni0307.LP" x="820" y="320" flags="0x0"/>
    </TTGlyph>
    <TTGlyph name="Igrave" xMin="-35" yMin="0" xMax="543" yMax="1742">
      <component glyphName="I" x="0" y="0" flags="0x0"/>
      <component glyphName="gravecomb.LP" x="738" y="320" flags="0x0"/>
    </TTGlyph>
    <TTGlyph name="Imacron" xMin="38" yMin="0" xMax="592" yMax="1636">
      <component glyphName="I" x="0" y="0" flags="0x0"/>
      <component glyphName="uni0304.Short" x="830" y="320" flags="0x0"/>
    </TTGlyph>
    <TTGlyph name="Itilde" xMin="-53" yMin="0" xMax="664" yMax="1662">
      <component glyphName="I" x="0" y="0" flags="0x0"/>
      <component glyphName="tildecomb.LP" x="828" y="320" flags="0x0"/>
    </TTGlyph>
    <TTGlyph name="J" xMin="-215" yMin="-393" xMax="578" yMax="1260">
      <contour>
        <pt x="578" y="1207" on="1"/>
        <pt x="510" y="1193" on="0"/>
        <pt x="435" y="1159" on="0"/>
        <pt x="435" y="1145" on="1"/>
        <pt x="435" y="198" on="1"/>
        <pt x="435" y="82" on="0"/>
        <pt x="399" y="-77" on="0"/>
        <pt x="339" y="-189" on="0"/>
        <pt x="263" y="-264" on="0"/>
        <pt x="224" y="-296" on="1"/>
        <pt x="197" y="-318" on="0"/>
        <pt x="131" y="-354" on="0"/>
        <pt x="63" y="-379" on="0"/>
        <pt x="-1" y="-393" on="0"/>
        <pt x="-25" y="-393" on="1"/>
        <pt x="-60" y="-393" on="0"/>
        <pt x="-128" y="-373" on="0"/>
        <pt x="-182" y="-346" on="0"/>
        <pt x="-215" y="-317" on="0"/>
        <pt x="-215" y="-308" on="1"/>
        <pt x="-215" y="-299" on="0"/>
        <pt x="-184" y="-263" on="0"/>
        <pt x="-141" y="-225" on="0"/>
        <pt x="-96" y="-193" on="0"/>
        <pt x="-82" y="-188" on="1"/>
        <pt x="-54" y="-208" on="0"/>
        <pt x="-9" y="-234" on="0"/>
        <pt x="31" y="-249" on="0"/>
        <pt x="68" y="-255" on="0"/>
        <pt x="87" y="-255" on="1"/>
        <pt x="113" y="-255" on="0"/>
        <pt x="169" y="-224" on="0"/>
        <pt x="215" y="-140" on="0"/>
        <pt x="245" y="8" on="0"/>
        <pt x="245" y="126" on="1"/>
        <pt x="245" y="1145" on="1"/>
        <pt x="245" y="1151" on="0"/>
        <pt x="230" y="1165" on="0"/>
        <pt x="188" y="1181" on="0"/>
        <pt x="113" y="1198" on="0"/>
        <pt x="53" y="1207" on="1"/>
        <pt x="53" y="1260" on="1"/>
        <pt x="578" y="1260" on="1"/>
      </contour>
    </TTGlyph>
    <TTGlyph name="K" xMin="48" yMin="-14" xMax="1204" yMax="1260">
      <contour>
        <pt x="48" y="0" on="1"/>
        <pt x="48" y="53" on="1"/>
        <pt x="116" y="67" on="0"/>
        <pt x="190" y="100" on="0"/>
        <pt x="190" y="114" on="1"/>
        <pt x="190" y="1145" on="1"/>
        <pt x="190" y="1157" on="0"/>
        <pt x="120" y="1193" on="0"/>
        <pt x="48" y="1207" on="1"/>
        <pt x="48" y="1260" on="1"/>
        <pt x="523" y="1260" on="1"/>
        <pt x="523" y="1207" on="1"/>
        <pt x="455" y="1193" on="0"/>
        <pt x="380" y="1159" on="0"/>
        <pt x="380" y="1145" on="1"/>
        <pt x="380" y="651" on="1"/>
        <pt x="777" y="1118" on="1"/>
        <pt x="800" y="1145" on="0"/>
        <pt x="814" y="1177" on="0"/>
        <pt x="797" y="1195" on="0"/>
        <pt x="749" y="1204" on="0"/>
        <pt x="710" y="1207" on="1"/>
        <pt x="710" y="1260" on="1"/>
        <pt x="1140" y="1260" on="1"/>
        <pt x="1140" y="1207" on="1"/>
        <pt x="1108" y="1203" on="0"/>
        <pt x="1060" y="1195" on="0"/>
        <pt x="1022" y="1182" on="0"/>
        <pt x="990" y="1162" on="0"/>
        <pt x="975" y="1145" on="1"/>
        <pt x="540" y="673" on="1"/>
        <pt x="1023" y="140" on="1"/>
        <pt x="1057" y="102" on="0"/>
        <pt x="1145" y="89" on="0"/>
        <pt x="1197" y="95" on="1"/>
        <pt x="1204" y="42" on="1"/>
        <pt x="1175" y="33" on="0"/>
        <pt x="1111" y="13" on="0"/>
        <pt x="1048" y="-4" on="0"/>
        <pt x="990" y="-14" on="0"/>
        <pt x="966" y="-14" on="1"/>
        <pt x="937" y="-14" on="0"/>
        <pt x="892" y="4" on="0"/>
        <pt x="872" y="29" on="1"/>
        <pt x="380" y="634" on="1"/>
        <pt x="380" y="114" on="1"/>
        <pt x="380" y="102" on="0"/>
        <pt x="450" y="67" on="0"/>
        <pt x="523" y="53" on="1"/>
        <pt x="523" y="0" on="1"/>
      </contour>
    </TTGlyph>
    <TTGlyph name="L" xMin="48" yMin="0" xMax="969" yMax="1260">
      <contour>
        <pt x="969" y="264" on="1"/>
        <pt x="965" y="221" on="0"/>
        <pt x="954" y="139" on="0"/>
        <pt x="943" y="68" on="0"/>
        <pt x="932" y="15" on="0"/>
        <pt x="928" y="0" on="1"/>
        <pt x="48" y="0" on="1"/>
        <pt x="48" y="53" on="1"/>
        <pt x="116" y="67" on="0"/>
        <pt x="190" y="100" on="0"/>
        <pt x="190" y="114" on="1"/>
        <pt x="190" y="1145" on="1"/>
        <pt x="190" y="1157" on="0"/>
        <pt x="120" y="1193" on="0"/>
        <pt x="48" y="1207" on="1"/>
        <pt x="48" y="1260" on="1"/>
        <pt x="523" y="1260" on="1"/>
        <pt x="523" y="1207" on="1"/>
        <pt x="455" y="1193" on="0"/>
        <pt x="380" y="1159" on="0"/>
        <pt x="380" y="1145" on="1"/>
        <pt x="380" y="174" on="1"/>
        <pt x="380" y="156" on="0"/>
        <pt x="397" y="129" on="0"/>
        <pt x="439" y="110" on="0"/>
        <pt x="511" y="100" on="0"/>
        <pt x="566" y="100" on="1"/>
        <pt x="699" y="100" on="1"/>
        <pt x="745" y="100" on="0"/>
        <pt x="808" y="114" on="0"/>
        <pt x="856" y="154" on="0"/>
        <pt x="895" y="226" on="0"/>
        <pt x="916" y="285" on="1"/>
      </contour>
    </TTGlyph>
    <TTGlyph name="Lacute" xMin="48" yMin="0" xMax="969" yMax="1742">
      <component glyphName="L" x="0" y="0" flags="0x0"/>
      <component glyphName="acutecomb.LP" x="1020" y="320" flags="0x0"/>
    </TTGlyph>
    <TTGlyph name="Lslash" xMin="36" yMin="0" xMax="969" yMax="1260">
      <contour>
        <pt x="969" y="264" on="1"/>
        <pt x="965" y="221" on="0"/>
        <pt x="954" y="139" on="0"/>
        <pt x="943" y="68" on="0"/>
        <pt x="932" y="15" on="0"/>
        <pt x="928" y="0" on="1"/>
        <pt x="48" y="0" on="1"/>
        <pt x="48" y="53" on="1"/>
        <pt x="116" y="67" on="0"/>
        <pt x="190" y="100" on="0"/>
        <pt x="190" y="114" on="1"/>
        <pt x="190" y="512" on="1"/>
        <pt x="63" y="448" on="1"/>
        <pt x="36" y="470" on="1"/>
        <pt x="39" y="481" on="0"/>
        <pt x="50" y="511" on="0"/>
        <pt x="64" y="540" on="0"/>
        <pt x="78" y="565" on="0"/>
        <pt x="84" y="572" on="1"/>
        <pt x="190" y="625" on="1"/>
        <pt x="190" y="1145" on="1"/>
        <pt x="190" y="1157" on="0"/>
        <pt x="120" y="1193" on="0"/>
        <pt x="48" y="1207" on="1"/>
        <pt x="48" y="1260" on="1"/>
        <pt x="523" y="1260" on="1"/>
        <pt x="523" y="1207" on="1"/>
        <pt x="455" y="1193" on="0"/>
        <pt x="380" y="1159" on="0"/>
        <pt x="380" y="1145" on="1"/>
        <pt x="380" y="721" on="1"/>
        <pt x="660" y="863" on="1"/>
        <pt x="686" y="838" on="1"/>
        <pt x="679" y="816" on="0"/>
        <pt x="650" y="757" on="0"/>
        <pt x="636" y="738" on="1"/>
        <pt x="380" y="608" on="1"/>
        <pt x="380" y="174" on="1"/>
        <pt x="380" y="156" on="0"/>
        <pt x="397" y="129" on="0"/>
        <pt x="439" y="110" on="0"/>
        <pt x="511" y="100" on="0"/>
        <pt x="566" y="100" on="1"/>
        <pt x="699" y="100" on="1"/>
        <pt x="745" y="100" on="0"/>
        <pt x="808" y="114" on="0"/>
        <pt x="856" y="154" on="0"/>
        <pt x="895" y="226" on="0"/>
        <pt x="916" y="285" on="1"/>
      </contour>
    </TTGlyph>
    <TTGlyph name="M" xMin="58" yMin="0" xMax="1600" yMax="1260">
      <contour>
        <pt x="1578" y="1207" on="1"/>
        <pt x="1551" y="1207" on="0"/>
        <pt x="1481" y="1189" on="0"/>
        <pt x="1445" y="1174" on="1"/>
        <pt x="1455" y="114" on="1"/>
        <pt x="1455" y="102" on="0"/>
        <pt x="1528" y="67" on="0"/>
        <pt x="1600" y="53" on="1"/>
        <pt x="1600" y="0" on="1"/>
        <pt x="1123" y="0" on="1"/>
        <pt x="1123" y="53" on="1"/>
        <pt x="1191" y="67" on="0"/>
        <pt x="1275" y="100" on="0"/>
        <pt x="1275" y="114" on="1"/>
        <pt x="1266" y="1007" on="1"/>
        <pt x="833" y="0" on="1"/>
        <pt x="769" y="0" on="1"/>
        <pt x="334" y="1003" on="1"/>
        <pt x="325" y="114" on="1"/>
        <pt x="325" y="102" on="0"/>
        <pt x="396" y="67" on="0"/>
        <pt x="468" y="53" on="1"/>
        <pt x="468" y="0" on="1"/>
        <pt x="58" y="0" on="1"/>
        <pt x="58" y="53" on="1"/>
        <pt x="127" y="67" on="0"/>
        <pt x="200" y="100" on="0"/>
        <pt x="200" y="114" on="1"/>
        <pt x="210" y="1169" on="1"/>
        <pt x="173" y="1190" on="0"/>
        <pt x="97" y="1207" on="0"/>
        <pt x="68" y="1207" on="1"/>
        <pt x="68" y="1260" on="1"/>
        <pt x="374" y="1260" on="1"/>
        <pt x="384" y="1260" on="0"/>
        <pt x="398" y="1254" on="0"/>
        <pt x="412" y="1236" on="0"/>
        <pt x="428" y="1203" on="0"/>
        <pt x="440" y="1176" on="1"/>
        <pt x="828" y="297" on="1"/>
        <pt x="1208" y="1176" on="1"/>
        <pt x="1221" y="1206" on="0"/>
        <pt x="1238" y="1240" on="0"/>
        <pt x="1251" y="1256" on="0"/>
        <pt x="1265" y="1260" on="0"/>
        <pt x="1274" y="1260" on="1"/>
        <pt x="1578" y="1260" on="1"/>
      </contour>
    </TTGlyph>
    <TTGlyph name="N" xMin="48" yMin="-30" xMax="1293" yMax="1260">
      <contour>
        <pt x="48" y="0" on="1"/>
        <pt x="48" y="53" on="1"/>
        <pt x="122" y="62" on="0"/>
        <pt x="190" y="100" on="0"/>
        <pt x="190" y="114" on="1"/>
        <pt x="190" y="1138" on="1"/>
        <pt x="157" y="1168" on="0"/>
        <pt x="86" y="1201" on="0"/>
        <pt x="48" y="1207" on="1"/>
        <pt x="48" y="1260" on="1"/>
        <pt x="282" y="1260" on="1"/>
        <pt x="297" y="1260" on="0"/>
        <pt x="316" y="1255" on="0"/>
        <pt x="336" y="1239" on="0"/>
        <pt x="359" y="1208" on="0"/>
        <pt x="378" y="1182" on="1"/>
        <pt x="1020" y="295" on="1"/>
        <pt x="1020" y="1145" on="1"/>
        <pt x="1020" y="1151" on="0"/>
        <pt x="1006" y="1168" on="0"/>
        <pt x="973" y="1185" on="0"/>
        <pt x="918" y="1201" on="0"/>
        <pt x="878" y="1207" on="1"/>
        <pt x="878" y="1260" on="1"/>
        <pt x="1293" y="1260" on="1"/>
        <pt x="1293" y="1207" on="1"/>
        <pt x="1221" y="1197" on="0"/>
        <pt x="1150" y="1159" on="0"/>
        <pt x="1150" y="1145" on="1"/>
        <pt x="1150" y="-30" on="1"/>
        <pt x="1085" y="-23" on="0"/>
        <pt x="1008" y="16" on="0"/>
        <pt x="991" y="39" on="1"/>
        <pt x="320" y="969" on="1"/>
        <pt x="320" y="114" on="1"/>
        <pt x="320" y="108" on="0"/>
        <pt x="336" y="91" on="0"/>
        <pt x="370" y="74" on="0"/>
        <pt x="424" y="58" on="0"/>
        <pt x="463" y="53" on="1"/>
        <pt x="463" y="0" on="1"/>
      </contour>
    </TTGlyph>
    <TTGlyph name="Nacute" xMin="48" yMin="-30" xMax="1293" yMax="1742">
      <component glyphName="N" x="0" y="0" flags="0x0"/>
      <component glyphName="acutecomb.LP" x="1213" y="320" flags="0x0"/>
    </TTGlyph>
    <TTGlyph name="Ncaron" xMin="48" yMin="-30" xMax="1293" yMax="1755">
      <component glyphName="N" x="0" y="0" flags="0x0"/>
      <component glyphName="uni030C.LP" x="1184" y="320" flags="0x0"/>
    </TTGlyph>
    <TTGlyph name="Ntilde" xMin="48" yMin="-30" xMax="1293" yMax="1662">
      <component glyphName="N" x="0" y="0" flags="0x0"/>
      <component glyphName="tildecomb.LP" x="1193" y="320" flags="0x0"/>
    </TTGlyph>
    <TTGlyph name="O" xMin="65" yMin="-30" xMax="1158" yMax="1290">
      <contour>
        <pt x="971" y="629" on="1"/>
        <pt x="971" y="698" on="0"/>
        <pt x="947" y="832" on="0"/>
        <pt x="902" y="952" on="0"/>
        <pt x="838" y="1054" on="0"/>
        <pt x="756" y="1128" on="0"/>
        <pt x="659" y="1170" on="0"/>
        <pt x="604" y="1170" on="1"/>
        <pt x="521" y="1170" on="0"/>
        <pt x="390" y="1096" on="0"/>
        <pt x="300" y="959" on="0"/>
        <pt x="253" y="763" on="0"/>
        <pt x="253" y="641" on="1"/>
        <pt x="253" y="529" on="0"/>
        <pt x="311" y="330" on="0"/>
        <pt x="410" y="182" on="0"/>
        <pt x="543" y="95" on="0"/>
        <pt x="617" y="95" on="1"/>
        <pt x="694" y="95" on="0"/>
        <pt x="824" y="163" on="0"/>
        <pt x="918" y="297" on="0"/>
        <pt x="971" y="497" on="0"/>
      </contour>
      <contour>
        <pt x="1158" y="647" on="1"/>
        <pt x="1158" y="511" on="0"/>
        <pt x="1066" y="266" on="0"/>
        <pt x="908" y="80" on="0"/>
        <pt x="700" y="-30" on="0"/>
        <pt x="583" y="-30" on="1"/>
        <pt x="460" y="-30" on="0"/>
        <pt x="268" y="76" on="0"/>
        <pt x="135" y="254" on="0"/>
        <pt x="65" y="486" on="0"/>
        <pt x="65" y="612" on="1"/>
        <pt x="65" y="748" on="0"/>
        <pt x="153" y="994" on="0"/>
        <pt x="308" y="1180" on="0"/>
        <pt x="518" y="1290" on="0"/>
        <pt x="641" y="1290" on="1"/>
        <pt x="767" y="1290" on="0"/>
        <pt x="961" y="1181" on="0"/>
        <pt x="1091" y="1001" on="0"/>
        <pt x="1158" y="769" on="0"/>
      </contour>
    </TTGlyph>
    <TTGlyph name="OE" xMin="65" yMin="-30" xMax="1610" yMax="1290">
      <contour>
        <pt x="617" y="95" on="1"/>
        <pt x="656" y="95" on="0"/>
        <pt x="721" y="99" on="0"/>
        <pt x="776" y="110" on="0"/>
        <pt x="825" y="130" on="0"/>
        <pt x="849" y="146" on="1"/>
        <pt x="849" y="1089" on="1"/>
        <pt x="798" y="1132" on="0"/>
        <pt x="673" y="1171" on="0"/>
        <pt x="604" y="1171" on="1"/>
        <pt x="521" y="1171" on="0"/>
        <pt x="391" y="1097" on="0"/>
        <pt x="301" y="959" on="0"/>
        <pt x="253" y="763" on="0"/>
        <pt x="253" y="641" on="1"/>
        <pt x="253" y="529" on="0"/>
        <pt x="311" y="330" on="0"/>
        <pt x="410" y="182" on="0"/>
        <pt x="542" y="95" on="0"/>
      </contour>
      <contour>
        <pt x="1610" y="264" on="1"/>
        <pt x="1606" y="221" on="0"/>
        <pt x="1595" y="139" on="0"/>
        <pt x="1584" y="68" on="0"/>
        <pt x="1573" y="15" on="0"/>
        <pt x="1569" y="0" on="1"/>
        <pt x="880" y="0" on="1"/>
        <pt x="827" y="-1" on="0"/>
        <pt x="754" y="-10" on="0"/>
        <pt x="691" y="-21" on="0"/>
        <pt x="627" y="-30" on="0"/>
        <pt x="583" y="-30" on="1"/>
        <pt x="461" y="-30" on="0"/>
        <pt x="269" y="76" on="0"/>
        <pt x="135" y="254" on="0"/>
        <pt x="65" y="486" on="0"/>
        <pt x="65" y="612" on="1"/>
        <pt x="65" y="748" on="0"/>
        <pt x="154" y="994" on="0"/>
        <pt x="309" y="1180" on="0"/>
        <pt x="519" y="1290" on="0"/>
        <pt x="641" y="1290" on="1"/>
        <pt x="683" y="1290" on="0"/>
        <pt x="744" y="1281" on="0"/>
        <pt x="800" y="1269" on="0"/>
        <pt x="861" y="1260" on="0"/>
        <pt x="903" y="1260" on="1"/>
        <pt x="1509" y="1260" on="1"/>
        <pt x="1543" y="1233" on="1"/>
        <pt x="1541" y="1207" on="0"/>
        <pt x="1533" y="1140" on="0"/>
        <pt x="1522" y="1071" on="0"/>
        <pt x="1509" y="1009" on="0"/>
        <pt x="1503" y="990" on="1"/>
        <pt x="1447" y="990" on="1"/>
        <pt x="1442" y="1082" on="0"/>
        <pt x="1403" y="1159" on="0"/>
        <pt x="1365" y="1159" on="1"/>
        <pt x="1041" y="1159" on="1"/>
        <pt x="1041" y="735" on="1"/>
        <pt x="1411" y="735" on="1"/>
        <pt x="1442" y="705" on="1"/>
        <pt x="1433" y="691" on="0"/>
        <pt x="1410" y="658" on="0"/>
        <pt x="1385" y="625" on="0"/>
        <pt x="1360" y="598" on="0"/>
        <pt x="1350" y="590" on="1"/>
        <pt x="1335" y="605" on="0"/>
        <pt x="1300" y="625" on="0"/>
        <pt x="1255" y="639" on="0"/>
        <pt x="1193" y="645" on="0"/>
        <pt x="1151" y="645" on="1"/>
        <pt x="1041" y="645" on="1"/>
        <pt x="1041" y="164" on="1"/>
        <pt x="1041" y="149" on="0"/>
        <pt x="1046" y="126" on="0"/>
        <pt x="1078" y="109" on="0"/>
        <pt x="1149" y="100" on="0"/>
        <pt x="1215" y="100" on="1"/>
        <pt x="1334" y="100" on="1"/>
        <pt x="1380" y="100" on="0"/>
        <pt x="1445" y="114" on="0"/>
        <pt x="1494" y="154" on="0"/>
        <pt x="1535" y="226" on="0"/>
        <pt x="1557" y="285" on="1"/>
      </contour>
    </TTGlyph>
    <TTGlyph name="Oacute" xMin="65" yMin="-30" xMax="1158" yMax="1742">
      <component glyphName="O" x="0" y="0" flags="0x0"/>
      <component glyphName="acutecomb.LP" x="1166" y="320" flags="0x0"/>
    </TTGlyph>
    <TTGlyph name="Obreve" xMin="65" yMin="-30" xMax="1158" yMax="1735">
      <component glyphName="O" x="0" y="0" flags="0x0"/>
      <component glyphName="uni0306" x="1138" y="320" flags="0x0"/>
    </TTGlyph>
    <TTGlyph name="Ocircumflex" xMin="65" yMin="-30" xMax="1158" yMax="1729">
      <component glyphName="O" x="0" y="0" flags="0x0"/>
      <component glyphName="uni0302.LP" x="1137" y="320" flags="0x0"/>
    </TTGlyph>
    <TTGlyph name="Odieresis" xMin="65" yMin="-30" xMax="1158" yMax="1647">
      <component glyphName="O" x="0" y="0" flags="0x0"/>
      <component glyphName="uni0308.LP" x="1138" y="320" flags="0x0"/>
    </TTGlyph>
    <TTGlyph name="Ograve" xMin="65" yMin="-30" xMax="1158" yMax="1742">
      <component glyphName="O" x="0" y="0" flags="0x0"/>
      <component glyphName="gravecomb.LP" x="1056" y="320" flags="0x0"/>
    </TTGlyph>
    <TTGlyph name="Ohorn" xMin="65" yMin="-30" xMax="1235" yMax="1508">
      <contour>
        <pt x="971" y="629" on="1"/>
        <pt x="971" y="698" on="0"/>
        <pt x="947" y="832" on="0"/>
        <pt x="902" y="952" on="0"/>
        <pt x="838" y="1054" on="0"/>
        <pt x="756" y="1128" on="0"/>
        <pt x="659" y="1170" on="0"/>
        <pt x="604" y="1170" on="1"/>
        <pt x="521" y="1170" on="0"/>
        <pt x="390" y="1096" on="0"/>
        <pt x="300" y="959" on="0"/>
        <pt x="253" y="763" on="0"/>
        <pt x="253" y="641" on="1"/>
        <pt x="253" y="529" on="0"/>
        <pt x="311" y="330" on="0"/>
        <pt x="410" y="182" on="0"/>
        <pt x="543" y="95" on="0"/>
        <pt x="617" y="95" on="1"/>
        <pt x="694" y="95" on="0"/>
        <pt x="824" y="163" on="0"/>
        <pt x="918" y="297" on="0"/>
        <pt x="971" y="497" on="0"/>
      </contour>
      <contour>
        <pt x="1235" y="1392" on="1"/>
        <pt x="1235" y="1366" on="0"/>
        <pt x="1211" y="1302" on="0"/>
        <pt x="1156" y="1232" on="0"/>
        <pt x="1066" y="1158" on="0"/>
        <pt x="1001" y="1122" on="1"/>
        <pt x="1079" y="1029" on="0"/>
        <pt x="1158" y="781" on="0"/>
        <pt x="1158" y="647" on="1"/>
        <pt x="1158" y="511" on="0"/>
        <pt x="1066" y="266" on="0"/>
        <pt x="908" y="80" on="0"/>
        <pt x="700" y="-30" on="0"/>
        <pt x="583" y="-30" on="1"/>
        <pt x="460" y="-30" on="0"/>
        <pt x="268" y="76" on="0"/>
        <pt x="135" y="254" on="0"/>
        <pt x="65" y="486" on="0"/>
        <pt x="65" y="612" on="1"/>
        <pt x="65" y="748" on="0"/>
        <pt x="153" y="994" on="0"/>
        <pt x="308" y="1180" on="0"/>
        <pt x="518" y="1290" on="0"/>
        <pt x="641" y="1290" on="1"/>
        <pt x="732" y="1290" on="0"/>
        <pt x="880" y="1233" on="0"/>
        <pt x="940" y="1182" on="1"/>
        <pt x="991" y="1217" on="0"/>
        <pt x="1033" y="1286" on="0"/>
        <pt x="1033" y="1311" on="1"/>
        <pt x="1033" y="1340" on="0"/>
        <pt x="1001" y="1392" on="0"/>
        <pt x="973" y="1415" on="1"/>
        <pt x="1178" y="1508" on="1"/>
        <pt x="1203" y="1486" on="0"/>
        <pt x="1235" y="1425" on="0"/>
      </contour>
    </TTGlyph>
    <TTGlyph name="Ohungarumlaut" xMin="65" yMin="-30" xMax="1158" yMax="1814">
      <component glyphName="O" x="0" y="0" flags="0x0"/>
      <component glyphName="uni030B" x="1123" y="320" flags="0x0"/>
    </TTGlyph>
    <TTGlyph name="Omacron" xMin="65" yMin="-30" xMax="1158" yMax="1596">
      <component glyphName="O" x="0" y="0" flags="0x0"/>
      <component glyphName="uni0304.LP" x="1148" y="320" flags="0x0"/>
    </TTGlyph>
    <TTGlyph name="Omega" xMin="75" yMin="0" xMax="1212" yMax="1290">
      <component glyphName="uni03A9" x="0" y="0" flags="0x0"/>
    </TTGlyph>
    <TTGlyph name="Oslash" xMin="65" yMin="-53" xMax="1158" yMax="1313">
      <contour>
        <pt x="971" y="629" on="1"/>
        <pt x="971" y="711" on="0"/>
        <pt x="938" y="867" on="0"/>
        <pt x="906" y="935" on="1"/>
        <pt x="393" y="212" on="1"/>
        <pt x="440" y="157" on="0"/>
        <pt x="554" y="95" on="0"/>
        <pt x="617" y="95" on="1"/>
        <pt x="694" y="95" on="0"/>
        <pt x="824" y="163" on="0"/>
        <pt x="918" y="297" on="0"/>
        <pt x="971" y="497" on="0"/>
      </contour>
      <contour>
        <pt x="253" y="641" on="1"/>
        <pt x="253" y="554" on="0"/>
        <pt x="288" y="396" on="0"/>
        <pt x="319" y="330" on="1"/>
        <pt x="833" y="1053" on="1"/>
        <pt x="787" y="1107" on="0"/>
        <pt x="672" y="1170" on="0"/>
        <pt x="604" y="1170" on="1"/>
        <pt x="521" y="1170" on="0"/>
        <pt x="390" y="1096" on="0"/>
        <pt x="300" y="959" on="0"/>
        <pt x="253" y="763" on="0"/>
      </contour>
      <contour>
        <pt x="1021" y="1097" on="1"/>
        <pt x="1089" y="1006" on="0"/>
        <pt x="1158" y="772" on="0"/>
        <pt x="1158" y="647" on="1"/>
        <pt x="1158" y="511" on="0"/>
        <pt x="1066" y="266" on="0"/>
        <pt x="908" y="80" on="0"/>
        <pt x="700" y="-30" on="0"/>
        <pt x="583" y="-30" on="1"/>
        <pt x="497" y="-30" on="0"/>
        <pt x="352" y="22" on="0"/>
        <pt x="293" y="70" on="1"/>
        <pt x="242" y="-2" on="1"/>
        <pt x="233" y="-10" on="0"/>
        <pt x="196" y="-26" on="0"/>
        <pt x="154" y="-39" on="0"/>
        <pt x="113" y="-50" on="0"/>
        <pt x="101" y="-53" on="1"/>
        <pt x="72" y="-19" on="1"/>
        <pt x="202" y="164" on="1"/>
        <pt x="135" y="254" on="0"/>
        <pt x="65" y="484" on="0"/>
        <pt x="65" y="612" on="1"/>
        <pt x="65" y="748" on="0"/>
        <pt x="153" y="994" on="0"/>
        <pt x="308" y="1180" on="0"/>
        <pt x="518" y="1290" on="0"/>
        <pt x="641" y="1290" on="1"/>
        <pt x="728" y="1290" on="0"/>
        <pt x="872" y="1238" on="0"/>
        <pt x="930" y="1191" on="1"/>
        <pt x="982" y="1264" on="1"/>
        <pt x="1010" y="1281" on="0"/>
        <pt x="1089" y="1307" on="0"/>
        <pt x="1120" y="1313" on="1"/>
        <pt x="1150" y="1279" on="1"/>
      </contour>
    </TTGlyph>
    <TTGlyph name="Oslashacute" xMin="65" yMin="-53" xMax="1158" yMax="1742">
      <component glyphName="Oslash" x="0" y="0" flags="0x0"/>
      <component glyphName="acutecomb.LP" x="1155" y="320" flags="0x0"/>
    </TTGlyph>
    <TTGlyph name="Otilde" xMin="65" yMin="-30" xMax="1158" yMax="1662">
      <component glyphName="O" x="0" y="0" flags="0x0"/>
      <component glyphName="tildecomb.LP" x="1146" y="320" flags="0x0"/>
    </TTGlyph>
    <TTGlyph name="P" xMin="37" yMin="0" xMax="1017" yMax="1290">
      <contour>
        <pt x="48" y="0" on="1"/>
        <pt x="48" y="53" on="1"/>
        <pt x="116" y="67" on="0"/>
        <pt x="190" y="100" on="0"/>
        <pt x="190" y="114" on="1"/>
        <pt x="190" y="1180" on="1"/>
        <pt x="152" y="1175" on="0"/>
        <pt x="81" y="1164" on="0"/>
        <pt x="48" y="1158" on="1"/>
        <pt x="37" y="1230" on="1"/>
        <pt x="87" y="1243" on="0"/>
        <pt x="207" y="1265" on="0"/>
        <pt x="335" y="1281" on="0"/>
        <pt x="467" y="1290" on="0"/>
        <pt x="530" y="1290" on="1"/>
        <pt x="641" y="1290" on="0"/>
        <pt x="820" y="1244" on="0"/>
        <pt x="948" y="1154" on="0"/>
        <pt x="1017" y="1022" on="0"/>
        <pt x="1017" y="936" on="1"/>
        <pt x="1017" y="867" on="0"/>
        <pt x="978" y="753" on="0"/>
        <pt x="913" y="663" on="0"/>
        <pt x="829" y="596" on="0"/>
        <pt x="737" y="552" on="0"/>
        <pt x="644" y="530" on="0"/>
        <pt x="603" y="530" on="1"/>
        <pt x="557" y="530" on="0"/>
        <pt x="474" y="545" on="0"/>
        <pt x="440" y="560" on="1"/>
        <pt x="414" y="645" on="1"/>
        <pt x="456" y="626" on="0"/>
        <pt x="528" y="615" on="0"/>
        <pt x="563" y="615" on="1"/>
        <pt x="608" y="615" on="0"/>
        <pt x="703" y="650" on="0"/>
        <pt x="781" y="719" on="0"/>
        <pt x="830" y="824" on="0"/>
        <pt x="830" y="895" on="1"/>
        <pt x="830" y="973" on="0"/>
        <pt x="775" y="1088" on="0"/>
        <pt x="679" y="1163" on="0"/>
        <pt x="548" y="1199" on="0"/>
        <pt x="473" y="1199" on="1"/>
        <pt x="426" y="1199" on="0"/>
        <pt x="380" y="1196" on="1"/>
        <pt x="380" y="114" on="1"/>
        <pt x="380" y="108" on="0"/>
        <pt x="395" y="94" on="0"/>
        <pt x="434" y="78" on="0"/>
        <pt x="501" y="62" on="0"/>
        <pt x="553" y="53" on="1"/>
        <pt x="553" y="0" on="1"/>
      </contour>
    </TTGlyph>
    <TTGlyph name="Pi" xMin="47" yMin="0" xMax="1244" yMax="1260">
      <contour>
        <pt x="47" y="0" on="1"/>
        <pt x="47" y="53" on="1"/>
        <pt x="115" y="67" on="0"/>
        <pt x="190" y="100" on="0"/>
        <pt x="190" y="114" on="1"/>
        <pt x="190" y="1145" on="1"/>
        <pt x="190" y="1157" on="0"/>
        <pt x="119" y="1193" on="0"/>
        <pt x="47" y="1207" on="1"/>
        <pt x="47" y="1260" on="1"/>
        <pt x="1244" y="1260" on="1"/>
        <pt x="1244" y="1207" on="1"/>
        <pt x="1175" y="1193" on="0"/>
        <pt x="1100" y="1159" on="0"/>
        <pt x="1100" y="1145" on="1"/>
        <pt x="1100" y="114" on="1"/>
        <pt x="1100" y="102" on="0"/>
        <pt x="1171" y="67" on="0"/>
        <pt x="1244" y="53" on="1"/>
        <pt x="1244" y="0" on="1"/>
        <pt x="768" y="0" on="1"/>
        <pt x="768" y="53" on="1"/>
        <pt x="836" y="67" on="0"/>
        <pt x="910" y="100" on="0"/>
        <pt x="910" y="114" on="1"/>
        <pt x="910" y="1097" on="1"/>
        <pt x="910" y="1109" on="0"/>
        <pt x="885" y="1133" on="0"/>
        <pt x="836" y="1153" on="0"/>
        <pt x="764" y="1166" on="0"/>
        <pt x="718" y="1166" on="1"/>
        <pt x="557" y="1166" on="1"/>
        <pt x="513" y="1165" on="0"/>
        <pt x="446" y="1152" on="0"/>
        <pt x="402" y="1133" on="0"/>
        <pt x="380" y="1109" on="0"/>
        <pt x="380" y="1097" on="1"/>
        <pt x="380" y="114" on="1"/>
        <pt x="380" y="102" on="0"/>
        <pt x="450" y="67" on="0"/>
        <pt x="523" y="53" on="1"/>
        <pt x="523" y="0" on="1"/>
      </contour>
    </TTGlyph>
    <TTGlyph name="Q" xMin="65" yMin="-313" xMax="1327" yMax="1290">
      <contour>
        <pt x="971" y="629" on="1"/>
        <pt x="971" y="698" on="0"/>
        <pt x="947" y="832" on="0"/>
        <pt x="902" y="952" on="0"/>
        <pt x="838" y="1054" on="0"/>
        <pt x="756" y="1128" on="0"/>
        <pt x="659" y="1170" on="0"/>
        <pt x="604" y="1170" on="1"/>
        <pt x="521" y="1170" on="0"/>
        <pt x="390" y="1096" on="0"/>
        <pt x="300" y="959" on="0"/>
        <pt x="253" y="763" on="0"/>
        <pt x="253" y="641" on="1"/>
        <pt x="253" y="529" on="0"/>
        <pt x="311" y="330" on="0"/>
        <pt x="410" y="182" on="0"/>
        <pt x="543" y="95" on="0"/>
        <pt x="617" y="95" on="1"/>
        <pt x="694" y="95" on="0"/>
        <pt x="824" y="163" on="0"/>
        <pt x="918" y="297" on="0"/>
        <pt x="971" y="497" on="0"/>
      </contour>
      <contour>
        <pt x="1327" y="-120" on="1"/>
        <pt x="1303" y="-164" on="0"/>
        <pt x="1251" y="-235" on="0"/>
        <pt x="1201" y="-285" on="0"/>
        <pt x="1157" y="-313" on="0"/>
        <pt x="1142" y="-313" on="1"/>
        <pt x="1099" y="-313" on="0"/>
        <pt x="1014" y="-284" on="0"/>
        <pt x="929" y="-236" on="0"/>
        <pt x="844" y="-175" on="0"/>
        <pt x="759" y="-111" on="0"/>
        <pt x="674" y="-50" on="0"/>
        <pt x="632" y="-27" on="1"/>
        <pt x="608" y="-30" on="0"/>
        <pt x="583" y="-30" on="1"/>
        <pt x="468" y="-30" on="0"/>
        <pt x="278" y="73" on="0"/>
        <pt x="141" y="248" on="0"/>
        <pt x="65" y="481" on="0"/>
        <pt x="65" y="612" on="1"/>
        <pt x="65" y="748" on="0"/>
        <pt x="153" y="994" on="0"/>
        <pt x="308" y="1180" on="0"/>
        <pt x="518" y="1290" on="0"/>
        <pt x="641" y="1290" on="1"/>
        <pt x="767" y="1290" on="0"/>
        <pt x="961" y="1181" on="0"/>
        <pt x="1091" y="1001" on="0"/>
        <pt x="1158" y="769" on="0"/>
        <pt x="1158" y="647" on="1"/>
        <pt x="1158" y="542" on="0"/>
        <pt x="1102" y="348" on="0"/>
        <pt x="1003" y="183" on="0"/>
        <pt x="868" y="55" on="0"/>
        <pt x="788" y="17" on="1"/>
        <pt x="837" y="-6" on="0"/>
        <pt x="932" y="-63" on="0"/>
        <pt x="1023" y="-115" on="0"/>
        <pt x="1109" y="-150" on="0"/>
        <pt x="1148" y="-150" on="1"/>
        <pt x="1160" y="-150" on="0"/>
        <pt x="1187" y="-143" on="0"/>
        <pt x="1220" y="-126" on="0"/>
        <pt x="1263" y="-97" on="0"/>
        <pt x="1293" y="-75" on="1"/>
      </contour>
    </TTGlyph>
    <TTGlyph name="R" xMin="37" yMin="-14" xMax="1174" yMax="1290">
      <contour>
        <pt x="450" y="1199" on="1"/>
        <pt x="433" y="1199" on="0"/>
        <pt x="398" y="1198" on="0"/>
        <pt x="380" y="1197" on="1"/>
        <pt x="380" y="696" on="1"/>
        <pt x="407" y="691" on="0"/>
        <pt x="447" y="689" on="0"/>
        <pt x="469" y="689" on="1"/>
        <pt x="620" y="689" on="0"/>
        <pt x="775" y="827" on="0"/>
        <pt x="775" y="956" on="1"/>
        <pt x="775" y="1008" on="0"/>
        <pt x="740" y="1097" on="0"/>
        <pt x="662" y="1162" on="0"/>
        <pt x="538" y="1199" on="0"/>
      </contour>
      <contour>
        <pt x="48" y="0" on="1"/>
        <pt x="48" y="53" on="1"/>
        <pt x="116" y="67" on="0"/>
        <pt x="190" y="100" on="0"/>
        <pt x="190" y="114" on="1"/>
        <pt x="190" y="1178" on="1"/>
        <pt x="154" y="1173" on="0"/>
        <pt x="83" y="1163" on="0"/>
        <pt x="48" y="1158" on="1"/>
        <pt x="37" y="1230" on="1"/>
        <pt x="86" y="1242" on="0"/>
        <pt x="188" y="1263" on="0"/>
        <pt x="299" y="1280" on="0"/>
        <pt x="421" y="1290" on="0"/>
        <pt x="489" y="1290" on="1"/>
        <pt x="612" y="1290" on="0"/>
        <pt x="790" y="1244" on="0"/>
        <pt x="906" y="1162" on="0"/>
        <pt x="962" y="1051" on="0"/>
        <pt x="962" y="987" on="1"/>
        <pt x="962" y="916" on="0"/>
        <pt x="921" y="800" on="0"/>
        <pt x="847" y="708" on="0"/>
        <pt x="743" y="642" on="0"/>
        <pt x="681" y="623" on="1"/>
        <pt x="988" y="154" on="1"/>
        <pt x="1003" y="133" on="0"/>
        <pt x="1036" y="107" on="0"/>
        <pt x="1077" y="94" on="0"/>
        <pt x="1128" y="92" on="0"/>
        <pt x="1162" y="95" on="1"/>
        <pt x="1174" y="42" on="1"/>
        <pt x="1141" y="31" on="0"/>
        <pt x="1071" y="11" on="0"/>
        <pt x="1006" y="-5" on="0"/>
        <pt x="949" y="-14" on="0"/>
        <pt x="930" y="-14" on="1"/>
        <pt x="901" y="-14" on="0"/>
        <pt x="846" y="18" on="0"/>
        <pt x="832" y="41" on="1"/>
        <pt x="535" y="597" on="1"/>
        <pt x="523" y="596" on="0"/>
        <pt x="498" y="595" on="0"/>
        <pt x="486" y="595" on="1"/>
        <pt x="460" y="595" on="0"/>
        <pt x="408" y="600" on="0"/>
        <pt x="380" y="606" on="1"/>
        <pt x="380" y="114" on="1"/>
        <pt x="380" y="102" on="0"/>
        <pt x="450" y="67" on="0"/>
        <pt x="523" y="53" on="1"/>
        <pt x="523" y="0" on="1"/>
      </contour>
    </TTGlyph>
    <TTGlyph name="Racute" xMin="37" yMin="-14" xMax="1174" yMax="1742">
      <component glyphName="R" x="0" y="0" flags="0x0"/>
      <component glyphName="acutecomb.LP" x="1076" y="320" flags="0x0"/>
    </TTGlyph>
    <TTGlyph name="Rcaron" xMin="37" yMin="-14" xMax="1174" yMax="1755">
      <component glyphName="R" x="0" y="0" flags="0x0"/>
      <component glyphName="uni030C.LP" x="1047" y="320" flags="0x0"/>
    </TTGlyph>
    <TTGlyph name="S" xMin="112" yMin="-30" xMax="913" yMax="1290">
      <contour>
        <pt x="913" y="377" on="1"/>
        <pt x="913" y="332" on="0"/>
        <pt x="888" y="238" on="0"/>
        <pt x="837" y="147" on="0"/>
        <pt x="761" y="66" on="0"/>
        <pt x="658" y="6" on="0"/>
        <pt x="529" y="-30" on="0"/>
        <pt x="450" y="-30" on="1"/>
        <pt x="416" y="-30" on="0"/>
        <pt x="333" y="-16" on="0"/>
        <pt x="246" y="9" on="0"/>
        <pt x="161" y="45" on="0"/>
        <pt x="126" y="68" on="1"/>
        <pt x="119" y="72" on="0"/>
        <pt x="112" y="136" on="0"/>
        <pt x="112" y="222" on="0"/>
        <pt x="120" y="313" on="0"/>
        <pt x="129" y="344" on="1"/>
        <pt x="180" y="339" on="1"/>
        <pt x="203" y="280" on="0"/>
        <pt x="271" y="190" on="0"/>
        <pt x="354" y="129" on="0"/>
        <pt x="450" y="98" on="0"/>
        <pt x="501" y="98" on="1"/>
        <pt x="546" y="98" on="0"/>
        <pt x="634" y="131" on="0"/>
        <pt x="705" y="190" on="0"/>
        <pt x="748" y="271" on="0"/>
        <pt x="748" y="319" on="1"/>
        <pt x="748" y="380" on="0"/>
        <pt x="694" y="468" on="0"/>
        <pt x="606" y="537" on="0"/>
        <pt x="494" y="592" on="0"/>
        <pt x="376" y="646" on="0"/>
        <pt x="264" y="707" on="0"/>
        <pt x="176" y="786" on="0"/>
        <pt x="122" y="892" on="0"/>
        <pt x="122" y="965" on="1"/>
        <pt x="122" y="1012" on="0"/>
        <pt x="168" y="1125" on="0"/>
        <pt x="268" y="1224" on="0"/>
        <pt x="427" y="1290" on="0"/>
        <pt x="541" y="1290" on="1"/>
        <pt x="589" y="1290" on="0"/>
        <pt x="685" y="1276" on="0"/>
        <pt x="767" y="1252" on="0"/>
        <pt x="833" y="1218" on="0"/>
        <pt x="851" y="1198" on="1"/>
        <pt x="858" y="1192" on="0"/>
        <pt x="844" y="1151" on="0"/>
        <pt x="816" y="1102" on="0"/>
        <pt x="782" y="1056" on="0"/>
        <pt x="770" y="1045" on="1"/>
        <pt x="724" y="1051" on="1"/>
        <pt x="698" y="1088" on="0"/>
        <pt x="638" y="1140" on="0"/>
        <pt x="576" y="1171" on="0"/>
        <pt x="513" y="1185" on="0"/>
        <pt x="485" y="1185" on="1"/>
        <pt x="431" y="1185" on="0"/>
        <pt x="355" y="1154" on="0"/>
        <pt x="305" y="1105" on="0"/>
        <pt x="282" y="1045" on="0"/>
        <pt x="282" y="1017" on="1"/>
        <pt x="282" y="970" on="0"/>
        <pt x="336" y="897" on="0"/>
        <pt x="425" y="836" on="0"/>
        <pt x="538" y="780" on="0"/>
        <pt x="657" y="721" on="0"/>
        <pt x="770" y="652" on="0"/>
        <pt x="859" y="564" on="0"/>
        <pt x="913" y="451" on="0"/>
      </contour>
    </TTGlyph>
    <TTGlyph name="Sacute" xMin="112" yMin="-30" xMax="913" yMax="1742">
      <component glyphName="S" x="0" y="0" flags="0x0"/>
      <component glyphName="acutecomb.LP" x="1055" y="320" flags="0x0"/>
    </TTGlyph>
    <TTGlyph name="Scaron" xMin="112" yMin="-30" xMax="913" yMax="1755">
      <component glyphName="S" x="0" y="0" flags="0x0"/>
      <component glyphName="uni030C.LP" x="1026" y="320" flags="0x0"/>
    </TTGlyph>
    <TTGlyph name="Scircumflex" xMin="112" yMin="-30" xMax="913" yMax="1729">
      <component glyphName="S" x="0" y="0" flags="0x0"/>
      <component glyphName="uni0302.LP" x="1026" y="320" flags="0x0"/>
    </TTGlyph>
    <TTGlyph name="T" xMin="8" yMin="0" xMax="1106" yMax="1260">
      <contour>
        <pt x="305" y="0" on="1"/>
        <pt x="305" y="53" on="1"/>
        <pt x="351" y="62" on="0"/>
        <pt x="413" y="82" on="0"/>
        <pt x="450" y="101" on="0"/>
        <pt x="466" y="118" on="0"/>
        <pt x="466" y="125" on="1"/>
        <pt x="466" y="1160" on="1"/>
        <pt x="182" y="1160" on="1"/>
        <pt x="167" y="1160" on="0"/>
        <pt x="142" y="1146" on="0"/>
        <pt x="115" y="1105" on="0"/>
        <pt x="83" y="1032" on="0"/>
        <pt x="61" y="974" on="1"/>
        <pt x="8" y="995" on="1"/>
        <pt x="10" y="1024" on="0"/>
        <pt x="18" y="1095" on="0"/>
        <pt x="27" y="1166" on="0"/>
        <pt x="38" y="1234" on="0"/>
        <pt x="43" y="1260" on="1"/>
        <pt x="1073" y="1260" on="1"/>
        <pt x="1106" y="1233" on="1"/>
        <pt x="1105" y="1207" on="0"/>
        <pt x="1099" y="1146" on="0"/>
        <pt x="1090" y="1079" on="0"/>
        <pt x="1079" y="1011" on="0"/>
        <pt x="1073" y="980" on="1"/>
        <pt x="1018" y="980" on="1"/>
        <pt x="1008" y="1026" on="0"/>
        <pt x="994" y="1094" on="0"/>
        <pt x="976" y="1139" on="0"/>
        <pt x="949" y="1160" on="0"/>
        <pt x="928" y="1160" on="1"/>
        <pt x="656" y="1160" on="1"/>
        <pt x="656" y="125" on="1"/>
        <pt x="656" y="119" on="0"/>
        <pt x="672" y="102" on="0"/>
        <pt x="710" y="82" on="0"/>
        <pt x="772" y="62" on="0"/>
        <pt x="818" y="53" on="1"/>
        <pt x="818" y="0" on="1"/>
      </contour>
    </TTGlyph>
    <TTGlyph name="Tcaron" xMin="8" yMin="0" xMax="1106" yMax="1755">
      <component glyphName="T" x="0" y="0" flags="0x0"/>
      <component glyphName="uni030C.LP" x="1070" y="320" flags="0x0"/>
    </TTGlyph>
    <TTGlyph name="Thorn" xMin="47" yMin="0" xMax="1017" yMax="1260">
      <contour>
        <pt x="47" y="0" on="1"/>
        <pt x="47" y="53" on="1"/>
        <pt x="115" y="67" on="0"/>
        <pt x="190" y="100" on="0"/>
        <pt x="190" y="114" on="1"/>
        <pt x="190" y="1145" on="1"/>
        <pt x="190" y="1157" on="0"/>
        <pt x="119" y="1193" on="0"/>
        <pt x="47" y="1207" on="1"/>
        <pt x="47" y="1260" on="1"/>
        <pt x="553" y="1260" on="1"/>
        <pt x="553" y="1207" on="1"/>
        <pt x="502" y="1198" on="0"/>
        <pt x="435" y="1182" on="0"/>
        <pt x="396" y="1167" on="0"/>
        <pt x="380" y="1152" on="0"/>
        <pt x="380" y="1145" on="1"/>
        <pt x="380" y="1018" on="1"/>
        <pt x="413" y="1020" on="0"/>
        <pt x="487" y="1023" on="0"/>
        <pt x="530" y="1023" on="1"/>
        <pt x="641" y="1023" on="0"/>
        <pt x="820" y="977" on="0"/>
        <pt x="948" y="887" on="0"/>
        <pt x="1017" y="755" on="0"/>
        <pt x="1017" y="669" on="1"/>
        <pt x="1017" y="600" on="0"/>
        <pt x="978" y="486" on="0"/>
        <pt x="913" y="395" on="0"/>
        <pt x="829" y="328" on="0"/>
        <pt x="737" y="284" on="0"/>
        <pt x="644" y="263" on="0"/>
        <pt x="603" y="263" on="1"/>
        <pt x="557" y="263" on="0"/>
        <pt x="474" y="278" on="0"/>
        <pt x="440" y="295" on="1"/>
        <pt x="414" y="377" on="1"/>
        <pt x="456" y="358" on="0"/>
        <pt x="528" y="348" on="0"/>
        <pt x="563" y="348" on="1"/>
        <pt x="608" y="348" on="0"/>
        <pt x="703" y="382" on="0"/>
        <pt x="781" y="452" on="0"/>
        <pt x="830" y="557" on="0"/>
        <pt x="830" y="628" on="1"/>
        <pt x="830" y="707" on="0"/>
        <pt x="775" y="821" on="0"/>
        <pt x="679" y="895" on="0"/>
        <pt x="548" y="931" on="0"/>
        <pt x="473" y="931" on="1"/>
        <pt x="426" y="931" on="0"/>
        <pt x="380" y="928" on="1"/>
        <pt x="380" y="114" on="1"/>
        <pt x="380" y="108" on="0"/>
        <pt x="395" y="94" on="0"/>
        <pt x="434" y="78" on="0"/>
        <pt x="501" y="62" on="0"/>
        <pt x="553" y="53" on="1"/>
        <pt x="553" y="0" on="1"/>
      </contour>
    </TTGlyph>
    <TTGlyph name="U" xMin="48" yMin="-30" xMax="1288" yMax="1260">
      <contour>
        <pt x="1288" y="1207" on="1"/>
        <pt x="1220" y="1193" on="0"/>
        <pt x="1145" y="1159" on="0"/>
        <pt x="1145" y="1145" on="1"/>
        <pt x="1145" y="524" on="1"/>
        <pt x="1145" y="393" on="0"/>
        <pt x="1078" y="187" on="0"/>
        <pt x="954" y="45" on="0"/>
        <pt x="779" y="-30" on="0"/>
        <pt x="671" y="-30" on="1"/>
        <pt x="568" y="-30" on="0"/>
        <pt x="392" y="27" on="0"/>
        <pt x="263" y="144" on="0"/>
        <pt x="190" y="322" on="0"/>
        <pt x="190" y="444" on="1"/>
        <pt x="190" y="1145" on="1"/>
        <pt x="190" y="1157" on="0"/>
        <pt x="120" y="1193" on="0"/>
        <pt x="48" y="1207" on="1"/>
        <pt x="48" y="1260" on="1"/>
        <pt x="523" y="1260" on="1"/>
        <pt x="523" y="1207" on="1"/>
        <pt x="455" y="1193" on="0"/>
        <pt x="380" y="1159" on="0"/>
        <pt x="380" y="1145" on="1"/>
        <pt x="380" y="499" on="1"/>
        <pt x="380" y="307" on="0"/>
        <pt x="547" y="95" on="0"/>
        <pt x="718" y="95" on="1"/>
        <pt x="789" y="95" on="0"/>
        <pt x="895" y="162" on="0"/>
        <pt x="965" y="272" on="0"/>
        <pt x="1000" y="414" on="0"/>
        <pt x="1000" y="488" on="1"/>
        <pt x="1000" y="1145" on="1"/>
        <pt x="1000" y="1157" on="0"/>
        <pt x="930" y="1193" on="0"/>
        <pt x="858" y="1207" on="1"/>
        <pt x="858" y="1260" on="1"/>
        <pt x="1288" y="1260" on="1"/>
      </contour>
    </TTGlyph>
    <TTGlyph name="Uacute" xMin="48" yMin="-30" xMax="1288" yMax="1742">
      <component glyphName="U" x="0" y="0" flags="0x0"/>
      <component glyphName="acutecomb.LP" x="1225" y="320" flags="0x0"/>
    </TTGlyph>
    <TTGlyph name="Ubreve" xMin="48" yMin="-30" xMax="1288" yMax="1735">
      <component glyphName="U" x="0" y="0" flags="0x0"/>
      <component glyphName="uni0306" x="1197" y="320" flags="0x0"/>
    </TTGlyph>
    <TTGlyph name="Ucircumflex" xMin="48" yMin="-30" xMax="1288" yMax="1729">
      <component glyphName="U" x="0" y="0" flags="0x0"/>
      <component glyphName="uni0302.LP" x="1196" y="320" flags="0x0"/>
    </TTGlyph>
    <TTGlyph name="Udieresis" xMin="48" yMin="-30" xMax="1288" yMax="1647">
      <component glyphName="U" x="0" y="0" flags="0x0"/>
      <component glyphName="uni0308.LP" x="1197" y="320" flags="0x0"/>
    </TTGlyph>
    <TTGlyph name="Ugrave" xMin="48" yMin="-30" xMax="1288" yMax="1742">
      <component glyphName="U" x="0" y="0" flags="0x0"/>
      <component glyphName="gravecomb.LP" x="1115" y="320" flags="0x0"/>
    </TTGlyph>
    <TTGlyph name="Uhorn" xMin="48" yMin="-30" xMax="1433" yMax="1508">
      <contour>
        <pt x="1433" y="1392" on="1"/>
        <pt x="1433" y="1364" on="0"/>
        <pt x="1403" y="1293" on="0"/>
        <pt x="1336" y="1214" on="0"/>
        <pt x="1226" y="1133" on="0"/>
        <pt x="1145" y="1094" on="1"/>
        <pt x="1145" y="524" on="1"/>
        <pt x="1145" y="393" on="0"/>
        <pt x="1078" y="187" on="0"/>
        <pt x="954" y="45" on="0"/>
        <pt x="779" y="-30" on="0"/>
        <pt x="671" y="-30" on="1"/>
        <pt x="568" y="-30" on="0"/>
        <pt x="392" y="27" on="0"/>
        <pt x="263" y="144" on="0"/>
        <pt x="190" y="322" on="0"/>
        <pt x="190" y="444" on="1"/>
        <pt x="190" y="1145" on="1"/>
        <pt x="190" y="1157" on="0"/>
        <pt x="120" y="1193" on="0"/>
        <pt x="48" y="1207" on="1"/>
        <pt x="48" y="1260" on="1"/>
        <pt x="523" y="1260" on="1"/>
        <pt x="523" y="1207" on="1"/>
        <pt x="455" y="1193" on="0"/>
        <pt x="380" y="1159" on="0"/>
        <pt x="380" y="1145" on="1"/>
        <pt x="380" y="499" on="1"/>
        <pt x="380" y="307" on="0"/>
        <pt x="547" y="95" on="0"/>
        <pt x="718" y="95" on="1"/>
        <pt x="789" y="95" on="0"/>
        <pt x="895" y="162" on="0"/>
        <pt x="965" y="272" on="0"/>
        <pt x="1000" y="414" on="0"/>
        <pt x="1000" y="488" on="1"/>
        <pt x="1000" y="1145" on="1"/>
        <pt x="1000" y="1157" on="0"/>
        <pt x="930" y="1193" on="0"/>
        <pt x="858" y="1207" on="1"/>
        <pt x="858" y="1260" on="1"/>
        <pt x="1215" y="1260" on="1"/>
        <pt x="1231" y="1288" on="0"/>
        <pt x="1231" y="1311" on="1"/>
        <pt x="1231" y="1340" on="0"/>
        <pt x="1198" y="1392" on="0"/>
        <pt x="1170" y="1415" on="1"/>
        <pt x="1376" y="1508" on="1"/>
        <pt x="1401" y="1486" on="0"/>
        <pt x="1433" y="1425" on="0"/>
      </contour>
    </TTGlyph>
    <TTGlyph name="Uhungarumlaut" xMin="48" yMin="-30" xMax="1288" yMax="1814">
      <component glyphName="U" x="0" y="0" flags="0x0"/>
      <component glyphName="uni030B" x="1182" y="320" flags="0x0"/>
    </TTGlyph>
    <TTGlyph name="Umacron" xMin="48" yMin="-30" xMax="1288" yMax="1596">
      <component glyphName="U" x="0" y="0" flags="0x0"/>
      <component glyphName="uni0304.LP" x="1207" y="320" flags="0x0"/>
    </TTGlyph>
    <TTGlyph name="Uring" xMin="48" yMin="-30" xMax="1288" yMax="1768">
      <component glyphName="U" x="0" y="0" flags="0x0"/>
      <component glyphName="uni030A" x="1197" y="320" flags="0x0"/>
    </TTGlyph>
    <TTGlyph name="Utilde" xMin="48" yMin="-30" xMax="1288" yMax="1662">
      <component glyphName="U" x="0" y="0" flags="0x0"/>
      <component glyphName="tildecomb.LP" x="1205" y="320" flags="0x0"/>
    </TTGlyph>
    <TTGlyph name="V" xMin="18" yMin="-30" xMax="1303" yMax="1260">
      <contour>
        <pt x="1303" y="1207" on="1"/>
        <pt x="1235" y="1194" on="0"/>
        <pt x="1158" y="1169" on="0"/>
        <pt x="1148" y="1141" on="1"/>
        <pt x="767" y="67" on="1"/>
        <pt x="759" y="45" on="0"/>
        <pt x="718" y="12" on="0"/>
        <pt x="669" y="-12" on="0"/>
        <pt x="619" y="-26" on="0"/>
        <pt x="602" y="-30" on="1"/>
        <pt x="157" y="1141" on="1"/>
        <pt x="147" y="1167" on="0"/>
        <pt x="81" y="1199" on="0"/>
        <pt x="18" y="1207" on="1"/>
        <pt x="18" y="1260" on="1"/>
        <pt x="478" y="1260" on="1"/>
        <pt x="478" y="1207" on="1"/>
        <pt x="398" y="1201" on="0"/>
        <pt x="341" y="1172" on="0"/>
        <pt x="352" y="1143" on="1"/>
        <pt x="696" y="231" on="1"/>
        <pt x="1019" y="1141" on="1"/>
        <pt x="1030" y="1170" on="0"/>
        <pt x="964" y="1197" on="0"/>
        <pt x="882" y="1207" on="1"/>
        <pt x="882" y="1260" on="1"/>
        <pt x="1303" y="1260" on="1"/>
      </contour>
    </TTGlyph>
    <TTGlyph name="W" xMin="20" yMin="-30" xMax="1712" yMax="1260">
      <contour>
        <pt x="1712" y="1207" on="1"/>
        <pt x="1668" y="1198" on="0"/>
        <pt x="1610" y="1182" on="0"/>
        <pt x="1576" y="1167" on="0"/>
        <pt x="1561" y="1153" on="0"/>
        <pt x="1560" y="1145" on="1"/>
        <pt x="1331" y="59" on="1"/>
        <pt x="1326" y="38" on="0"/>
        <pt x="1293" y="7" on="0"/>
        <pt x="1250" y="-14" on="0"/>
        <pt x="1205" y="-27" on="0"/>
        <pt x="1190" y="-30" on="1"/>
        <pt x="859" y="922" on="1"/>
        <pt x="572" y="59" on="1"/>
        <pt x="565" y="38" on="0"/>
        <pt x="530" y="8" on="0"/>
        <pt x="486" y="-13" on="0"/>
        <pt x="438" y="-26" on="0"/>
        <pt x="418" y="-30" on="1"/>
        <pt x="158" y="1137" on="1"/>
        <pt x="153" y="1162" on="0"/>
        <pt x="91" y="1194" on="0"/>
        <pt x="20" y="1207" on="1"/>
        <pt x="20" y="1260" on="1"/>
        <pt x="469" y="1260" on="1"/>
        <pt x="469" y="1207" on="1"/>
        <pt x="420" y="1202" on="0"/>
        <pt x="365" y="1187" on="0"/>
        <pt x="338" y="1169" on="0"/>
        <pt x="334" y="1148" on="0"/>
        <pt x="336" y="1137" on="1"/>
        <pt x="525" y="295" on="1"/>
        <pt x="839" y="1260" on="1"/>
        <pt x="909" y="1260" on="1"/>
        <pt x="1256" y="295" on="1"/>
        <pt x="1435" y="1145" on="1"/>
        <pt x="1437" y="1157" on="0"/>
        <pt x="1415" y="1175" on="0"/>
        <pt x="1373" y="1189" on="0"/>
        <pt x="1315" y="1201" on="0"/>
        <pt x="1281" y="1207" on="1"/>
        <pt x="1281" y="1260" on="1"/>
        <pt x="1712" y="1260" on="1"/>
      </contour>
    </TTGlyph>
    <TTGlyph name="Wacute" xMin="20" yMin="-30" xMax="1712" yMax="1742">
      <component glyphName="W" x="0" y="0" flags="0x0"/>
      <component glyphName="acutecomb.LP" x="1409" y="320" flags="0x0"/>
    </TTGlyph>
    <TTGlyph name="Wcircumflex" xMin="20" yMin="-30" xMax="1712" yMax="1729">
      <component glyphName="W" x="0" y="0" flags="0x0"/>
      <component glyphName="uni0302.LP" x="1380" y="320" flags="0x0"/>
    </TTGlyph>
    <TTGlyph name="Wdieresis" xMin="20" yMin="-30" xMax="1712" yMax="1647">
      <component glyphName="W" x="0" y="0" flags="0x0"/>
      <component glyphName="uni0308.LP" x="1381" y="320" flags="0x0"/>
    </TTGlyph>
    <TTGlyph name="Wgrave" xMin="20" yMin="-30" xMax="1712" yMax="1742">
      <component glyphName="W" x="0" y="0" flags="0x0"/>
      <component glyphName="gravecomb.LP" x="1299" y="320" flags="0x0"/>
    </TTGlyph>
    <TTGlyph name="X" xMin="29" yMin="0" xMax="1242" yMax="1260">
      <contour>
        <pt x="763" y="0" on="1"/>
        <pt x="763" y="53" on="1"/>
        <pt x="807" y="57" on="0"/>
        <pt x="861" y="70" on="0"/>
        <pt x="885" y="89" on="0"/>
        <pt x="882" y="117" on="0"/>
        <pt x="868" y="137" on="1"/>
        <pt x="604" y="523" on="1"/>
        <pt x="360" y="137" on="1"/>
        <pt x="331" y="93" on="0"/>
        <pt x="387" y="59" on="0"/>
        <pt x="479" y="53" on="1"/>
        <pt x="479" y="0" on="1"/>
        <pt x="29" y="0" on="1"/>
        <pt x="29" y="53" on="1"/>
        <pt x="94" y="58" on="0"/>
        <pt x="185" y="96" on="0"/>
        <pt x="211" y="137" on="1"/>
        <pt x="525" y="639" on="1"/>
        <pt x="195" y="1123" on="1"/>
        <pt x="180" y="1145" on="0"/>
        <pt x="152" y="1173" on="0"/>
        <pt x="117" y="1191" on="0"/>
        <pt x="72" y="1202" on="0"/>
        <pt x="39" y="1207" on="1"/>
        <pt x="39" y="1260" on="1"/>
        <pt x="520" y="1260" on="1"/>
        <pt x="520" y="1207" on="1"/>
        <pt x="435" y="1199" on="0"/>
        <pt x="383" y="1166" on="0"/>
        <pt x="413" y="1123" on="1"/>
        <pt x="647" y="780" on="1"/>
        <pt x="861" y="1123" on="1"/>
        <pt x="875" y="1146" on="0"/>
        <pt x="874" y="1175" on="0"/>
        <pt x="844" y="1194" on="0"/>
        <pt x="785" y="1204" on="0"/>
        <pt x="740" y="1207" on="1"/>
        <pt x="740" y="1260" on="1"/>
        <pt x="1193" y="1260" on="1"/>
        <pt x="1193" y="1207" on="1"/>
        <pt x="1157" y="1203" on="0"/>
        <pt x="1100" y="1192" on="0"/>
        <pt x="1056" y="1173" on="0"/>
        <pt x="1023" y="1144" on="0"/>
        <pt x="1010" y="1123" on="1"/>
        <pt x="724" y="667" on="1"/>
        <pt x="1086" y="137" on="1"/>
        <pt x="1101" y="116" on="0"/>
        <pt x="1131" y="87" on="0"/>
        <pt x="1168" y="68" on="0"/>
        <pt x="1213" y="57" on="0"/>
        <pt x="1242" y="53" on="1"/>
        <pt x="1242" y="0" on="1"/>
      </contour>
    </TTGlyph>
    <TTGlyph name="Y" xMin="0" yMin="0" xMax="1191" yMax="1270">
      <contour>
        <pt x="355" y="0" on="1"/>
        <pt x="355" y="53" on="1"/>
        <pt x="446" y="72" on="0"/>
        <pt x="517" y="111" on="0"/>
        <pt x="517" y="125" on="1"/>
        <pt x="517" y="535" on="1"/>
        <pt x="480" y="616" on="0"/>
        <pt x="388" y="789" on="0"/>
        <pt x="292" y="953" on="0"/>
        <pt x="201" y="1093" on="0"/>
        <pt x="166" y="1141" on="1"/>
        <pt x="157" y="1152" on="0"/>
        <pt x="135" y="1171" on="0"/>
        <pt x="100" y="1186" on="0"/>
        <pt x="46" y="1194" on="0"/>
        <pt x="4" y="1194" on="1"/>
        <pt x="0" y="1247" on="1"/>
        <pt x="29" y="1251" on="0"/>
        <pt x="94" y="1259" on="0"/>
        <pt x="157" y="1266" on="0"/>
        <pt x="213" y="1270" on="0"/>
        <pt x="234" y="1270" on="1"/>
        <pt x="258" y="1270" on="0"/>
        <pt x="303" y="1249" on="0"/>
        <pt x="320" y="1229" on="1"/>
        <pt x="357" y="1180" on="0"/>
        <pt x="441" y="1050" on="0"/>
        <pt x="526" y="905" on="0"/>
        <pt x="607" y="752" on="0"/>
        <pt x="642" y="680" on="1"/>
        <pt x="899" y="1141" on="1"/>
        <pt x="914" y="1167" on="0"/>
        <pt x="865" y="1197" on="0"/>
        <pt x="788" y="1207" on="1"/>
        <pt x="788" y="1260" on="1"/>
        <pt x="1191" y="1260" on="1"/>
        <pt x="1191" y="1207" on="1"/>
        <pt x="1123" y="1194" on="0"/>
        <pt x="1052" y="1166" on="0"/>
        <pt x="1038" y="1141" on="1"/>
        <pt x="707" y="536" on="1"/>
        <pt x="707" y="125" on="1"/>
        <pt x="707" y="119" on="0"/>
        <pt x="723" y="102" on="0"/>
        <pt x="760" y="82" on="0"/>
        <pt x="823" y="62" on="0"/>
        <pt x="870" y="53" on="1"/>
        <pt x="870" y="0" on="1"/>
      </contour>
    </TTGlyph>
    <TTGlyph name="Yacute" xMin="0" yMin="0" xMax="1191" yMax="1742">
      <component glyphName="Y" x="0" y="0" flags="0x0"/>
      <component glyphName="acutecomb.LP" x="1155" y="320" flags="0x0"/>
    </TTGlyph>
    <TTGlyph name="Ycircumflex" xMin="0" yMin="0" xMax="1191" yMax="1729">
      <component glyphName="Y" x="0" y="0" flags="0x0"/>
      <component glyphName="uni0302.LP" x="1126" y="320" flags="0x0"/>
    </TTGlyph>
    <TTGlyph name="Ydieresis" xMin="0" yMin="0" xMax="1191" yMax="1647">
      <component glyphName="Y" x="0" y="0" flags="0x0"/>
      <component glyphName="uni0308.LP" x="1127" y="320" flags="0x0"/>
    </TTGlyph>
    <TTGlyph name="Ygrave" xMin="0" yMin="0" xMax="1191" yMax="1742">
      <component glyphName="Y" x="0" y="0" flags="0x0"/>
      <component glyphName="gravecomb.LP" x="1045" y="320" flags="0x0"/>
    </TTGlyph>
    <TTGlyph name="Z" xMin="57" yMin="0" xMax="1009" yMax="1276">
      <contour>
        <pt x="1009" y="313" on="1"/>
        <pt x="1007" y="281" on="0"/>
        <pt x="1004" y="197" on="0"/>
        <pt x="1001" y="110" on="0"/>
        <pt x="998" y="29" on="0"/>
        <pt x="997" y="0" on="1"/>
        <pt x="88" y="0" on="1"/>
        <pt x="57" y="48" on="1"/>
        <pt x="755" y="1150" on="1"/>
        <pt x="319" y="1150" on="1"/>
        <pt x="303" y="1150" on="0"/>
        <pt x="264" y="1124" on="0"/>
        <pt x="227" y="1071" on="0"/>
        <pt x="194" y="993" on="0"/>
        <pt x="183" y="941" on="1"/>
        <pt x="116" y="955" on="1"/>
        <pt x="148" y="1276" on="1"/>
        <pt x="175" y="1270" on="0"/>
        <pt x="220" y="1263" on="0"/>
        <pt x="263" y="1260" on="0"/>
        <pt x="286" y="1260" on="1"/>
        <pt x="971" y="1260" on="1"/>
        <pt x="999" y="1215" on="1"/>
        <pt x="306" y="110" on="1"/>
        <pt x="807" y="110" on="1"/>
        <pt x="828" y="110" on="0"/>
        <pt x="862" y="133" on="0"/>
        <pt x="893" y="184" on="0"/>
        <pt x="925" y="268" on="0"/>
        <pt x="944" y="330" on="1"/>
      </contour>
    </TTGlyph>
    <TTGlyph name="Zacute" xMin="57" yMin="0" xMax="1009" yMax="1742">
      <component glyphName="Z" x="0" y="0" flags="0x0"/>
      <component glyphName="acutecomb.LP" x="1106" y="320" flags="0x0"/>
    </TTGlyph>
    <TTGlyph name="Zcaron" xMin="57" yMin="0" xMax="1009" yMax="1755">
      <component glyphName="Z" x="0" y="0" flags="0x0"/>
      <component glyphName="uni030C.LP" x="1077" y="320" flags="0x0"/>
    </TTGlyph>
    <TTGlyph name="Zdotaccent" xMin="57" yMin="0" xMax="1009" yMax="1647">
      <component glyphName="Z" x="0" y="0" flags="0x0"/>
      <component glyphName="uni0307.LP" x="1078" y="320" flags="0x0"/>
    </TTGlyph>
    <TTGlyph name="a" xMin="75" yMin="-30" xMax="956" yMax="960">
      <contour>
        <pt x="372" y="115" on="1"/>
        <pt x="424" y="115" on="0"/>
        <pt x="547" y="170" on="0"/>
        <pt x="623" y="235" on="1"/>
        <pt x="623" y="481" on="1"/>
        <pt x="547" y="469" on="0"/>
        <pt x="447" y="445" on="0"/>
        <pt x="381" y="420" on="0"/>
        <pt x="342" y="393" on="0"/>
        <pt x="327" y="377" on="1"/>
        <pt x="301" y="350" on="0"/>
        <pt x="269" y="284" on="0"/>
        <pt x="269" y="239" on="1"/>
        <pt x="269" y="201" on="0"/>
        <pt x="291" y="153" on="0"/>
        <pt x="323" y="125" on="0"/>
        <pt x="359" y="115" on="0"/>
      </contour>
      <contour>
        <pt x="956" y="92" on="1"/>
        <pt x="871" y="33" on="0"/>
        <pt x="738" y="-30" on="0"/>
        <pt x="707" y="-30" on="1"/>
        <pt x="672" y="-30" on="0"/>
        <pt x="627" y="60" on="0"/>
        <pt x="623" y="139" on="1"/>
        <pt x="578" y="93" on="0"/>
        <pt x="488" y="29" on="0"/>
        <pt x="403" y="-12" on="0"/>
        <pt x="325" y="-30" on="0"/>
        <pt x="293" y="-30" on="1"/>
        <pt x="255" y="-30" on="0"/>
        <pt x="178" y="-5" on="0"/>
        <pt x="115" y="49" on="0"/>
        <pt x="75" y="133" on="0"/>
        <pt x="75" y="191" on="1"/>
        <pt x="75" y="264" on="0"/>
        <pt x="127" y="364" on="0"/>
        <pt x="164" y="401" on="1"/>
        <pt x="188" y="425" on="0"/>
        <pt x="250" y="469" on="0"/>
        <pt x="351" y="509" on="0"/>
        <pt x="506" y="546" on="0"/>
        <pt x="623" y="564" on="1"/>
        <pt x="623" y="697" on="1"/>
        <pt x="623" y="730" on="0"/>
        <pt x="609" y="787" on="0"/>
        <pt x="573" y="828" on="0"/>
        <pt x="513" y="851" on="0"/>
        <pt x="468" y="850" on="1"/>
        <pt x="438" y="850" on="0"/>
        <pt x="382" y="830" on="0"/>
        <pt x="338" y="796" on="0"/>
        <pt x="314" y="747" on="0"/>
        <pt x="317" y="717" on="1"/>
        <pt x="318" y="711" on="0"/>
        <pt x="293" y="695" on="0"/>
        <pt x="254" y="679" on="0"/>
        <pt x="207" y="665" on="0"/>
        <pt x="162" y="655" on="0"/>
        <pt x="125" y="650" on="0"/>
        <pt x="117" y="652" on="1"/>
        <pt x="101" y="696" on="1"/>
        <pt x="124" y="749" on="0"/>
        <pt x="222" y="845" on="0"/>
        <pt x="348" y="917" on="0"/>
        <pt x="492" y="960" on="0"/>
        <pt x="562" y="960" on="1"/>
        <pt x="681" y="960" on="0"/>
        <pt x="803" y="838" on="0"/>
        <pt x="803" y="735" on="1"/>
        <pt x="803" y="198" on="1"/>
        <pt x="803" y="156" on="0"/>
        <pt x="825" y="120" on="0"/>
        <pt x="843" y="120" on="1"/>
        <pt x="857" y="120" on="0"/>
        <pt x="899" y="130" on="0"/>
        <pt x="939" y="147" on="1"/>
      </contour>
    </TTGlyph>
    <TTGlyph name="a.SngStory" xMin="75" yMin="-30" xMax="1037" yMax="960">
      <contour>
        <pt x="1037" y="94" on="1"/>
        <pt x="993" y="65" on="0"/>
        <pt x="913" y="19" on="0"/>
        <pt x="847" y="-13" on="0"/>
        <pt x="801" y="-30" on="0"/>
        <pt x="791" y="-30" on="1"/>
        <pt x="750" y="-30" on="0"/>
        <pt x="710" y="53" on="0"/>
        <pt x="705" y="152" on="1"/>
        <pt x="663" y="101" on="0"/>
        <pt x="590" y="32" on="0"/>
        <pt x="520" y="-11" on="0"/>
        <pt x="447" y="-30" on="0"/>
        <pt x="405" y="-30" on="1"/>
        <pt x="347" y="-30" on="0"/>
        <pt x="230" y="33" on="0"/>
        <pt x="135" y="155" on="0"/>
        <pt x="75" y="330" on="0"/>
        <pt x="75" y="443" on="1"/>
        <pt x="75" y="501" on="0"/>
        <pt x="105" y="623" on="0"/>
        <pt x="161" y="738" on="0"/>
        <pt x="242" y="839" on="0"/>
        <pt x="345" y="916" on="0"/>
        <pt x="469" y="960" on="0"/>
        <pt x="540" y="960" on="1"/>
        <pt x="568" y="960" on="0"/>
        <pt x="616" y="952" on="0"/>
        <pt x="664" y="931" on="0"/>
        <pt x="715" y="894" on="0"/>
        <pt x="747" y="864" on="1"/>
        <pt x="779" y="881" on="0"/>
        <pt x="846" y="928" on="0"/>
        <pt x="880" y="960" on="1"/>
        <pt x="912" y="928" on="1"/>
        <pt x="903" y="897" on="0"/>
        <pt x="897" y="862" on="1"/>
        <pt x="892" y="832" on="0"/>
        <pt x="883" y="755" on="0"/>
        <pt x="883" y="713" on="1"/>
        <pt x="883" y="274" on="1"/>
        <pt x="883" y="214" on="0"/>
        <pt x="892" y="138" on="0"/>
        <pt x="900" y="129" on="1"/>
        <pt x="920" y="103" on="0"/>
        <pt x="1020" y="149" on="1"/>
        <pt x="1020" y="150" on="0"/>
        <pt x="1025" y="133" on="0"/>
        <pt x="1028" y="122" on="1"/>
        <pt x="1032" y="110" on="0"/>
      </contour>
      <contour>
        <pt x="703" y="260" on="1"/>
        <pt x="703" y="721" on="1"/>
        <pt x="674" y="778" on="0"/>
        <pt x="581" y="843" on="0"/>
        <pt x="515" y="843" on="1"/>
        <pt x="459" y="843" on="0"/>
        <pt x="363" y="801" on="0"/>
        <pt x="294" y="713" on="0"/>
        <pt x="255" y="578" on="0"/>
        <pt x="255" y="484" on="1"/>
        <pt x="255" y="399" on="0"/>
        <pt x="298" y="264" on="0"/>
        <pt x="365" y="170" on="0"/>
        <pt x="447" y="120" on="0"/>
        <pt x="487" y="120" on="1"/>
        <pt x="509" y="120" on="0"/>
        <pt x="555" y="135" on="0"/>
        <pt x="606" y="169" on="0"/>
        <pt x="666" y="222" on="0"/>
      </contour>
    </TTGlyph>
    <TTGlyph name="aacute" xMin="75" yMin="-30" xMax="956" yMax="1497">
      <component glyphName="a" x="0" y="0" flags="0x0"/>
      <component glyphName="acutecomb" x="1034" y="0" flags="0x0"/>
    </TTGlyph>
    <TTGlyph name="aacute.SngStory" xMin="75" yMin="-30" xMax="1037" yMax="1497">
      <component glyphName="a.SngStory" x="0" y="0" flags="0x0"/>
      <component glyphName="acutecomb" x="1098" y="0" flags="0x0"/>
    </TTGlyph>
    <TTGlyph name="abreve" xMin="75" yMin="-30" xMax="956" yMax="1415">
      <component glyphName="a" x="0" y="0" flags="0x0"/>
      <component glyphName="uni0306" x="1007" y="0" flags="0x0"/>
    </TTGlyph>
    <TTGlyph name="abreve.SngStory" xMin="75" yMin="-30" xMax="1037" yMax="1415">
      <component glyphName="a.SngStory" x="0" y="0" flags="0x0"/>
      <component glyphName="uni0306" x="1071" y="0" flags="0x0"/>
    </TTGlyph>
    <TTGlyph name="acircumflex" xMin="75" yMin="-30" xMax="956" yMax="1479">
      <component glyphName="a" x="0" y="0" flags="0x0"/>
      <component glyphName="uni0302" x="1006" y="0" flags="0x0"/>
    </TTGlyph>
    <TTGlyph name="acircumflex.SngStory" xMin="75" yMin="-30" xMax="1037" yMax="1479">
      <component glyphName="a.SngStory" x="0" y="0" flags="0x0"/>
      <component glyphName="uni0302" x="1070" y="0" flags="0x0"/>
    </TTGlyph>
    <TTGlyph name="acute" xMin="212" yMin="1045" xMax="637" yMax="1497">
      <contour>
        <pt x="279" y="1045" on="1"/>
        <pt x="261" y="1048" on="0"/>
        <pt x="224" y="1069" on="0"/>
        <pt x="212" y="1078" on="1"/>
        <pt x="439" y="1497" on="1"/>
        <pt x="451" y="1496" on="0"/>
        <pt x="499" y="1490" on="0"/>
        <pt x="552" y="1481" on="0"/>
        <pt x="600" y="1472" on="0"/>
        <pt x="611" y="1469" on="1"/>
        <pt x="637" y="1425" on="1"/>
      </contour>
    </TTGlyph>
    <TTGlyph name="acutecomb" xMin="-658" yMin="1045" xMax="-234" yMax="1497">
      <contour>
        <pt x="-591" y="1045" on="1"/>
        <pt x="-609" y="1048" on="0"/>
        <pt x="-647" y="1069" on="0"/>
        <pt x="-658" y="1078" on="1"/>
        <pt x="-432" y="1497" on="1"/>
        <pt x="-420" y="1496" on="0"/>
        <pt x="-372" y="1490" on="0"/>
        <pt x="-318" y="1481" on="0"/>
        <pt x="-270" y="1472" on="0"/>
        <pt x="-259" y="1469" on="1"/>
        <pt x="-234" y="1425" on="1"/>
      </contour>
    </TTGlyph>
    <TTGlyph name="acutecomb.LP" xMin="-728" yMin="1045" xMax="-201" yMax="1422">
      <contour>
        <pt x="-675" y="1045" on="1"/>
        <pt x="-692" y="1053" on="0"/>
        <pt x="-714" y="1078" on="0"/>
        <pt x="-728" y="1097" on="1"/>
        <pt x="-348" y="1422" on="1"/>
        <pt x="-333" y="1414" on="0"/>
        <pt x="-292" y="1390" on="0"/>
        <pt x="-252" y="1366" on="0"/>
        <pt x="-218" y="1343" on="0"/>
        <pt x="-210" y="1335" on="1"/>
        <pt x="-201" y="1288" on="1"/>
      </contour>
    </TTGlyph>
    <TTGlyph name="adieresis" xMin="75" yMin="-30" xMax="956" yMax="1367">
      <component glyphName="a" x="0" y="0" flags="0x0"/>
      <component glyphName="uni0308" x="1007" y="0" flags="0x0"/>
    </TTGlyph>
    <TTGlyph name="adieresis.SngStory" xMin="75" yMin="-30" xMax="1037" yMax="1367">
      <component glyphName="a.SngStory" x="0" y="0" flags="0x0"/>
      <component glyphName="uni0308" x="1071" y="0" flags="0x0"/>
    </TTGlyph>
    <TTGlyph name="ae" xMin="75" yMin="-30" xMax="1370" yMax="960">
      <contour>
        <pt x="1370" y="555" on="1"/>
        <pt x="1350" y="535" on="0"/>
        <pt x="1283" y="495" on="0"/>
        <pt x="1251" y="482" on="1"/>
        <pt x="803" y="482" on="1"/>
        <pt x="802" y="469" on="0"/>
        <pt x="802" y="454" on="1"/>
        <pt x="802" y="426" on="1"/>
        <pt x="802" y="372" on="0"/>
        <pt x="833" y="261" on="0"/>
        <pt x="893" y="172" on="0"/>
        <pt x="980" y="115" on="0"/>
        <pt x="1036" y="115" on="1"/>
        <pt x="1067" y="115" on="0"/>
        <pt x="1126" y="124" on="0"/>
        <pt x="1191" y="151" on="0"/>
        <pt x="1269" y="202" on="0"/>
        <pt x="1320" y="244" on="1"/>
        <pt x="1333" y="237" on="0"/>
        <pt x="1357" y="203" on="0"/>
        <pt x="1362" y="195" on="1"/>
        <pt x="1302" y="125" on="0"/>
        <pt x="1201" y="37" on="0"/>
        <pt x="1108" y="-12" on="0"/>
        <pt x="1016" y="-30" on="0"/>
        <pt x="965" y="-30" on="1"/>
        <pt x="921" y="-30" on="0"/>
        <pt x="834" y="-2" on="0"/>
        <pt x="755" y="52" on="0"/>
        <pt x="688" y="130" on="0"/>
        <pt x="665" y="180" on="1"/>
        <pt x="621" y="127" on="0"/>
        <pt x="521" y="48" on="0"/>
        <pt x="422" y="-4" on="0"/>
        <pt x="329" y="-30" on="0"/>
        <pt x="293" y="-30" on="1"/>
        <pt x="257" y="-30" on="0"/>
        <pt x="180" y="-6" on="0"/>
        <pt x="116" y="47" on="0"/>
        <pt x="75" y="131" on="0"/>
        <pt x="75" y="191" on="1"/>
        <pt x="75" y="250" on="0"/>
        <pt x="121" y="359" on="0"/>
        <pt x="216" y="452" on="0"/>
        <pt x="362" y="528" on="0"/>
        <pt x="461" y="555" on="1"/>
        <pt x="492" y="563" on="0"/>
        <pt x="580" y="573" on="0"/>
        <pt x="626" y="576" on="1"/>
        <pt x="626" y="660" on="1"/>
        <pt x="626" y="701" on="0"/>
        <pt x="613" y="770" on="0"/>
        <pt x="580" y="821" on="0"/>
        <pt x="523" y="850" on="0"/>
        <pt x="480" y="850" on="1"/>
        <pt x="450" y="850" on="0"/>
        <pt x="382" y="824" on="0"/>
        <pt x="329" y="778" on="0"/>
        <pt x="303" y="717" on="0"/>
        <pt x="316" y="681" on="1"/>
        <pt x="318" y="675" on="0"/>
        <pt x="294" y="659" on="0"/>
        <pt x="255" y="644" on="0"/>
        <pt x="208" y="630" on="0"/>
        <pt x="162" y="620" on="0"/>
        <pt x="125" y="616" on="0"/>
        <pt x="117" y="618" on="1"/>
        <pt x="101" y="659" on="1"/>
        <pt x="111" y="703" on="0"/>
        <pt x="167" y="782" on="0"/>
        <pt x="244" y="849" on="0"/>
        <pt x="336" y="902" on="0"/>
        <pt x="430" y="940" on="0"/>
        <pt x="519" y="960" on="0"/>
        <pt x="553" y="960" on="1"/>
        <pt x="637" y="960" on="0"/>
        <pt x="742" y="896" on="0"/>
        <pt x="768" y="829" on="1"/>
        <pt x="801" y="866" on="0"/>
        <pt x="872" y="916" on="0"/>
        <pt x="944" y="947" on="0"/>
        <pt x="1013" y="960" on="0"/>
        <pt x="1042" y="960" on="1"/>
        <pt x="1133" y="960" on="0"/>
        <pt x="1258" y="887" on="0"/>
        <pt x="1336" y="771" on="0"/>
        <pt x="1370" y="626" on="0"/>
      </contour>
      <contour>
        <pt x="640" y="250" on="1"/>
        <pt x="626" y="306" on="0"/>
        <pt x="626" y="365" on="1"/>
        <pt x="626" y="478" on="1"/>
        <pt x="592" y="476" on="0"/>
        <pt x="537" y="471" on="0"/>
        <pt x="526" y="467" on="1"/>
        <pt x="455" y="450" on="0"/>
        <pt x="356" y="402" on="0"/>
        <pt x="295" y="344" on="0"/>
        <pt x="267" y="276" on="0"/>
        <pt x="267" y="239" on="1"/>
        <pt x="267" y="202" on="0"/>
        <pt x="289" y="154" on="0"/>
        <pt x="322" y="126" on="0"/>
        <pt x="358" y="115" on="0"/>
        <pt x="372" y="115" on="1"/>
        <pt x="424" y="115" on="0"/>
        <pt x="568" y="179" on="0"/>
      </contour>
      <contour>
        <pt x="1013" y="855" on="1"/>
        <pt x="990" y="855" on="0"/>
        <pt x="931" y="835" on="0"/>
        <pt x="873" y="775" on="0"/>
        <pt x="824" y="667" on="0"/>
        <pt x="812" y="580" on="1"/>
        <pt x="1146" y="580" on="1"/>
        <pt x="1167" y="580" on="0"/>
        <pt x="1184" y="595" on="0"/>
        <pt x="1184" y="616" on="1"/>
        <pt x="1184" y="665" on="0"/>
        <pt x="1163" y="753" on="0"/>
        <pt x="1120" y="817" on="0"/>
        <pt x="1056" y="855" on="0"/>
      </contour>
    </TTGlyph>
    <TTGlyph name="aeacute" xMin="75" yMin="-30" xMax="1370" yMax="1497">
      <component glyphName="ae" x="0" y="0" flags="0x0"/>
      <component glyphName="acutecomb" x="1295" y="0" flags="0x0"/>
    </TTGlyph>
    <TTGlyph name="agrave" xMin="75" yMin="-30" xMax="956" yMax="1497">
      <component glyphName="a" x="0" y="0" flags="0x0"/>
      <component glyphName="gravecomb" x="926" y="0" flags="0x0"/>
    </TTGlyph>
    <TTGlyph name="agrave.SngStory" xMin="75" yMin="-30" xMax="1037" yMax="1497">
      <component glyphName="a.SngStory" x="0" y="0" flags="0x0"/>
      <component glyphName="gravecomb" x="990" y="0" flags="0x0"/>
    </TTGlyph>
    <TTGlyph name="amacron" xMin="75" yMin="-30" xMax="956" yMax="1316">
      <component glyphName="a" x="0" y="0" flags="0x0"/>
      <component glyphName="uni0304" x="1017" y="0" flags="0x0"/>
    </TTGlyph>
    <TTGlyph name="amacron.SngStory" xMin="75" yMin="-30" xMax="1037" yMax="1316">
      <component glyphName="a.SngStory" x="0" y="0" flags="0x0"/>
      <component glyphName="uni0304" x="1081" y="0" flags="0x0"/>
    </TTGlyph>
    <TTGlyph name="ampersand" xMin="75" yMin="-30" xMax="1369" yMax="1450">
      <contour>
        <pt x="462" y="1130" on="1"/>
        <pt x="462" y="1073" on="0"/>
        <pt x="494" y="952" on="0"/>
        <pt x="523" y="888" on="1"/>
        <pt x="584" y="923" on="0"/>
        <pt x="662" y="996" on="0"/>
        <pt x="707" y="1068" on="0"/>
        <pt x="724" y="1138" on="0"/>
        <pt x="724" y="1171" on="1"/>
        <pt x="724" y="1206" on="0"/>
        <pt x="706" y="1266" on="0"/>
        <pt x="673" y="1311" on="0"/>
        <pt x="624" y="1336" on="0"/>
        <pt x="593" y="1336" on="1"/>
        <pt x="560" y="1336" on="0"/>
        <pt x="511" y="1301" on="0"/>
        <pt x="478" y="1244" on="0"/>
        <pt x="462" y="1169" on="0"/>
      </contour>
      <contour>
        <pt x="543" y="94" on="1"/>
        <pt x="618" y="94" on="0"/>
        <pt x="749" y="141" on="0"/>
        <pt x="803" y="180" on="1"/>
        <pt x="753" y="230" on="0"/>
        <pt x="650" y="346" on="0"/>
        <pt x="551" y="474" on="0"/>
        <pt x="460" y="611" on="0"/>
        <pt x="422" y="681" on="1"/>
        <pt x="379" y="641" on="0"/>
        <pt x="321" y="565" on="0"/>
        <pt x="285" y="490" on="0"/>
        <pt x="270" y="413" on="0"/>
        <pt x="270" y="373" on="1"/>
        <pt x="270" y="303" on="0"/>
        <pt x="317" y="198" on="0"/>
        <pt x="393" y="129" on="0"/>
        <pt x="492" y="94" on="0"/>
      </contour>
      <contour>
        <pt x="1369" y="748" on="1"/>
        <pt x="1344" y="717" on="0"/>
        <pt x="1290" y="664" on="0"/>
        <pt x="1265" y="647" on="1"/>
        <pt x="1247" y="656" on="0"/>
        <pt x="1202" y="671" on="0"/>
        <pt x="1157" y="682" on="0"/>
        <pt x="1115" y="689" on="0"/>
        <pt x="1098" y="690" on="1"/>
        <pt x="1108" y="673" on="0"/>
        <pt x="1121" y="643" on="0"/>
        <pt x="1129" y="609" on="0"/>
        <pt x="1131" y="569" on="0"/>
        <pt x="1131" y="543" on="1"/>
        <pt x="1131" y="474" on="0"/>
        <pt x="1069" y="318" on="0"/>
        <pt x="1013" y="244" on="1"/>
        <pt x="1042" y="216" on="0"/>
        <pt x="1098" y="167" on="0"/>
        <pt x="1124" y="147" on="1"/>
        <pt x="1167" y="111" on="0"/>
        <pt x="1262" y="90" on="0"/>
        <pt x="1318" y="103" on="1"/>
        <pt x="1329" y="50" on="1"/>
        <pt x="1286" y="31" on="0"/>
        <pt x="1205" y="1" on="0"/>
        <pt x="1138" y="-19" on="0"/>
        <pt x="1090" y="-30" on="0"/>
        <pt x="1079" y="-30" on="1"/>
        <pt x="1056" y="-30" on="0"/>
        <pt x="949" y="43" on="0"/>
        <pt x="879" y="107" on="1"/>
        <pt x="800" y="45" on="0"/>
        <pt x="609" y="-30" on="0"/>
        <pt x="503" y="-30" on="1"/>
        <pt x="406" y="-30" on="0"/>
        <pt x="248" y="19" on="0"/>
        <pt x="136" y="115" on="0"/>
        <pt x="75" y="258" on="0"/>
        <pt x="75" y="352" on="1"/>
        <pt x="75" y="462" on="0"/>
        <pt x="223" y="686" on="0"/>
        <pt x="368" y="791" on="1"/>
        <pt x="337" y="864" on="0"/>
        <pt x="302" y="1005" on="0"/>
        <pt x="302" y="1073" on="1"/>
        <pt x="302" y="1154" on="0"/>
        <pt x="359" y="1292" on="0"/>
        <pt x="454" y="1393" on="0"/>
        <pt x="580" y="1450" on="0"/>
        <pt x="649" y="1450" on="1"/>
        <pt x="716" y="1450" on="0"/>
        <pt x="811" y="1409" on="0"/>
        <pt x="869" y="1341" on="0"/>
        <pt x="896" y="1252" on="0"/>
        <pt x="896" y="1204" on="1"/>
        <pt x="896" y="1152" on="0"/>
        <pt x="856" y="1050" on="0"/>
        <pt x="784" y="955" on="0"/>
        <pt x="685" y="869" on="0"/>
        <pt x="626" y="832" on="1"/>
        <pt x="569" y="795" on="1"/>
        <pt x="604" y="732" on="0"/>
        <pt x="689" y="607" on="0"/>
        <pt x="784" y="487" on="0"/>
        <pt x="883" y="373" on="0"/>
        <pt x="933" y="322" on="1"/>
        <pt x="961" y="367" on="0"/>
        <pt x="990" y="460" on="0"/>
        <pt x="990" y="502" on="1"/>
        <pt x="990" y="544" on="0"/>
        <pt x="963" y="616" on="0"/>
        <pt x="918" y="668" on="0"/>
        <pt x="861" y="698" on="0"/>
        <pt x="832" y="698" on="1"/>
        <pt x="808" y="728" on="1"/>
        <pt x="813" y="734" on="0"/>
        <pt x="832" y="752" on="0"/>
        <pt x="854" y="769" on="0"/>
        <pt x="877" y="783" on="0"/>
        <pt x="887" y="787" on="1"/>
        <pt x="1343" y="787" on="1"/>
      </contour>
    </TTGlyph>
    <TTGlyph name="approxequal" xMin="55" yMin="308" xMax="855" yMax="816">
      <contour>
        <pt x="855" y="478" on="1"/>
        <pt x="804" y="397" on="0"/>
        <pt x="676" y="311" on="0"/>
        <pt x="605" y="311" on="1"/>
        <pt x="563" y="311" on="0"/>
        <pt x="481" y="342" on="0"/>
        <pt x="400" y="378" on="0"/>
        <pt x="319" y="409" on="0"/>
        <pt x="279" y="409" on="1"/>
        <pt x="232" y="409" on="0"/>
        <pt x="157" y="356" on="0"/>
        <pt x="113" y="308" on="1"/>
        <pt x="55" y="370" on="1"/>
        <pt x="106" y="452" on="0"/>
        <pt x="231" y="538" on="0"/>
        <pt x="302" y="538" on="1"/>
        <pt x="347" y="538" on="0"/>
        <pt x="436" y="507" on="0"/>
        <pt x="519" y="471" on="0"/>
        <pt x="594" y="440" on="0"/>
        <pt x="626" y="440" on="1"/>
        <pt x="649" y="440" on="0"/>
        <pt x="696" y="457" on="0"/>
        <pt x="739" y="485" on="0"/>
        <pt x="778" y="522" on="0"/>
        <pt x="793" y="543" on="1"/>
      </contour>
      <contour>
        <pt x="855" y="750" on="1"/>
        <pt x="804" y="669" on="0"/>
        <pt x="676" y="583" on="0"/>
        <pt x="605" y="583" on="1"/>
        <pt x="563" y="583" on="0"/>
        <pt x="481" y="614" on="0"/>
        <pt x="400" y="650" on="0"/>
        <pt x="319" y="681" on="0"/>
        <pt x="279" y="681" on="1"/>
        <pt x="232" y="681" on="0"/>
        <pt x="157" y="628" on="0"/>
        <pt x="113" y="580" on="1"/>
        <pt x="55" y="643" on="1"/>
        <pt x="106" y="725" on="0"/>
        <pt x="231" y="811" on="0"/>
        <pt x="302" y="811" on="1"/>
        <pt x="347" y="811" on="0"/>
        <pt x="436" y="780" on="0"/>
        <pt x="519" y="744" on="0"/>
        <pt x="594" y="713" on="0"/>
        <pt x="626" y="713" on="1"/>
        <pt x="649" y="713" on="0"/>
        <pt x="696" y="730" on="0"/>
        <pt x="739" y="758" on="0"/>
        <pt x="778" y="795" on="0"/>
        <pt x="793" y="816" on="1"/>
      </contour>
    </TTGlyph>
    <TTGlyph name="aring" xMin="75" yMin="-30" xMax="956" yMax="1448">
      <component glyphName="a" x="0" y="0" flags="0x0"/>
      <component glyphName="uni030A" x="1007" y="0" flags="0x0"/>
    </TTGlyph>
    <TTGlyph name="aring.SngStory" xMin="75" yMin="-30" xMax="1037" yMax="1448">
      <component glyphName="a.SngStory" x="0" y="0" flags="0x0"/>
      <component glyphName="uni030A" x="1071" y="0" flags="0x0"/>
    </TTGlyph>
    <TTGlyph name="aringacute" xMin="75" yMin="-30" xMax="956" yMax="1937">
      <component glyphName="a" x="0" y="0" flags="0x0"/>
      <component glyphName="uni030A" x="1007" y="0" flags="0x0"/>
      <component glyphName="acutecomb" x="1034" y="440" flags="0x0"/>
    </TTGlyph>
    <TTGlyph name="aringacute.SngStory" xMin="75" yMin="-30" xMax="1037" yMax="1937">
      <component glyphName="a.SngStory" x="0" y="0" flags="0x0"/>
      <component glyphName="uni030A" x="1071" y="0" flags="0x0"/>
      <component glyphName="acutecomb" x="1098" y="440" flags="0x0"/>
    </TTGlyph>
    <TTGlyph name="asciicircum" xMin="100" yMin="565" xMax="907" yMax="1550">
      <contour>
        <pt x="907" y="635" on="1"/>
        <pt x="882" y="612" on="0"/>
        <pt x="835" y="581" on="0"/>
        <pt x="801" y="565" on="1"/>
        <pt x="764" y="592" on="1"/>
        <pt x="481" y="1315" on="1"/>
        <pt x="231" y="635" on="1"/>
        <pt x="220" y="625" on="0"/>
        <pt x="192" y="604" on="0"/>
        <pt x="162" y="585" on="0"/>
        <pt x="133" y="570" on="0"/>
        <pt x="123" y="565" on="1"/>
        <pt x="100" y="592" on="1"/>
        <pt x="422" y="1462" on="1"/>
        <pt x="434" y="1474" on="0"/>
        <pt x="469" y="1499" on="0"/>
        <pt x="505" y="1523" on="0"/>
        <pt x="541" y="1543" on="0"/>
        <pt x="555" y="1550" on="1"/>
      </contour>
    </TTGlyph>
    <TTGlyph name="asciitilde" xMin="49" yMin="475" xMax="950" yMax="799">
      <contour>
        <pt x="950" y="774" on="1"/>
        <pt x="929" y="725" on="0"/>
        <pt x="865" y="620" on="0"/>
        <pt x="786" y="533" on="0"/>
        <pt x="695" y="477" on="0"/>
        <pt x="647" y="477" on="1"/>
        <pt x="605" y="477" on="0"/>
        <pt x="511" y="527" on="0"/>
        <pt x="414" y="587" on="0"/>
        <pt x="319" y="637" on="0"/>
        <pt x="276" y="637" on="1"/>
        <pt x="227" y="637" on="0"/>
        <pt x="144" y="559" on="0"/>
        <pt x="102" y="475" on="1"/>
        <pt x="49" y="502" on="1"/>
        <pt x="70" y="551" on="0"/>
        <pt x="135" y="656" on="0"/>
        <pt x="214" y="743" on="0"/>
        <pt x="304" y="799" on="0"/>
        <pt x="352" y="799" on="1"/>
        <pt x="398" y="799" on="0"/>
        <pt x="495" y="749" on="0"/>
        <pt x="590" y="689" on="0"/>
        <pt x="681" y="639" on="0"/>
        <pt x="721" y="639" on="1"/>
        <pt x="769" y="639" on="0"/>
        <pt x="855" y="717" on="0"/>
        <pt x="897" y="799" on="1"/>
      </contour>
    </TTGlyph>
    <TTGlyph name="asterisk" xMin="67" yMin="709" xMax="847" yMax="1561">
      <contour>
        <pt x="493" y="1199" on="1"/>
        <pt x="739" y="1391" on="1"/>
        <pt x="749" y="1384" on="0"/>
        <pt x="780" y="1364" on="0"/>
        <pt x="811" y="1341" on="0"/>
        <pt x="839" y="1319" on="0"/>
        <pt x="847" y="1311" on="1"/>
        <pt x="845" y="1265" on="1"/>
        <pt x="531" y="1135" on="1"/>
        <pt x="821" y="1017" on="1"/>
        <pt x="820" y="1005" on="0"/>
        <pt x="818" y="969" on="0"/>
        <pt x="813" y="930" on="0"/>
        <pt x="808" y="895" on="0"/>
        <pt x="804" y="884" on="1"/>
        <pt x="762" y="862" on="1"/>
        <pt x="495" y="1069" on="1"/>
        <pt x="537" y="761" on="1"/>
        <pt x="526" y="755" on="0"/>
        <pt x="494" y="738" on="0"/>
        <pt x="459" y="723" on="0"/>
        <pt x="426" y="711" on="0"/>
        <pt x="415" y="709" on="1"/>
        <pt x="374" y="732" on="1"/>
        <pt x="420" y="1069" on="1"/>
        <pt x="174" y="877" on="1"/>
        <pt x="163" y="884" on="0"/>
        <pt x="132" y="905" on="0"/>
        <pt x="101" y="927" on="0"/>
        <pt x="74" y="949" on="0"/>
        <pt x="67" y="957" on="1"/>
        <pt x="68" y="1004" on="1"/>
        <pt x="383" y="1133" on="1"/>
        <pt x="92" y="1251" on="1"/>
        <pt x="93" y="1263" on="0"/>
        <pt x="95" y="1300" on="0"/>
        <pt x="99" y="1338" on="0"/>
        <pt x="105" y="1373" on="0"/>
        <pt x="108" y="1383" on="1"/>
        <pt x="149" y="1405" on="1"/>
        <pt x="418" y="1198" on="1"/>
        <pt x="375" y="1508" on="1"/>
        <pt x="386" y="1514" on="0"/>
        <pt x="419" y="1530" on="0"/>
        <pt x="455" y="1545" on="0"/>
        <pt x="489" y="1558" on="0"/>
        <pt x="500" y="1561" on="1"/>
        <pt x="538" y="1535" on="1"/>
      </contour>
    </TTGlyph>
    <TTGlyph name="at" xMin="75" yMin="-388" xMax="1626" yMax="1343">
      <contour>
        <pt x="1024" y="731" on="1"/>
        <pt x="1011" y="757" on="0"/>
        <pt x="984" y="798" on="0"/>
        <pt x="949" y="827" on="0"/>
        <pt x="906" y="843" on="0"/>
        <pt x="878" y="843" on="1"/>
        <pt x="775" y="843" on="0"/>
        <pt x="653" y="660" on="0"/>
        <pt x="653" y="473" on="1"/>
        <pt x="653" y="388" on="0"/>
        <pt x="689" y="256" on="0"/>
        <pt x="746" y="166" on="0"/>
        <pt x="815" y="120" on="0"/>
        <pt x="848" y="120" on="1"/>
        <pt x="867" y="120" on="0"/>
        <pt x="902" y="133" on="0"/>
        <pt x="941" y="164" on="0"/>
        <pt x="990" y="218" on="0"/>
        <pt x="1024" y="260" on="1"/>
      </contour>
      <contour>
        <pt x="1626" y="557" on="1"/>
        <pt x="1626" y="471" on="0"/>
        <pt x="1586" y="317" on="0"/>
        <pt x="1519" y="187" on="0"/>
        <pt x="1429" y="82" on="0"/>
        <pt x="1329" y="9" on="0"/>
        <pt x="1225" y="-30" on="0"/>
        <pt x="1177" y="-30" on="1"/>
        <pt x="1151" y="-30" on="0"/>
        <pt x="1104" y="-11" on="0"/>
        <pt x="1066" y="32" on="0"/>
        <pt x="1038" y="102" on="0"/>
        <pt x="1030" y="152" on="1"/>
        <pt x="989" y="98" on="0"/>
        <pt x="927" y="28" on="0"/>
        <pt x="868" y="-14" on="0"/>
        <pt x="807" y="-30" on="0"/>
        <pt x="767" y="-30" on="1"/>
        <pt x="716" y="-30" on="0"/>
        <pt x="611" y="32" on="0"/>
        <pt x="527" y="152" on="0"/>
        <pt x="473" y="328" on="0"/>
        <pt x="473" y="442" on="1"/>
        <pt x="473" y="501" on="0"/>
        <pt x="500" y="624" on="0"/>
        <pt x="552" y="739" on="0"/>
        <pt x="627" y="841" on="0"/>
        <pt x="722" y="916" on="0"/>
        <pt x="838" y="960" on="0"/>
        <pt x="904" y="960" on="1"/>
        <pt x="927" y="960" on="0"/>
        <pt x="966" y="953" on="0"/>
        <pt x="1004" y="933" on="0"/>
        <pt x="1045" y="897" on="0"/>
        <pt x="1071" y="868" on="1"/>
        <pt x="1107" y="885" on="0"/>
        <pt x="1170" y="929" on="0"/>
        <pt x="1203" y="960" on="1"/>
        <pt x="1234" y="930" on="1"/>
        <pt x="1225" y="900" on="0"/>
        <pt x="1219" y="865" on="1"/>
        <pt x="1213" y="835" on="0"/>
        <pt x="1204" y="758" on="0"/>
        <pt x="1204" y="716" on="1"/>
        <pt x="1204" y="285" on="1"/>
        <pt x="1204" y="205" on="0"/>
        <pt x="1253" y="127" on="0"/>
        <pt x="1300" y="127" on="1"/>
        <pt x="1325" y="127" on="0"/>
        <pt x="1388" y="184" on="0"/>
        <pt x="1443" y="286" on="0"/>
        <pt x="1481" y="428" on="0"/>
        <pt x="1481" y="512" on="1"/>
        <pt x="1481" y="681" on="0"/>
        <pt x="1396" y="941" on="0"/>
        <pt x="1243" y="1116" on="0"/>
        <pt x="1030" y="1206" on="0"/>
        <pt x="903" y="1206" on="1"/>
        <pt x="801" y="1206" on="0"/>
        <pt x="625" y="1155" on="0"/>
        <pt x="480" y="1064" on="0"/>
        <pt x="367" y="937" on="0"/>
        <pt x="290" y="785" on="0"/>
        <pt x="250" y="614" on="0"/>
        <pt x="250" y="524" on="1"/>
        <pt x="250" y="401" on="0"/>
        <pt x="300" y="192" on="0"/>
        <pt x="390" y="20" on="0"/>
        <pt x="515" y="-113" on="0"/>
        <pt x="666" y="-203" on="0"/>
        <pt x="837" y="-250" on="0"/>
        <pt x="928" y="-250" on="1"/>
        <pt x="1016" y="-250" on="0"/>
        <pt x="1180" y="-215" on="0"/>
        <pt x="1318" y="-163" on="0"/>
        <pt x="1423" y="-103" on="0"/>
        <pt x="1453" y="-77" on="1"/>
        <pt x="1487" y="-143" on="1"/>
        <pt x="1451" y="-182" on="0"/>
        <pt x="1336" y="-268" on="0"/>
        <pt x="1183" y="-340" on="0"/>
        <pt x="991" y="-388" on="0"/>
        <pt x="879" y="-388" on="1"/>
        <pt x="702" y="-388" on="0"/>
        <pt x="407" y="-269" on="0"/>
        <pt x="194" y="-48" on="0"/>
        <pt x="75" y="268" on="0"/>
        <pt x="75" y="465" on="1"/>
        <pt x="75" y="581" on="0"/>
        <pt x="137" y="801" on="0"/>
        <pt x="250" y="996" on="0"/>
        <pt x="408" y="1159" on="0"/>
        <pt x="601" y="1277" on="0"/>
        <pt x="822" y="1343" on="0"/>
        <pt x="942" y="1343" on="1"/>
        <pt x="1095" y="1343" on="0"/>
        <pt x="1347" y="1243" on="0"/>
        <pt x="1527" y="1046" on="0"/>
        <pt x="1626" y="752" on="0"/>
      </contour>
    </TTGlyph>
    <TTGlyph name="atilde" xMin="75" yMin="-30" xMax="956" yMax="1382">
      <component glyphName="a" x="0" y="0" flags="0x0"/>
      <component glyphName="tildecomb" x="1015" y="0" flags="0x0"/>
    </TTGlyph>
    <TTGlyph name="atilde.SngStory" xMin="75" yMin="-30" xMax="1037" yMax="1382">
      <component glyphName="a.SngStory" x="0" y="0" flags="0x0"/>
      <component glyphName="tildecomb" x="1079" y="0" flags="0x0"/>
    </TTGlyph>
    <TTGlyph name="b" xMin="8" yMin="-30" xMax="975" yMax="1550">
      <contour>
        <pt x="975" y="497" on="1"/>
        <pt x="975" y="439" on="0"/>
        <pt x="941" y="316" on="0"/>
        <pt x="878" y="199" on="0"/>
        <pt x="788" y="94" on="0"/>
        <pt x="678" y="16" on="0"/>
        <pt x="550" y="-30" on="0"/>
        <pt x="479" y="-30" on="1"/>
        <pt x="457" y="-30" on="0"/>
        <pt x="385" y="-12" on="0"/>
        <pt x="294" y="21" on="0"/>
        <pt x="189" y="67" on="0"/>
        <pt x="135" y="96" on="1"/>
        <pt x="135" y="1286" on="1"/>
        <pt x="135" y="1332" on="0"/>
        <pt x="126" y="1382" on="0"/>
        <pt x="99" y="1407" on="0"/>
        <pt x="49" y="1415" on="0"/>
        <pt x="8" y="1420" on="1"/>
        <pt x="8" y="1470" on="1"/>
        <pt x="83" y="1486" on="0"/>
        <pt x="213" y="1519" on="0"/>
        <pt x="276" y="1550" on="1"/>
        <pt x="286" y="1540" on="1"/>
        <pt x="292" y="1534" on="0"/>
        <pt x="299" y="1528" on="1"/>
        <pt x="306" y="1521" on="0"/>
        <pt x="315" y="1514" on="1"/>
        <pt x="315" y="752" on="1"/>
        <pt x="365" y="806" on="0"/>
        <pt x="464" y="885" on="0"/>
        <pt x="554" y="936" on="0"/>
        <pt x="631" y="960" on="0"/>
        <pt x="660" y="960" on="1"/>
        <pt x="730" y="960" on="0"/>
        <pt x="846" y="896" on="0"/>
        <pt x="929" y="776" on="0"/>
        <pt x="975" y="605" on="0"/>
      </contour>
      <contour>
        <pt x="811" y="411" on="1"/>
        <pt x="811" y="511" on="0"/>
        <pt x="772" y="661" on="0"/>
        <pt x="706" y="762" on="0"/>
        <pt x="620" y="813" on="0"/>
        <pt x="572" y="813" on="1"/>
        <pt x="554" y="813" on="0"/>
        <pt x="500" y="796" on="0"/>
        <pt x="432" y="754" on="0"/>
        <pt x="355" y="685" on="0"/>
        <pt x="315" y="633" on="1"/>
        <pt x="315" y="208" on="1"/>
        <pt x="355" y="181" on="0"/>
        <pt x="434" y="145" on="0"/>
        <pt x="504" y="122" on="0"/>
        <pt x="560" y="113" on="0"/>
        <pt x="577" y="113" on="1"/>
        <pt x="635" y="113" on="0"/>
        <pt x="723" y="163" on="0"/>
        <pt x="781" y="246" on="0"/>
        <pt x="811" y="353" on="0"/>
      </contour>
    </TTGlyph>
    <TTGlyph name="backslash" xMin="50" yMin="-335" xMax="910" yMax="1600">
      <contour>
        <pt x="873" y="-335" on="1"/>
        <pt x="843" y="-325" on="1"/>
        <pt x="825" y="-319" on="0"/>
        <pt x="788" y="-304" on="0"/>
        <pt x="755" y="-289" on="0"/>
        <pt x="746" y="-282" on="1"/>
        <pt x="50" y="1576" on="1"/>
        <pt x="90" y="1600" on="1"/>
        <pt x="119" y="1592" on="0"/>
        <pt x="187" y="1566" on="0"/>
        <pt x="215" y="1549" on="1"/>
        <pt x="910" y="-308" on="1"/>
      </contour>
    </TTGlyph>
    <TTGlyph name="bar" xMin="175" yMin="-405" xMax="325" yMax="1670">
      <contour>
        <pt x="325" y="-351" on="1"/>
        <pt x="316" y="-359" on="0"/>
        <pt x="288" y="-375" on="0"/>
        <pt x="257" y="-389" on="0"/>
        <pt x="225" y="-401" on="0"/>
        <pt x="213" y="-405" on="1"/>
        <pt x="175" y="-380" on="1"/>
        <pt x="175" y="1619" on="1"/>
        <pt x="203" y="1636" on="0"/>
        <pt x="258" y="1662" on="0"/>
        <pt x="287" y="1670" on="1"/>
        <pt x="325" y="1646" on="1"/>
      </contour>
    </TTGlyph>
    <TTGlyph name="braceleft" xMin="97" yMin="-315" xMax="664" yMax="1600">
      <contour>
        <pt x="664" y="1543" on="1"/>
        <pt x="625" y="1519" on="0"/>
        <pt x="558" y="1459" on="0"/>
        <pt x="510" y="1387" on="0"/>
        <pt x="482" y="1304" on="0"/>
        <pt x="482" y="1257" on="1"/>
        <pt x="482" y="1219" on="0"/>
        <pt x="488" y="1162" on="0"/>
        <pt x="497" y="1112" on="0"/>
        <pt x="508" y="1068" on="0"/>
        <pt x="517" y="1018" on="0"/>
        <pt x="523" y="960" on="0"/>
        <pt x="523" y="923" on="1"/>
        <pt x="523" y="881" on="0"/>
        <pt x="497" y="800" on="0"/>
        <pt x="448" y="729" on="0"/>
        <pt x="380" y="671" on="0"/>
        <pt x="338" y="653" on="1"/>
        <pt x="438" y="635" on="0"/>
        <pt x="523" y="495" on="0"/>
        <pt x="523" y="385" on="1"/>
        <pt x="523" y="327" on="0"/>
        <pt x="510" y="240" on="0"/>
        <pt x="495" y="163" on="0"/>
        <pt x="482" y="86" on="0"/>
        <pt x="482" y="38" on="1"/>
        <pt x="482" y="-13" on="0"/>
        <pt x="496" y="-91" on="0"/>
        <pt x="534" y="-157" on="0"/>
        <pt x="601" y="-215" on="0"/>
        <pt x="654" y="-244" on="1"/>
        <pt x="626" y="-315" on="1"/>
        <pt x="539" y="-281" on="0"/>
        <pt x="411" y="-208" on="0"/>
        <pt x="327" y="-118" on="0"/>
        <pt x="286" y="-5" on="0"/>
        <pt x="286" y="67" on="1"/>
        <pt x="286" y="124" on="0"/>
        <pt x="299" y="204" on="0"/>
        <pt x="314" y="278" on="0"/>
        <pt x="327" y="362" on="0"/>
        <pt x="327" y="422" on="1"/>
        <pt x="327" y="503" on="0"/>
        <pt x="250" y="581" on="0"/>
        <pt x="179" y="581" on="1"/>
        <pt x="158" y="581" on="1"/>
        <pt x="152" y="581" on="0"/>
        <pt x="142" y="580" on="0"/>
        <pt x="129" y="577" on="0"/>
        <pt x="114" y="575" on="1"/>
        <pt x="97" y="638" on="1"/>
        <pt x="212" y="669" on="0"/>
        <pt x="327" y="788" on="0"/>
        <pt x="327" y="863" on="1"/>
        <pt x="327" y="902" on="0"/>
        <pt x="321" y="961" on="0"/>
        <pt x="312" y="1009" on="0"/>
        <pt x="301" y="1052" on="0"/>
        <pt x="292" y="1101" on="0"/>
        <pt x="286" y="1160" on="0"/>
        <pt x="286" y="1200" on="1"/>
        <pt x="286" y="1267" on="0"/>
        <pt x="336" y="1384" on="0"/>
        <pt x="428" y="1483" on="0"/>
        <pt x="555" y="1566" on="0"/>
        <pt x="633" y="1600" on="1"/>
      </contour>
    </TTGlyph>
    <TTGlyph name="braceright" xMin="34" yMin="-315" xMax="603" yMax="1600">
      <contour>
        <pt x="603" y="646" on="1"/>
        <pt x="486" y="615" on="0"/>
        <pt x="372" y="498" on="0"/>
        <pt x="372" y="422" on="1"/>
        <pt x="372" y="383" on="0"/>
        <pt x="378" y="325" on="0"/>
        <pt x="387" y="276" on="0"/>
        <pt x="397" y="233" on="0"/>
        <pt x="406" y="185" on="0"/>
        <pt x="412" y="126" on="0"/>
        <pt x="412" y="86" on="1"/>
        <pt x="412" y="18" on="0"/>
        <pt x="362" y="-98" on="0"/>
        <pt x="271" y="-198" on="0"/>
        <pt x="143" y="-281" on="0"/>
        <pt x="66" y="-315" on="1"/>
        <pt x="34" y="-257" on="1"/>
        <pt x="73" y="-233" on="0"/>
        <pt x="140" y="-173" on="0"/>
        <pt x="188" y="-101" on="0"/>
        <pt x="216" y="-18" on="0"/>
        <pt x="216" y="29" on="1"/>
        <pt x="216" y="85" on="0"/>
        <pt x="203" y="161" on="0"/>
        <pt x="188" y="230" on="0"/>
        <pt x="176" y="307" on="0"/>
        <pt x="176" y="364" on="1"/>
        <pt x="176" y="405" on="0"/>
        <pt x="202" y="485" on="0"/>
        <pt x="250" y="556" on="0"/>
        <pt x="319" y="613" on="0"/>
        <pt x="362" y="631" on="1"/>
        <pt x="261" y="650" on="0"/>
        <pt x="176" y="790" on="0"/>
        <pt x="176" y="901" on="1"/>
        <pt x="176" y="959" on="0"/>
        <pt x="188" y="1046" on="0"/>
        <pt x="203" y="1123" on="0"/>
        <pt x="216" y="1199" on="0"/>
        <pt x="216" y="1247" on="1"/>
        <pt x="216" y="1298" on="0"/>
        <pt x="202" y="1378" on="0"/>
        <pt x="163" y="1443" on="0"/>
        <pt x="96" y="1500" on="0"/>
        <pt x="44" y="1529" on="1"/>
        <pt x="72" y="1600" on="1"/>
        <pt x="159" y="1567" on="0"/>
        <pt x="287" y="1493" on="0"/>
        <pt x="371" y="1403" on="0"/>
        <pt x="412" y="1291" on="0"/>
        <pt x="412" y="1219" on="1"/>
        <pt x="412" y="1162" on="0"/>
        <pt x="399" y="1082" on="0"/>
        <pt x="384" y="1007" on="0"/>
        <pt x="372" y="924" on="0"/>
        <pt x="372" y="864" on="1"/>
        <pt x="372" y="783" on="0"/>
        <pt x="449" y="705" on="0"/>
        <pt x="521" y="705" on="1"/>
        <pt x="551" y="705" on="1"/>
        <pt x="556" y="705" on="0"/>
        <pt x="563" y="706" on="1"/>
        <pt x="586" y="711" on="1"/>
      </contour>
    </TTGlyph>
    <TTGlyph name="bracketleft" xMin="135" yMin="-335" xMax="615" yMax="1600">
      <contour>
        <pt x="615" y="-242" on="1"/>
        <pt x="613" y="-252" on="0"/>
        <pt x="609" y="-264" on="1"/>
        <pt x="601" y="-289" on="1"/>
        <pt x="597" y="-302" on="0"/>
        <pt x="588" y="-326" on="0"/>
        <pt x="584" y="-335" on="1"/>
        <pt x="135" y="-335" on="1"/>
        <pt x="135" y="1600" on="1"/>
        <pt x="578" y="1600" on="1"/>
        <pt x="613" y="1572" on="1"/>
        <pt x="611" y="1560" on="0"/>
        <pt x="603" y="1531" on="0"/>
        <pt x="595" y="1504" on="0"/>
        <pt x="587" y="1481" on="0"/>
        <pt x="584" y="1475" on="1"/>
        <pt x="305" y="1475" on="1"/>
        <pt x="305" y="-210" on="1"/>
        <pt x="578" y="-210" on="1"/>
      </contour>
    </TTGlyph>
    <TTGlyph name="bracketright" xMin="36" yMin="-335" xMax="515" yMax="1600">
      <contour>
        <pt x="73" y="-335" on="1"/>
        <pt x="38" y="-304" on="1"/>
        <pt x="39" y="-292" on="0"/>
        <pt x="46" y="-265" on="0"/>
        <pt x="54" y="-239" on="0"/>
        <pt x="63" y="-216" on="0"/>
        <pt x="66" y="-210" on="1"/>
        <pt x="345" y="-210" on="1"/>
        <pt x="345" y="1475" on="1"/>
        <pt x="73" y="1475" on="1"/>
        <pt x="36" y="1504" on="1"/>
        <pt x="39" y="1526" on="0"/>
        <pt x="59" y="1583" on="0"/>
        <pt x="66" y="1600" on="1"/>
        <pt x="515" y="1600" on="1"/>
        <pt x="515" y="-335" on="1"/>
      </contour>
    </TTGlyph>
    <TTGlyph name="breve" xMin="30" yMin="1068" xMax="700" yMax="1415">
      <contour>
        <pt x="700" y="1363" on="1"/>
        <pt x="670" y="1282" on="0"/>
        <pt x="594" y="1170" on="0"/>
        <pt x="507" y="1100" on="0"/>
        <pt x="414" y="1068" on="0"/>
        <pt x="367" y="1068" on="1"/>
        <pt x="316" y="1068" on="0"/>
        <pt x="220" y="1100" on="0"/>
        <pt x="135" y="1170" on="0"/>
        <pt x="60" y="1282" on="0"/>
        <pt x="30" y="1363" on="1"/>
        <pt x="42" y="1381" on="0"/>
        <pt x="74" y="1407" on="0"/>
        <pt x="91" y="1415" on="1"/>
        <pt x="116" y="1362" on="0"/>
        <pt x="182" y="1287" on="0"/>
        <pt x="255" y="1241" on="0"/>
        <pt x="330" y="1220" on="0"/>
        <pt x="363" y="1220" on="1"/>
        <pt x="398" y="1220" on="0"/>
        <pt x="475" y="1241" on="0"/>
        <pt x="549" y="1287" on="0"/>
        <pt x="616" y="1362" on="0"/>
        <pt x="640" y="1415" on="1"/>
        <pt x="676" y="1399" on="0"/>
      </contour>
    </TTGlyph>
    <TTGlyph name="brokenbar" xMin="169" yMin="-406" xMax="331" yMax="1670">
      <contour>
        <pt x="331" y="-352" on="1"/>
        <pt x="321" y="-360" on="0"/>
        <pt x="289" y="-376" on="0"/>
        <pt x="255" y="-390" on="0"/>
        <pt x="221" y="-402" on="0"/>
        <pt x="209" y="-406" on="1"/>
        <pt x="169" y="-381" on="1"/>
        <pt x="169" y="487" on="1"/>
        <pt x="198" y="504" on="0"/>
        <pt x="261" y="531" on="0"/>
        <pt x="292" y="541" on="1"/>
        <pt x="331" y="514" on="1"/>
      </contour>
      <contour>
        <pt x="331" y="770" on="1"/>
        <pt x="321" y="762" on="0"/>
        <pt x="289" y="746" on="0"/>
        <pt x="255" y="732" on="0"/>
        <pt x="221" y="720" on="0"/>
        <pt x="209" y="716" on="1"/>
        <pt x="169" y="741" on="1"/>
        <pt x="169" y="1619" on="1"/>
        <pt x="198" y="1636" on="0"/>
        <pt x="261" y="1662" on="0"/>
        <pt x="292" y="1670" on="1"/>
        <pt x="331" y="1646" on="1"/>
      </contour>
    </TTGlyph>
    <TTGlyph name="bullet" xMin="70" yMin="389" xMax="498" yMax="885">
      <contour>
        <pt x="498" y="662" on="1"/>
        <pt x="498" y="601" on="0"/>
        <pt x="463" y="501" on="0"/>
        <pt x="400" y="429" on="0"/>
        <pt x="313" y="389" on="0"/>
        <pt x="260" y="389" on="1"/>
        <pt x="212" y="389" on="0"/>
        <pt x="141" y="422" on="0"/>
        <pt x="94" y="482" on="0"/>
        <pt x="70" y="564" on="0"/>
        <pt x="70" y="612" on="1"/>
        <pt x="70" y="672" on="0"/>
        <pt x="107" y="772" on="0"/>
        <pt x="171" y="845" on="0"/>
        <pt x="258" y="885" on="0"/>
        <pt x="309" y="885" on="1"/>
        <pt x="354" y="885" on="0"/>
        <pt x="425" y="852" on="0"/>
        <pt x="473" y="793" on="0"/>
        <pt x="498" y="711" on="0"/>
      </contour>
    </TTGlyph>
    <TTGlyph name="c" xMin="75" yMin="-30" xMax="858" yMax="960">
      <contour>
        <pt x="858" y="190" on="1"/>
        <pt x="793" y="114" on="0"/>
        <pt x="690" y="27" on="0"/>
        <pt x="601" y="-18" on="0"/>
        <pt x="517" y="-30" on="0"/>
        <pt x="470" y="-30" on="1"/>
        <pt x="394" y="-30" on="0"/>
        <pt x="252" y="35" on="0"/>
        <pt x="142" y="157" on="0"/>
        <pt x="75" y="333" on="0"/>
        <pt x="75" y="444" on="1"/>
        <pt x="75" y="552" on="0"/>
        <pt x="154" y="740" on="0"/>
        <pt x="293" y="879" on="0"/>
        <pt x="484" y="960" on="0"/>
        <pt x="595" y="960" on="1"/>
        <pt x="628" y="960" on="0"/>
        <pt x="702" y="949" on="0"/>
        <pt x="771" y="928" on="0"/>
        <pt x="828" y="899" on="0"/>
        <pt x="845" y="881" on="1"/>
        <pt x="847" y="869" on="0"/>
        <pt x="835" y="815" on="0"/>
        <pt x="814" y="754" on="0"/>
        <pt x="790" y="699" on="0"/>
        <pt x="781" y="685" on="1"/>
        <pt x="734" y="695" on="1"/>
        <pt x="723" y="723" on="0"/>
        <pt x="686" y="777" on="0"/>
        <pt x="631" y="819" on="0"/>
        <pt x="558" y="845" on="0"/>
        <pt x="510" y="845" on="1"/>
        <pt x="460" y="845" on="0"/>
        <pt x="368" y="801" on="0"/>
        <pt x="298" y="709" on="0"/>
        <pt x="255" y="570" on="0"/>
        <pt x="255" y="475" on="1"/>
        <pt x="255" y="392" on="0"/>
        <pt x="303" y="258" on="0"/>
        <pt x="383" y="164" on="0"/>
        <pt x="489" y="113" on="0"/>
        <pt x="547" y="113" on="1"/>
        <pt x="575" y="113" on="0"/>
        <pt x="625" y="119" on="0"/>
        <pt x="683" y="143" on="0"/>
        <pt x="759" y="194" on="0"/>
        <pt x="814" y="239" on="1"/>
      </contour>
    </TTGlyph>
    <TTGlyph name="cacute" xMin="75" yMin="-30" xMax="858" yMax="1497">
      <component glyphName="c" x="0" y="0" flags="0x0"/>
      <component glyphName="acutecomb" x="1039" y="0" flags="0x0"/>
    </TTGlyph>
    <TTGlyph name="caron" xMin="43" yMin="1069" xMax="693" yMax="1488">
      <contour>
        <pt x="426" y="1069" on="1"/>
        <pt x="309" y="1069" on="1"/>
        <pt x="43" y="1434" on="1"/>
        <pt x="57" y="1454" on="0"/>
        <pt x="75" y="1479" on="0"/>
        <pt x="92" y="1488" on="1"/>
        <pt x="369" y="1248" on="1"/>
        <pt x="642" y="1488" on="1"/>
        <pt x="659" y="1479" on="0"/>
        <pt x="680" y="1454" on="0"/>
        <pt x="693" y="1434" on="1"/>
      </contour>
    </TTGlyph>
    <TTGlyph name="ccaron" xMin="75" yMin="-30" xMax="858" yMax="1488">
      <component glyphName="c" x="0" y="0" flags="0x0"/>
      <component glyphName="uni030C" x="1009" y="0" flags="0x0"/>
    </TTGlyph>
    <TTGlyph name="ccedilla" xMin="75" yMin="-444" xMax="858" yMax="960">
      <contour>
        <pt x="673" y="-229" on="1"/>
        <pt x="673" y="-266" on="0"/>
        <pt x="632" y="-334" on="0"/>
        <pt x="550" y="-391" on="0"/>
        <pt x="428" y="-433" on="0"/>
        <pt x="347" y="-444" on="1"/>
        <pt x="320" y="-388" on="1"/>
        <pt x="369" y="-380" on="0"/>
        <pt x="439" y="-354" on="0"/>
        <pt x="482" y="-324" on="0"/>
        <pt x="502" y="-290" on="0"/>
        <pt x="502" y="-274" on="1"/>
        <pt x="502" y="-240" on="0"/>
        <pt x="452" y="-212" on="0"/>
        <pt x="396" y="-207" on="1"/>
        <pt x="398" y="-204" on="0"/>
        <pt x="407" y="-180" on="1"/>
        <pt x="414" y="-160" on="0"/>
        <pt x="429" y="-115" on="1"/>
        <pt x="440" y="-82" on="0"/>
        <pt x="457" y="-30" on="1"/>
        <pt x="388" y="-27" on="0"/>
        <pt x="323" y="2" on="1"/>
        <pt x="252" y="35" on="0"/>
        <pt x="142" y="157" on="0"/>
        <pt x="75" y="333" on="0"/>
        <pt x="75" y="444" on="1"/>
        <pt x="75" y="552" on="0"/>
        <pt x="154" y="740" on="0"/>
        <pt x="293" y="879" on="0"/>
        <pt x="484" y="960" on="0"/>
        <pt x="595" y="960" on="1"/>
        <pt x="628" y="960" on="0"/>
        <pt x="702" y="949" on="0"/>
        <pt x="771" y="928" on="0"/>
        <pt x="828" y="899" on="0"/>
        <pt x="845" y="881" on="1"/>
        <pt x="847" y="869" on="0"/>
        <pt x="835" y="815" on="0"/>
        <pt x="814" y="754" on="0"/>
        <pt x="790" y="699" on="0"/>
        <pt x="781" y="685" on="1"/>
        <pt x="734" y="695" on="1"/>
        <pt x="723" y="723" on="0"/>
        <pt x="686" y="777" on="0"/>
        <pt x="631" y="819" on="0"/>
        <pt x="558" y="845" on="0"/>
        <pt x="510" y="845" on="1"/>
        <pt x="460" y="845" on="0"/>
        <pt x="368" y="801" on="0"/>
        <pt x="298" y="709" on="0"/>
        <pt x="255" y="570" on="0"/>
        <pt x="255" y="475" on="1"/>
        <pt x="255" y="392" on="0"/>
        <pt x="303" y="258" on="0"/>
        <pt x="383" y="164" on="0"/>
        <pt x="489" y="113" on="0"/>
        <pt x="547" y="113" on="1"/>
        <pt x="575" y="113" on="0"/>
        <pt x="625" y="119" on="0"/>
        <pt x="683" y="143" on="0"/>
        <pt x="759" y="194" on="0"/>
        <pt x="814" y="239" on="1"/>
        <pt x="858" y="190" on="1"/>
        <pt x="793" y="114" on="0"/>
        <pt x="690" y="27" on="0"/>
        <pt x="601" y="-18" on="0"/>
        <pt x="559" y="-24" on="1"/>
        <pt x="551" y="-25" on="1"/>
        <pt x="525" y="-99" on="1"/>
        <pt x="555" y="-105" on="0"/>
        <pt x="609" y="-126" on="0"/>
        <pt x="650" y="-158" on="0"/>
        <pt x="673" y="-201" on="0"/>
      </contour>
    </TTGlyph>
    <TTGlyph name="ccircumflex" xMin="75" yMin="-30" xMax="858" yMax="1479">
      <component glyphName="c" x="0" y="0" flags="0x0"/>
      <component glyphName="uni0302" x="1011" y="0" flags="0x0"/>
    </TTGlyph>
    <TTGlyph name="cdotaccent" xMin="75" yMin="-30" xMax="858" yMax="1367">
      <component glyphName="c" x="0" y="0" flags="0x0"/>
      <component glyphName="uni0307" x="1012" y="0" flags="0x0"/>
    </TTGlyph>
    <TTGlyph name="cedilla" xMin="71" yMin="-444" xMax="423" yMax="14">
      <contour>
        <pt x="423" y="-229" on="1"/>
        <pt x="423" y="-266" on="0"/>
        <pt x="382" y="-334" on="0"/>
        <pt x="300" y="-391" on="0"/>
        <pt x="179" y="-433" on="0"/>
        <pt x="98" y="-444" on="1"/>
        <pt x="71" y="-388" on="1"/>
        <pt x="120" y="-380" on="0"/>
        <pt x="189" y="-354" on="0"/>
        <pt x="233" y="-324" on="0"/>
        <pt x="253" y="-290" on="0"/>
        <pt x="253" y="-274" on="1"/>
        <pt x="253" y="-240" on="0"/>
        <pt x="203" y="-212" on="0"/>
        <pt x="146" y="-207" on="1"/>
        <pt x="148" y="-204" on="0"/>
        <pt x="157" y="-180" on="1"/>
        <pt x="164" y="-160" on="0"/>
        <pt x="195" y="-70" on="0"/>
        <pt x="222" y="14" on="1"/>
        <pt x="315" y="12" on="1"/>
        <pt x="276" y="-99" on="1"/>
        <pt x="306" y="-105" on="0"/>
        <pt x="360" y="-126" on="0"/>
        <pt x="400" y="-158" on="0"/>
        <pt x="423" y="-201" on="0"/>
      </contour>
    </TTGlyph>
    <TTGlyph name="cent" xMin="99" yMin="-41" xMax="892" yMax="1245">
      <contour>
        <pt x="274" y="616" on="1"/>
        <pt x="274" y="547" on="0"/>
        <pt x="306" y="435" on="0"/>
        <pt x="362" y="351" on="0"/>
        <pt x="438" y="295" on="0"/>
        <pt x="483" y="281" on="1"/>
        <pt x="483" y="958" on="1"/>
        <pt x="441" y="949" on="0"/>
        <pt x="365" y="900" on="0"/>
        <pt x="308" y="816" on="0"/>
        <pt x="274" y="696" on="0"/>
      </contour>
      <contour>
        <pt x="583" y="-3" on="1"/>
        <pt x="565" y="-19" on="0"/>
        <pt x="534" y="-33" on="0"/>
        <pt x="510" y="-41" on="1"/>
        <pt x="483" y="-14" on="1"/>
        <pt x="483" y="129" on="1"/>
        <pt x="413" y="133" on="0"/>
        <pt x="275" y="195" on="0"/>
        <pt x="166" y="311" on="0"/>
        <pt x="99" y="478" on="0"/>
        <pt x="99" y="586" on="1"/>
        <pt x="99" y="674" on="0"/>
        <pt x="155" y="830" on="0"/>
        <pt x="257" y="954" on="0"/>
        <pt x="398" y="1041" on="0"/>
        <pt x="483" y="1062" on="1"/>
        <pt x="483" y="1209" on="1"/>
        <pt x="497" y="1218" on="0"/>
        <pt x="511" y="1228" on="0"/>
        <pt x="523" y="1236" on="0"/>
        <pt x="539" y="1241" on="0"/>
        <pt x="554" y="1245" on="1"/>
        <pt x="583" y="1221" on="1"/>
        <pt x="583" y="1077" on="1"/>
        <pt x="594" y="1078" on="0"/>
        <pt x="616" y="1079" on="0"/>
        <pt x="627" y="1079" on="1"/>
        <pt x="660" y="1079" on="0"/>
        <pt x="735" y="1068" on="0"/>
        <pt x="805" y="1047" on="0"/>
        <pt x="863" y="1018" on="0"/>
        <pt x="880" y="999" on="1"/>
        <pt x="882" y="988" on="0"/>
        <pt x="870" y="939" on="0"/>
        <pt x="849" y="884" on="0"/>
        <pt x="825" y="834" on="0"/>
        <pt x="816" y="821" on="1"/>
        <pt x="771" y="833" on="1"/>
        <pt x="763" y="848" on="0"/>
        <pt x="732" y="888" on="0"/>
        <pt x="686" y="925" on="0"/>
        <pt x="623" y="955" on="0"/>
        <pt x="583" y="961" on="1"/>
        <pt x="583" y="267" on="1"/>
        <pt x="611" y="267" on="0"/>
        <pt x="661" y="276" on="0"/>
        <pt x="720" y="304" on="0"/>
        <pt x="794" y="358" on="0"/>
        <pt x="845" y="404" on="1"/>
        <pt x="892" y="353" on="1"/>
        <pt x="841" y="294" on="0"/>
        <pt x="757" y="214" on="0"/>
        <pt x="684" y="164" on="0"/>
        <pt x="617" y="139" on="0"/>
        <pt x="583" y="134" on="1"/>
      </contour>
    </TTGlyph>
    <TTGlyph name="circumflex" xMin="39" yMin="1045" xMax="690" yMax="1479">
      <contour>
        <pt x="690" y="1097" on="1"/>
        <pt x="678" y="1078" on="0"/>
        <pt x="659" y="1053" on="0"/>
        <pt x="642" y="1045" on="1"/>
        <pt x="365" y="1298" on="1"/>
        <pt x="92" y="1045" on="1"/>
        <pt x="75" y="1053" on="0"/>
        <pt x="53" y="1078" on="0"/>
        <pt x="39" y="1097" on="1"/>
        <pt x="308" y="1479" on="1"/>
        <pt x="425" y="1479" on="1"/>
      </contour>
    </TTGlyph>
    <TTGlyph name="colon" xMin="131" yMin="-40" xMax="399" yMax="960">
      <contour>
        <pt x="399" y="840" on="1"/>
        <pt x="399" y="804" on="0"/>
        <pt x="375" y="743" on="0"/>
        <pt x="334" y="699" on="0"/>
        <pt x="278" y="674" on="0"/>
        <pt x="246" y="674" on="1"/>
        <pt x="191" y="674" on="0"/>
        <pt x="131" y="734" on="0"/>
        <pt x="131" y="794" on="1"/>
        <pt x="131" y="830" on="0"/>
        <pt x="156" y="890" on="0"/>
        <pt x="198" y="935" on="0"/>
        <pt x="254" y="960" on="0"/>
        <pt x="285" y="960" on="1"/>
        <pt x="337" y="960" on="0"/>
        <pt x="399" y="900" on="0"/>
      </contour>
      <contour>
        <pt x="399" y="126" on="1"/>
        <pt x="399" y="90" on="0"/>
        <pt x="375" y="29" on="0"/>
        <pt x="334" y="-15" on="0"/>
        <pt x="278" y="-40" on="0"/>
        <pt x="246" y="-40" on="1"/>
        <pt x="191" y="-40" on="0"/>
        <pt x="131" y="20" on="0"/>
        <pt x="131" y="80" on="1"/>
        <pt x="131" y="116" on="0"/>
        <pt x="156" y="176" on="0"/>
        <pt x="198" y="221" on="0"/>
        <pt x="254" y="246" on="0"/>
        <pt x="285" y="246" on="1"/>
        <pt x="337" y="246" on="0"/>
        <pt x="399" y="186" on="0"/>
      </contour>
    </TTGlyph>
    <TTGlyph name="comma" xMin="88" yMin="-330" xMax="420" yMax="240">
      <contour>
        <pt x="420" y="70" on="1"/>
        <pt x="420" y="26" on="0"/>
        <pt x="384" y="-81" on="0"/>
        <pt x="319" y="-189" on="0"/>
        <pt x="229" y="-291" on="0"/>
        <pt x="174" y="-330" on="1"/>
        <pt x="121" y="-290" on="1"/>
        <pt x="149" y="-258" on="0"/>
        <pt x="190" y="-195" on="0"/>
        <pt x="217" y="-129" on="0"/>
        <pt x="231" y="-56" on="0"/>
        <pt x="231" y="-13" on="1"/>
        <pt x="231" y="32" on="0"/>
        <pt x="168" y="91" on="0"/>
        <pt x="104" y="87" on="1"/>
        <pt x="88" y="144" on="1"/>
        <pt x="97" y="156" on="0"/>
        <pt x="160" y="189" on="0"/>
        <pt x="238" y="219" on="0"/>
        <pt x="314" y="240" on="0"/>
        <pt x="334" y="239" on="1"/>
        <pt x="382" y="216" on="0"/>
        <pt x="420" y="134" on="0"/>
      </contour>
    </TTGlyph>
    <TTGlyph name="copyright" xMin="95" yMin="-30" xMax="1377" yMax="1313">
      <contour>
        <pt x="1035" y="383" on="1"/>
        <pt x="987" y="335" on="0"/>
        <pt x="903" y="273" on="0"/>
        <pt x="824" y="237" on="0"/>
        <pt x="750" y="223" on="0"/>
        <pt x="713" y="223" on="1"/>
        <pt x="647" y="223" on="0"/>
        <pt x="519" y="277" on="0"/>
        <pt x="420" y="377" on="0"/>
        <pt x="359" y="522" on="0"/>
        <pt x="359" y="614" on="1"/>
        <pt x="359" y="712" on="0"/>
        <pt x="427" y="876" on="0"/>
        <pt x="545" y="994" on="0"/>
        <pt x="704" y="1060" on="0"/>
        <pt x="795" y="1060" on="1"/>
        <pt x="867" y="1060" on="0"/>
        <pt x="987" y="1020" on="0"/>
        <pt x="1022" y="993" on="1"/>
        <pt x="1025" y="988" on="0"/>
        <pt x="1012" y="951" on="0"/>
        <pt x="990" y="906" on="0"/>
        <pt x="965" y="865" on="0"/>
        <pt x="956" y="857" on="1"/>
        <pt x="922" y="862" on="1"/>
        <pt x="907" y="883" on="0"/>
        <pt x="871" y="922" on="0"/>
        <pt x="828" y="952" on="0"/>
        <pt x="775" y="971" on="0"/>
        <pt x="743" y="971" on="1"/>
        <pt x="708" y="971" on="0"/>
        <pt x="627" y="938" on="0"/>
        <pt x="558" y="861" on="0"/>
        <pt x="513" y="734" on="0"/>
        <pt x="513" y="641" on="1"/>
        <pt x="513" y="565" on="0"/>
        <pt x="567" y="448" on="0"/>
        <pt x="649" y="368" on="0"/>
        <pt x="745" y="327" on="0"/>
        <pt x="788" y="327" on="1"/>
        <pt x="810" y="327" on="0"/>
        <pt x="853" y="334" on="0"/>
        <pt x="902" y="355" on="0"/>
        <pt x="962" y="391" on="0"/>
        <pt x="1002" y="420" on="1"/>
        <pt x="1005" y="419" on="0"/>
        <pt x="1014" y="408" on="0"/>
        <pt x="1024" y="395" on="0"/>
        <pt x="1033" y="384" on="0"/>
      </contour>
      <contour>
        <pt x="1280" y="643" on="1"/>
        <pt x="1280" y="761" on="0"/>
        <pt x="1199" y="970" on="0"/>
        <pt x="1054" y="1126" on="0"/>
        <pt x="854" y="1216" on="0"/>
        <pt x="735" y="1216" on="1"/>
        <pt x="617" y="1216" on="0"/>
        <pt x="418" y="1126" on="0"/>
        <pt x="273" y="970" on="0"/>
        <pt x="192" y="761" on="0"/>
        <pt x="192" y="643" on="1"/>
        <pt x="192" y="524" on="0"/>
        <pt x="273" y="314" on="0"/>
        <pt x="418" y="158" on="0"/>
        <pt x="617" y="68" on="0"/>
        <pt x="735" y="68" on="1"/>
        <pt x="854" y="68" on="0"/>
        <pt x="1054" y="158" on="0"/>
        <pt x="1199" y="314" on="0"/>
        <pt x="1280" y="524" on="0"/>
      </contour>
      <contour>
        <pt x="1377" y="643" on="1"/>
        <pt x="1377" y="550" on="0"/>
        <pt x="1333" y="378" on="0"/>
        <pt x="1253" y="228" on="0"/>
        <pt x="1138" y="106" on="0"/>
        <pt x="995" y="18" on="0"/>
        <pt x="828" y="-30" on="0"/>
        <pt x="735" y="-30" on="1"/>
        <pt x="642" y="-30" on="0"/>
        <pt x="476" y="18" on="0"/>
        <pt x="334" y="106" on="0"/>
        <pt x="219" y="228" on="0"/>
        <pt x="138" y="378" on="0"/>
        <pt x="95" y="550" on="0"/>
        <pt x="95" y="643" on="1"/>
        <pt x="95" y="782" on="0"/>
        <pt x="191" y="1026" on="0"/>
        <pt x="362" y="1208" on="0"/>
        <pt x="596" y="1313" on="0"/>
        <pt x="735" y="1313" on="1"/>
        <pt x="874" y="1313" on="0"/>
        <pt x="1110" y="1208" on="0"/>
        <pt x="1281" y="1026" on="0"/>
        <pt x="1377" y="782" on="0"/>
      </contour>
    </TTGlyph>
    <TTGlyph name="currency" xMin="139" yMin="247" xMax="848" yMax="956">
      <contour>
        <pt x="364" y="733" on="1"/>
        <pt x="337" y="706" on="0"/>
        <pt x="309" y="636" on="0"/>
        <pt x="309" y="601" on="1"/>
        <pt x="309" y="566" on="0"/>
        <pt x="336" y="499" on="0"/>
        <pt x="363" y="472" on="1"/>
        <pt x="391" y="444" on="0"/>
        <pt x="459" y="417" on="0"/>
        <pt x="495" y="417" on="1"/>
        <pt x="530" y="417" on="0"/>
        <pt x="598" y="444" on="0"/>
        <pt x="625" y="471" on="1"/>
        <pt x="651" y="499" on="0"/>
        <pt x="679" y="567" on="0"/>
        <pt x="679" y="602" on="1"/>
        <pt x="679" y="637" on="0"/>
        <pt x="651" y="706" on="0"/>
        <pt x="624" y="733" on="1"/>
        <pt x="597" y="760" on="0"/>
        <pt x="530" y="787" on="0"/>
        <pt x="495" y="787" on="1"/>
        <pt x="459" y="787" on="0"/>
        <pt x="391" y="760" on="0"/>
      </contour>
      <contour>
        <pt x="776" y="248" on="1"/>
        <pt x="660" y="363" on="1"/>
        <pt x="623" y="337" on="0"/>
        <pt x="539" y="313" on="0"/>
        <pt x="495" y="313" on="1"/>
        <pt x="450" y="313" on="0"/>
        <pt x="365" y="338" on="0"/>
        <pt x="327" y="364" on="1"/>
        <pt x="209" y="247" on="1"/>
        <pt x="173" y="249" on="1"/>
        <pt x="165" y="264" on="0"/>
        <pt x="146" y="300" on="0"/>
        <pt x="139" y="317" on="1"/>
        <pt x="256" y="435" on="1"/>
        <pt x="230" y="472" on="0"/>
        <pt x="205" y="555" on="0"/>
        <pt x="205" y="600" on="1"/>
        <pt x="205" y="645" on="0"/>
        <pt x="231" y="730" on="0"/>
        <pt x="257" y="768" on="1"/>
        <pt x="140" y="886" on="1"/>
        <pt x="142" y="922" on="1"/>
        <pt x="157" y="930" on="0"/>
        <pt x="193" y="948" on="0"/>
        <pt x="210" y="956" on="1"/>
        <pt x="327" y="838" on="1"/>
        <pt x="405" y="893" on="0"/>
        <pt x="495" y="893" on="1"/>
        <pt x="583" y="893" on="0"/>
        <pt x="660" y="839" on="1"/>
        <pt x="776" y="955" on="1"/>
        <pt x="813" y="956" on="1"/>
        <pt x="846" y="884" on="1"/>
        <pt x="730" y="768" on="1"/>
        <pt x="784" y="691" on="0"/>
        <pt x="784" y="600" on="1"/>
        <pt x="784" y="510" on="0"/>
        <pt x="731" y="434" on="1"/>
        <pt x="847" y="318" on="1"/>
        <pt x="848" y="281" on="1"/>
      </contour>
    </TTGlyph>
    <TTGlyph name="d" xMin="75" yMin="-30" xMax="1081" yMax="1550">
      <contour>
        <pt x="1081" y="94" on="1"/>
        <pt x="988" y="32" on="0"/>
        <pt x="862" y="-30" on="0"/>
        <pt x="834" y="-30" on="1"/>
        <pt x="799" y="-30" on="0"/>
        <pt x="756" y="60" on="0"/>
        <pt x="748" y="161" on="1"/>
        <pt x="707" y="115" on="0"/>
        <pt x="633" y="44" on="0"/>
        <pt x="555" y="-5" on="0"/>
        <pt x="471" y="-30" on="0"/>
        <pt x="421" y="-30" on="1"/>
        <pt x="362" y="-30" on="0"/>
        <pt x="239" y="35" on="0"/>
        <pt x="139" y="157" on="0"/>
        <pt x="75" y="333" on="0"/>
        <pt x="75" y="444" on="1"/>
        <pt x="75" y="505" on="0"/>
        <pt x="106" y="628" on="0"/>
        <pt x="165" y="743" on="0"/>
        <pt x="250" y="843" on="0"/>
        <pt x="356" y="917" on="0"/>
        <pt x="481" y="960" on="0"/>
        <pt x="551" y="960" on="1"/>
        <pt x="598" y="960" on="0"/>
        <pt x="691" y="937" on="0"/>
        <pt x="745" y="899" on="1"/>
        <pt x="745" y="1264" on="1"/>
        <pt x="745" y="1319" on="0"/>
        <pt x="740" y="1384" on="0"/>
        <pt x="713" y="1419" on="0"/>
        <pt x="656" y="1432" on="0"/>
        <pt x="603" y="1436" on="1"/>
        <pt x="603" y="1485" on="1"/>
        <pt x="694" y="1496" on="0"/>
        <pt x="840" y="1533" on="0"/>
        <pt x="892" y="1550" on="1"/>
        <pt x="925" y="1518" on="1"/>
        <pt x="925" y="269" on="1"/>
        <pt x="925" y="234" on="0"/>
        <pt x="928" y="185" on="0"/>
        <pt x="934" y="152" on="0"/>
        <pt x="942" y="132" on="0"/>
        <pt x="948" y="126" on="1"/>
        <pt x="953" y="121" on="0"/>
        <pt x="968" y="118" on="0"/>
        <pt x="995" y="123" on="0"/>
        <pt x="1034" y="135" on="0"/>
        <pt x="1063" y="147" on="1"/>
      </contour>
      <contour>
        <pt x="745" y="263" on="1"/>
        <pt x="745" y="722" on="1"/>
        <pt x="711" y="780" on="0"/>
        <pt x="596" y="843" on="0"/>
        <pt x="525" y="843" on="1"/>
        <pt x="466" y="843" on="0"/>
        <pt x="367" y="799" on="0"/>
        <pt x="295" y="709" on="0"/>
        <pt x="255" y="574" on="0"/>
        <pt x="255" y="483" on="1"/>
        <pt x="255" y="400" on="0"/>
        <pt x="301" y="265" on="0"/>
        <pt x="373" y="171" on="0"/>
        <pt x="461" y="120" on="0"/>
        <pt x="502" y="120" on="1"/>
        <pt x="534" y="120" on="0"/>
        <pt x="595" y="143" on="0"/>
        <pt x="655" y="182" on="0"/>
        <pt x="715" y="234" on="0"/>
      </contour>
    </TTGlyph>
    <TTGlyph name="dagger" xMin="65" yMin="-40" xMax="922" yMax="1480">
      <contour>
        <pt x="922" y="1087" on="1"/>
        <pt x="915" y="1070" on="0"/>
        <pt x="892" y="1022" on="0"/>
        <pt x="865" y="971" on="0"/>
        <pt x="837" y="921" on="0"/>
        <pt x="825" y="902" on="1"/>
        <pt x="757" y="930" on="0"/>
        <pt x="624" y="960" on="0"/>
        <pt x="542" y="965" on="1"/>
        <pt x="544" y="896" on="0"/>
        <pt x="568" y="749" on="0"/>
        <pt x="591" y="680" on="1"/>
        <pt x="566" y="569" on="0"/>
        <pt x="544" y="354" on="0"/>
        <pt x="542" y="258" on="1"/>
        <pt x="541" y="200" on="0"/>
        <pt x="554" y="73" on="0"/>
        <pt x="567" y="12" on="1"/>
        <pt x="558" y="5" on="0"/>
        <pt x="527" y="-10" on="0"/>
        <pt x="492" y="-24" on="0"/>
        <pt x="458" y="-36" on="0"/>
        <pt x="446" y="-40" on="1"/>
        <pt x="414" y="-17" on="1"/>
        <pt x="426" y="51" on="0"/>
        <pt x="442" y="197" on="0"/>
        <pt x="441" y="258" on="1"/>
        <pt x="439" y="357" on="0"/>
        <pt x="417" y="570" on="0"/>
        <pt x="391" y="680" on="1"/>
        <pt x="414" y="749" on="0"/>
        <pt x="437" y="896" on="0"/>
        <pt x="440" y="965" on="1"/>
        <pt x="348" y="960" on="0"/>
        <pt x="183" y="929" on="0"/>
        <pt x="93" y="902" on="1"/>
        <pt x="65" y="948" on="1"/>
        <pt x="72" y="965" on="0"/>
        <pt x="95" y="1012" on="0"/>
        <pt x="122" y="1063" on="0"/>
        <pt x="150" y="1113" on="0"/>
        <pt x="162" y="1132" on="1"/>
        <pt x="228" y="1104" on="0"/>
        <pt x="359" y="1076" on="0"/>
        <pt x="440" y="1071" on="1"/>
        <pt x="437" y="1158" on="0"/>
        <pt x="407" y="1313" on="0"/>
        <pt x="376" y="1386" on="1"/>
        <pt x="395" y="1398" on="0"/>
        <pt x="445" y="1425" on="0"/>
        <pt x="496" y="1451" on="0"/>
        <pt x="544" y="1473" on="0"/>
        <pt x="561" y="1480" on="1"/>
        <pt x="606" y="1453" on="1"/>
        <pt x="578" y="1360" on="0"/>
        <pt x="549" y="1165" on="0"/>
        <pt x="544" y="1071" on="1"/>
        <pt x="637" y="1076" on="0"/>
        <pt x="804" y="1105" on="0"/>
        <pt x="895" y="1132" on="1"/>
      </contour>
    </TTGlyph>
    <TTGlyph name="daggerdbl" xMin="65" yMin="-40" xMax="922" yMax="1480">
      <contour>
        <pt x="922" y="1087" on="1"/>
        <pt x="915" y="1070" on="0"/>
        <pt x="892" y="1022" on="0"/>
        <pt x="865" y="971" on="0"/>
        <pt x="837" y="921" on="0"/>
        <pt x="825" y="902" on="1"/>
        <pt x="757" y="928" on="0"/>
        <pt x="626" y="959" on="0"/>
        <pt x="544" y="964" on="1"/>
        <pt x="546" y="903" on="0"/>
        <pt x="570" y="787" on="0"/>
        <pt x="593" y="720" on="1"/>
        <pt x="571" y="655" on="0"/>
        <pt x="549" y="533" on="0"/>
        <pt x="546" y="476" on="1"/>
        <pt x="639" y="481" on="0"/>
        <pt x="805" y="511" on="0"/>
        <pt x="895" y="538" on="1"/>
        <pt x="922" y="493" on="1"/>
        <pt x="915" y="476" on="0"/>
        <pt x="892" y="428" on="0"/>
        <pt x="865" y="377" on="0"/>
        <pt x="837" y="327" on="0"/>
        <pt x="825" y="308" on="1"/>
        <pt x="759" y="331" on="0"/>
        <pt x="626" y="364" on="0"/>
        <pt x="544" y="370" on="1"/>
        <pt x="545" y="323" on="0"/>
        <pt x="554" y="241" on="0"/>
        <pt x="569" y="165" on="0"/>
        <pt x="592" y="92" on="0"/>
        <pt x="608" y="55" on="1"/>
        <pt x="589" y="43" on="0"/>
        <pt x="539" y="15" on="0"/>
        <pt x="488" y="-11" on="0"/>
        <pt x="441" y="-33" on="0"/>
        <pt x="424" y="-40" on="1"/>
        <pt x="378" y="-13" on="1"/>
        <pt x="407" y="83" on="0"/>
        <pt x="439" y="270" on="0"/>
        <pt x="442" y="370" on="1"/>
        <pt x="349" y="365" on="0"/>
        <pt x="183" y="334" on="0"/>
        <pt x="93" y="308" on="1"/>
        <pt x="65" y="354" on="1"/>
        <pt x="72" y="371" on="0"/>
        <pt x="95" y="418" on="0"/>
        <pt x="122" y="469" on="0"/>
        <pt x="150" y="519" on="0"/>
        <pt x="162" y="538" on="1"/>
        <pt x="229" y="509" on="0"/>
        <pt x="360" y="481" on="0"/>
        <pt x="441" y="476" on="1"/>
        <pt x="437" y="534" on="0"/>
        <pt x="415" y="656" on="0"/>
        <pt x="393" y="720" on="1"/>
        <pt x="416" y="788" on="0"/>
        <pt x="439" y="904" on="0"/>
        <pt x="442" y="965" on="1"/>
        <pt x="349" y="959" on="0"/>
        <pt x="183" y="928" on="0"/>
        <pt x="93" y="902" on="1"/>
        <pt x="65" y="948" on="1"/>
        <pt x="72" y="965" on="0"/>
        <pt x="95" y="1012" on="0"/>
        <pt x="122" y="1063" on="0"/>
        <pt x="150" y="1113" on="0"/>
        <pt x="162" y="1132" on="1"/>
        <pt x="229" y="1103" on="0"/>
        <pt x="360" y="1076" on="0"/>
        <pt x="442" y="1071" on="1"/>
        <pt x="438" y="1162" on="0"/>
        <pt x="406" y="1312" on="0"/>
        <pt x="378" y="1386" on="1"/>
        <pt x="397" y="1398" on="0"/>
        <pt x="447" y="1425" on="0"/>
        <pt x="498" y="1451" on="0"/>
        <pt x="546" y="1473" on="0"/>
        <pt x="563" y="1480" on="1"/>
        <pt x="608" y="1453" on="1"/>
        <pt x="583" y="1359" on="0"/>
        <pt x="551" y="1169" on="0"/>
        <pt x="546" y="1071" on="1"/>
        <pt x="638" y="1076" on="0"/>
        <pt x="805" y="1105" on="0"/>
        <pt x="895" y="1132" on="1"/>
      </contour>
    </TTGlyph>
    <TTGlyph name="dcroat" xMin="75" yMin="-31" xMax="1092" yMax="1550">
      <contour>
        <pt x="1081" y="94" on="1"/>
        <pt x="988" y="32" on="0"/>
        <pt x="862" y="-31" on="0"/>
        <pt x="834" y="-31" on="1"/>
        <pt x="799" y="-31" on="0"/>
        <pt x="756" y="60" on="0"/>
        <pt x="748" y="161" on="1"/>
        <pt x="707" y="115" on="0"/>
        <pt x="633" y="44" on="0"/>
        <pt x="555" y="-5" on="0"/>
        <pt x="471" y="-30" on="0"/>
        <pt x="421" y="-30" on="1"/>
        <pt x="362" y="-30" on="0"/>
        <pt x="239" y="35" on="0"/>
        <pt x="139" y="157" on="0"/>
        <pt x="75" y="333" on="0"/>
        <pt x="75" y="444" on="1"/>
        <pt x="75" y="505" on="0"/>
        <pt x="106" y="628" on="0"/>
        <pt x="165" y="743" on="0"/>
        <pt x="250" y="843" on="0"/>
        <pt x="356" y="917" on="0"/>
        <pt x="481" y="960" on="0"/>
        <pt x="551" y="960" on="1"/>
        <pt x="598" y="960" on="0"/>
        <pt x="691" y="937" on="0"/>
        <pt x="745" y="899" on="1"/>
        <pt x="745" y="1131" on="1"/>
        <pt x="462" y="1131" on="1"/>
        <pt x="439" y="1153" on="1"/>
        <pt x="444" y="1169" on="0"/>
        <pt x="458" y="1215" on="0"/>
        <pt x="466" y="1231" on="1"/>
        <pt x="745" y="1231" on="1"/>
        <pt x="745" y="1269" on="1"/>
        <pt x="745" y="1322" on="0"/>
        <pt x="739" y="1385" on="0"/>
        <pt x="712" y="1419" on="0"/>
        <pt x="655" y="1432" on="0"/>
        <pt x="603" y="1436" on="1"/>
        <pt x="603" y="1485" on="1"/>
        <pt x="694" y="1496" on="0"/>
        <pt x="840" y="1533" on="0"/>
        <pt x="892" y="1550" on="1"/>
        <pt x="925" y="1518" on="1"/>
        <pt x="925" y="1231" on="1"/>
        <pt x="1070" y="1231" on="1"/>
        <pt x="1092" y="1206" on="1"/>
        <pt x="1065" y="1131" on="1"/>
        <pt x="925" y="1131" on="1"/>
        <pt x="925" y="269" on="1"/>
        <pt x="925" y="234" on="0"/>
        <pt x="928" y="185" on="0"/>
        <pt x="934" y="152" on="0"/>
        <pt x="942" y="132" on="0"/>
        <pt x="948" y="126" on="1"/>
        <pt x="953" y="121" on="0"/>
        <pt x="968" y="118" on="0"/>
        <pt x="995" y="123" on="0"/>
        <pt x="1034" y="135" on="0"/>
        <pt x="1063" y="147" on="1"/>
      </contour>
      <contour>
        <pt x="745" y="263" on="1"/>
        <pt x="745" y="722" on="1"/>
        <pt x="711" y="780" on="0"/>
        <pt x="596" y="843" on="0"/>
        <pt x="525" y="843" on="1"/>
        <pt x="466" y="843" on="0"/>
        <pt x="367" y="799" on="0"/>
        <pt x="295" y="709" on="0"/>
        <pt x="255" y="574" on="0"/>
        <pt x="255" y="483" on="1"/>
        <pt x="255" y="400" on="0"/>
        <pt x="301" y="265" on="0"/>
        <pt x="373" y="171" on="0"/>
        <pt x="461" y="120" on="0"/>
        <pt x="502" y="120" on="1"/>
        <pt x="534" y="120" on="0"/>
        <pt x="595" y="143" on="0"/>
        <pt x="655" y="182" on="0"/>
        <pt x="715" y="234" on="0"/>
      </contour>
    </TTGlyph>
    <TTGlyph name="degree" xMin="132" yMin="750" xMax="602" yMax="1244">
      <contour>
        <pt x="478" y="995" on="1"/>
        <pt x="478" y="1023" on="0"/>
        <pt x="464" y="1073" on="0"/>
        <pt x="438" y="1112" on="0"/>
        <pt x="401" y="1135" on="0"/>
        <pt x="378" y="1135" on="1"/>
        <pt x="354" y="1135" on="0"/>
        <pt x="310" y="1116" on="0"/>
        <pt x="276" y="1080" on="0"/>
        <pt x="256" y="1029" on="0"/>
        <pt x="256" y="998" on="1"/>
        <pt x="256" y="971" on="0"/>
        <pt x="270" y="921" on="0"/>
        <pt x="295" y="882" on="0"/>
        <pt x="332" y="858" on="0"/>
        <pt x="356" y="858" on="1"/>
        <pt x="379" y="858" on="0"/>
        <pt x="423" y="876" on="0"/>
        <pt x="457" y="911" on="0"/>
        <pt x="478" y="962" on="0"/>
      </contour>
      <contour>
        <pt x="602" y="1047" on="1"/>
        <pt x="602" y="983" on="0"/>
        <pt x="552" y="874" on="0"/>
        <pt x="473" y="795" on="0"/>
        <pt x="376" y="750" on="0"/>
        <pt x="328" y="750" on="1"/>
        <pt x="285" y="750" on="0"/>
        <pt x="213" y="781" on="0"/>
        <pt x="161" y="835" on="0"/>
        <pt x="132" y="906" on="0"/>
        <pt x="132" y="946" on="1"/>
        <pt x="132" y="1011" on="0"/>
        <pt x="181" y="1120" on="0"/>
        <pt x="259" y="1200" on="0"/>
        <pt x="357" y="1244" on="0"/>
        <pt x="406" y="1244" on="1"/>
        <pt x="446" y="1244" on="0"/>
        <pt x="517" y="1212" on="0"/>
        <pt x="571" y="1158" on="0"/>
        <pt x="602" y="1087" on="0"/>
      </contour>
    </TTGlyph>
    <TTGlyph name="dieresis" xMin="84" yMin="1113" xMax="716" yMax="1367">
      <contour>
        <pt x="716" y="1263" on="1"/>
        <pt x="716" y="1232" on="0"/>
        <pt x="696" y="1178" on="0"/>
        <pt x="661" y="1137" on="0"/>
        <pt x="614" y="1113" on="0"/>
        <pt x="587" y="1113" on="1"/>
        <pt x="538" y="1113" on="0"/>
        <pt x="491" y="1167" on="0"/>
        <pt x="491" y="1218" on="1"/>
        <pt x="491" y="1249" on="0"/>
        <pt x="512" y="1303" on="0"/>
        <pt x="547" y="1344" on="0"/>
        <pt x="594" y="1367" on="0"/>
        <pt x="620" y="1367" on="1"/>
        <pt x="716" y="1367" on="0"/>
      </contour>
      <contour>
        <pt x="309" y="1263" on="1"/>
        <pt x="309" y="1232" on="0"/>
        <pt x="289" y="1178" on="0"/>
        <pt x="254" y="1137" on="0"/>
        <pt x="206" y="1113" on="0"/>
        <pt x="179" y="1113" on="1"/>
        <pt x="130" y="1113" on="0"/>
        <pt x="84" y="1167" on="0"/>
        <pt x="84" y="1218" on="1"/>
        <pt x="84" y="1249" on="0"/>
        <pt x="105" y="1303" on="0"/>
        <pt x="140" y="1344" on="0"/>
        <pt x="187" y="1367" on="0"/>
        <pt x="213" y="1367" on="1"/>
        <pt x="260" y="1367" on="0"/>
        <pt x="309" y="1315" on="0"/>
      </contour>
    </TTGlyph>
    <TTGlyph name="divide" xMin="58" yMin="215" xMax="789" yMax="912">
      <contour>
        <pt x="512" y="335" on="1"/>
        <pt x="512" y="311" on="0"/>
        <pt x="496" y="267" on="0"/>
        <pt x="469" y="234" on="0"/>
        <pt x="432" y="215" on="0"/>
        <pt x="411" y="215" on="1"/>
        <pt x="372" y="215" on="0"/>
        <pt x="337" y="259" on="0"/>
        <pt x="337" y="300" on="1"/>
        <pt x="337" y="325" on="0"/>
        <pt x="353" y="368" on="0"/>
        <pt x="380" y="400" on="0"/>
        <pt x="417" y="418" on="0"/>
        <pt x="438" y="418" on="1"/>
        <pt x="512" y="418" on="0"/>
      </contour>
      <contour>
        <pt x="512" y="828" on="1"/>
        <pt x="512" y="804" on="0"/>
        <pt x="496" y="760" on="0"/>
        <pt x="469" y="727" on="0"/>
        <pt x="432" y="708" on="0"/>
        <pt x="411" y="708" on="1"/>
        <pt x="372" y="708" on="0"/>
        <pt x="337" y="752" on="0"/>
        <pt x="337" y="793" on="1"/>
        <pt x="337" y="818" on="0"/>
        <pt x="353" y="861" on="0"/>
        <pt x="380" y="893" on="0"/>
        <pt x="417" y="912" on="0"/>
        <pt x="438" y="912" on="1"/>
        <pt x="512" y="912" on="0"/>
      </contour>
      <contour>
        <pt x="789" y="596" on="1"/>
        <pt x="786" y="586" on="0"/>
        <pt x="777" y="560" on="0"/>
        <pt x="767" y="534" on="0"/>
        <pt x="757" y="510" on="0"/>
        <pt x="753" y="502" on="1"/>
        <pt x="86" y="502" on="1"/>
        <pt x="58" y="528" on="1"/>
        <pt x="63" y="549" on="0"/>
        <pt x="85" y="603" on="0"/>
        <pt x="94" y="623" on="1"/>
        <pt x="762" y="623" on="1"/>
      </contour>
    </TTGlyph>
    <TTGlyph name="dollar" xMin="84" yMin="-174" xMax="892" yMax="1384">
      <contour>
        <pt x="245" y="956" on="1"/>
        <pt x="245" y="920" on="0"/>
        <pt x="275" y="865" on="0"/>
        <pt x="328" y="821" on="0"/>
        <pt x="399" y="785" on="0"/>
        <pt x="440" y="769" on="1"/>
        <pt x="440" y="1108" on="1"/>
        <pt x="387" y="1105" on="0"/>
        <pt x="313" y="1077" on="0"/>
        <pt x="267" y="1035" on="0"/>
        <pt x="245" y="983" on="0"/>
      </contour>
      <contour>
        <pt x="732" y="322" on="1"/>
        <pt x="732" y="366" on="0"/>
        <pt x="702" y="434" on="0"/>
        <pt x="650" y="488" on="0"/>
        <pt x="580" y="529" on="0"/>
        <pt x="540" y="546" on="1"/>
        <pt x="540" y="122" on="1"/>
        <pt x="577" y="128" on="0"/>
        <pt x="647" y="160" on="0"/>
        <pt x="700" y="211" on="0"/>
        <pt x="732" y="280" on="0"/>
      </contour>
      <contour>
        <pt x="540" y="-138" on="1"/>
        <pt x="522" y="-154" on="0"/>
        <pt x="494" y="-168" on="0"/>
        <pt x="469" y="-174" on="1"/>
        <pt x="440" y="-150" on="1"/>
        <pt x="440" y="-10" on="1"/>
        <pt x="348" y="-8" on="0"/>
        <pt x="185" y="45" on="0"/>
        <pt x="97" y="101" on="1"/>
        <pt x="90" y="106" on="0"/>
        <pt x="84" y="168" on="0"/>
        <pt x="85" y="250" on="0"/>
        <pt x="92" y="335" on="0"/>
        <pt x="100" y="363" on="1"/>
        <pt x="153" y="359" on="1"/>
        <pt x="201" y="256" on="0"/>
        <pt x="346" y="138" on="0"/>
        <pt x="440" y="124" on="1"/>
        <pt x="440" y="585" on="1"/>
        <pt x="377" y="608" on="0"/>
        <pt x="252" y="659" on="0"/>
        <pt x="154" y="731" on="0"/>
        <pt x="93" y="834" on="0"/>
        <pt x="93" y="909" on="1"/>
        <pt x="93" y="952" on="0"/>
        <pt x="127" y="1049" on="0"/>
        <pt x="208" y="1135" on="0"/>
        <pt x="341" y="1200" on="0"/>
        <pt x="440" y="1210" on="1"/>
        <pt x="440" y="1351" on="1"/>
        <pt x="454" y="1359" on="0"/>
        <pt x="469" y="1369" on="0"/>
        <pt x="481" y="1375" on="0"/>
        <pt x="496" y="1380" on="0"/>
        <pt x="511" y="1384" on="1"/>
        <pt x="540" y="1360" on="1"/>
        <pt x="540" y="1214" on="1"/>
        <pt x="588" y="1212" on="0"/>
        <pt x="681" y="1197" on="0"/>
        <pt x="761" y="1171" on="0"/>
        <pt x="825" y="1138" on="0"/>
        <pt x="844" y="1119" on="1"/>
        <pt x="850" y="1112" on="0"/>
        <pt x="835" y="1067" on="0"/>
        <pt x="807" y="1014" on="0"/>
        <pt x="773" y="965" on="0"/>
        <pt x="760" y="953" on="1"/>
        <pt x="711" y="961" on="1"/>
        <pt x="635" y="1068" on="0"/>
        <pt x="540" y="1097" on="1"/>
        <pt x="540" y="731" on="1"/>
        <pt x="604" y="707" on="0"/>
        <pt x="730" y="651" on="0"/>
        <pt x="830" y="569" on="0"/>
        <pt x="892" y="456" on="0"/>
        <pt x="892" y="375" on="1"/>
        <pt x="892" y="315" on="0"/>
        <pt x="849" y="192" on="0"/>
        <pt x="762" y="87" on="0"/>
        <pt x="630" y="10" on="0"/>
        <pt x="540" y="-3" on="1"/>
      </contour>
    </TTGlyph>
    <TTGlyph name="dotaccent" xMin="88" yMin="1113" xMax="313" yMax="1367">
      <contour>
        <pt x="313" y="1263" on="1"/>
        <pt x="313" y="1232" on="0"/>
        <pt x="293" y="1178" on="0"/>
        <pt x="258" y="1137" on="0"/>
        <pt x="210" y="1113" on="0"/>
        <pt x="183" y="1113" on="1"/>
        <pt x="134" y="1113" on="0"/>
        <pt x="88" y="1167" on="0"/>
        <pt x="88" y="1218" on="1"/>
        <pt x="88" y="1249" on="0"/>
        <pt x="109" y="1303" on="0"/>
        <pt x="144" y="1344" on="0"/>
        <pt x="190" y="1367" on="0"/>
        <pt x="216" y="1367" on="1"/>
        <pt x="313" y="1367" on="0"/>
      </contour>
    </TTGlyph>
    <TTGlyph name="dotbelowcomb" xMin="-628" yMin="-427" xMax="-403" yMax="-173">
      <contour>
        <pt x="-403" y="-277" on="1"/>
        <pt x="-403" y="-308" on="0"/>
        <pt x="-423" y="-362" on="0"/>
        <pt x="-458" y="-403" on="0"/>
        <pt x="-505" y="-427" on="0"/>
        <pt x="-532" y="-427" on="1"/>
        <pt x="-581" y="-427" on="0"/>
        <pt x="-628" y="-374" on="0"/>
        <pt x="-628" y="-323" on="1"/>
        <pt x="-628" y="-292" on="0"/>
        <pt x="-607" y="-237" on="0"/>
        <pt x="-572" y="-196" on="0"/>
        <pt x="-525" y="-173" on="0"/>
        <pt x="-499" y="-173" on="1"/>
        <pt x="-403" y="-173" on="0"/>
      </contour>
    </TTGlyph>
    <TTGlyph name="dotlessi" xMin="68" yMin="0" xMax="523" yMax="960">
      <component glyphName="i.Dotless" x="0" y="0" flags="0x0"/>
    </TTGlyph>
    <TTGlyph name="e" xMin="75" yMin="-30" xMax="886" yMax="960">
      <contour>
        <pt x="501" y="850" on="1"/>
        <pt x="451" y="850" on="0"/>
        <pt x="370" y="811" on="0"/>
        <pt x="310" y="740" on="0"/>
        <pt x="271" y="640" on="0"/>
        <pt x="263" y="580" on="1"/>
        <pt x="659" y="580" on="1"/>
        <pt x="682" y="580" on="0"/>
        <pt x="697" y="595" on="0"/>
        <pt x="697" y="616" on="1"/>
        <pt x="697" y="644" on="0"/>
        <pt x="681" y="724" on="0"/>
        <pt x="638" y="798" on="0"/>
        <pt x="562" y="850" on="0"/>
      </contour>
      <contour>
        <pt x="886" y="555" on="1"/>
        <pt x="868" y="535" on="0"/>
        <pt x="798" y="496" on="0"/>
        <pt x="766" y="483" on="1"/>
        <pt x="258" y="483" on="1"/>
        <pt x="259" y="407" on="0"/>
        <pt x="299" y="272" on="0"/>
        <pt x="371" y="172" on="0"/>
        <pt x="474" y="113" on="0"/>
        <pt x="539" y="113" on="1"/>
        <pt x="570" y="113" on="0"/>
        <pt x="629" y="121" on="0"/>
        <pt x="697" y="148" on="0"/>
        <pt x="781" y="200" on="0"/>
        <pt x="838" y="244" on="1"/>
        <pt x="851" y="237" on="0"/>
        <pt x="875" y="203" on="0"/>
        <pt x="880" y="195" on="1"/>
        <pt x="812" y="123" on="0"/>
        <pt x="708" y="35" on="0"/>
        <pt x="615" y="-14" on="0"/>
        <pt x="524" y="-30" on="0"/>
        <pt x="470" y="-30" on="1"/>
        <pt x="390" y="-30" on="0"/>
        <pt x="247" y="37" on="0"/>
        <pt x="139" y="159" on="0"/>
        <pt x="75" y="331" on="0"/>
        <pt x="75" y="437" on="1"/>
        <pt x="75" y="504" on="0"/>
        <pt x="104" y="632" on="0"/>
        <pt x="159" y="744" on="0"/>
        <pt x="239" y="840" on="0"/>
        <pt x="291" y="876" on="1"/>
        <pt x="315" y="893" on="0"/>
        <pt x="373" y="923" on="0"/>
        <pt x="436" y="946" on="0"/>
        <pt x="502" y="960" on="0"/>
        <pt x="532" y="960" on="1"/>
        <pt x="597" y="960" on="0"/>
        <pt x="701" y="926" on="0"/>
        <pt x="780" y="867" on="0"/>
        <pt x="835" y="787" on="0"/>
        <pt x="870" y="697" on="0"/>
        <pt x="886" y="601" on="0"/>
      </contour>
    </TTGlyph>
    <TTGlyph name="eacute" xMin="75" yMin="-30" xMax="886" yMax="1497">
      <component glyphName="e" x="0" y="0" flags="0x0"/>
      <component glyphName="acutecomb" x="1061" y="0" flags="0x0"/>
    </TTGlyph>
    <TTGlyph name="ebreve" xMin="75" yMin="-30" xMax="886" yMax="1415">
      <component glyphName="e" x="0" y="0" flags="0x0"/>
      <component glyphName="uni0306" x="1034" y="0" flags="0x0"/>
    </TTGlyph>
    <TTGlyph name="ecaron" xMin="75" yMin="-30" xMax="886" yMax="1488">
      <component glyphName="e" x="0" y="0" flags="0x0"/>
      <component glyphName="uni030C" x="1031" y="0" flags="0x0"/>
    </TTGlyph>
    <TTGlyph name="ecircumflex" xMin="75" yMin="-30" xMax="886" yMax="1479">
      <component glyphName="e" x="0" y="0" flags="0x0"/>
      <component glyphName="uni0302" x="1033" y="0" flags="0x0"/>
    </TTGlyph>
    <TTGlyph name="edieresis" xMin="75" yMin="-30" xMax="886" yMax="1367">
      <component glyphName="e" x="0" y="0" flags="0x0"/>
      <component glyphName="uni0308" x="1034" y="0" flags="0x0"/>
    </TTGlyph>
    <TTGlyph name="edotaccent" xMin="75" yMin="-30" xMax="886" yMax="1367">
      <component glyphName="e" x="0" y="0" flags="0x0"/>
      <component glyphName="uni0307" x="1034" y="0" flags="0x0"/>
    </TTGlyph>
    <TTGlyph name="egrave" xMin="75" yMin="-30" xMax="886" yMax="1497">
      <component glyphName="e" x="0" y="0" flags="0x0"/>
      <component glyphName="gravecomb" x="953" y="0" flags="0x0"/>
    </TTGlyph>
</ttFont>
